{"glyphs":{"0":{"ha":886,"x_min":89,"x_max":797,"o":"m 443 -19 q 184 80 279 -19 q 89 375 89 179 l 89 597 q 184 892 89 793 q 443 992 279 992 q 702 892 607 992 q 797 597 797 793 l 797 375 q 702 80 797 179 q 443 -19 607 -19 m 443 58 q 644 141 576 58 q 711 369 711 224 l 711 603 q 644 831 711 749 q 443 914 576 914 q 242 831 310 914 q 175 603 175 749 l 175 369 q 242 141 175 224 q 443 58 310 58 z "},"1":{"ha":561,"x_min":28,"x_max":442,"o":"m 356 0 l 356 919 l 338 919 l 125 558 l 28 558 l 274 972 l 442 972 l 442 0 l 356 0 z "},"2":{"ha":842,"x_min":81,"x_max":768,"o":"m 81 0 l 81 96 q 118 260 81 200 q 223 357 156 321 q 382 421 290 393 l 451 443 q 572 494 519 464 q 653 571 624 524 q 682 690 682 618 l 682 696 q 612 856 682 797 q 433 914 542 914 q 244 852 318 914 q 171 664 171 790 l 171 646 l 88 646 l 88 664 q 132 842 88 769 q 255 953 176 915 q 433 992 333 992 q 609 955 533 992 q 726 852 685 918 q 768 699 768 786 l 768 686 q 731 531 768 592 q 628 433 694 471 q 471 365 561 394 l 401 344 q 274 295 326 321 q 194 227 222 269 q 167 110 167 185 l 167 78 l 760 78 l 760 0 l 81 0 z "},"3":{"ha":838,"x_min":69,"x_max":760,"o":"m 421 -19 q 240 19 319 -19 q 115 133 160 58 q 69 313 69 207 l 69 339 l 156 339 l 156 311 q 229 126 156 193 q 421 58 303 58 q 607 122 540 58 q 674 283 674 186 l 674 292 q 640 408 674 364 q 548 474 606 453 q 421 496 490 496 l 278 496 l 278 613 l 672 881 l 672 894 l 92 894 l 92 972 l 758 972 l 758 847 l 368 582 l 368 568 l 444 568 q 606 537 535 568 q 718 445 676 506 q 760 294 760 385 l 760 281 q 718 123 760 190 q 600 18 676 56 q 421 -19 524 -19 z "},"4":{"ha":861,"x_min":47,"x_max":822,"o":"m 567 0 l 567 200 l 47 200 l 47 303 l 486 972 l 653 972 l 653 278 l 822 278 l 822 200 l 653 200 l 653 0 l 567 0 m 138 278 l 567 278 l 567 922 l 550 922 l 138 292 l 138 278 z "},"5":{"ha":831,"x_min":78,"x_max":757,"o":"m 418 -19 q 239 22 315 -19 q 120 135 163 63 q 78 304 78 208 l 78 322 l 164 322 l 164 308 q 235 121 164 183 q 417 58 306 58 q 603 126 536 58 q 671 315 671 194 l 671 326 q 606 510 671 442 q 436 578 542 578 q 335 558 375 578 q 272 509 294 538 q 235 454 249 481 l 107 454 l 107 972 l 735 972 l 735 894 l 193 894 l 193 518 l 210 518 q 254 581 225 550 q 333 632 283 611 q 456 653 382 653 q 608 613 540 653 q 717 501 676 574 q 757 328 757 428 l 757 314 q 716 142 757 217 q 599 24 675 67 q 418 -19 524 -19 z "},"6":{"ha":847,"x_min":89,"x_max":769,"o":"m 429 -19 q 256 19 333 -19 q 134 132 179 58 q 89 308 89 206 l 89 651 q 130 833 89 757 q 247 950 171 908 q 432 992 324 992 q 613 953 539 992 q 724 849 686 914 q 761 701 761 783 l 675 701 q 613 856 675 797 q 432 914 551 914 q 242 847 310 914 q 175 661 175 779 l 175 513 l 192 513 q 280 599 218 560 q 450 639 342 639 q 613 599 540 639 q 727 488 685 560 q 769 318 769 417 l 769 301 q 724 131 769 203 q 602 19 679 58 q 429 -19 525 -19 m 429 58 q 613 124 542 58 q 683 303 683 189 l 683 314 q 651 446 683 390 q 561 533 618 501 q 429 564 504 564 q 297 533 354 564 q 208 446 240 501 q 175 314 175 390 l 175 303 q 246 124 175 189 q 429 58 317 58 z "},"7":{"ha":789,"x_min":49,"x_max":742,"o":"m 222 0 l 222 33 q 231 112 222 81 q 263 188 239 143 l 650 882 l 650 894 l 49 894 l 49 972 l 742 972 l 742 871 l 336 143 q 315 92 321 115 q 308 33 308 69 l 308 0 l 222 0 z "},"8":{"ha":878,"x_min":75,"x_max":803,"o":"m 439 -19 q 244 15 325 -19 q 119 110 163 49 q 75 254 75 172 l 75 268 q 108 392 75 343 q 188 466 140 440 q 275 497 235 492 l 275 514 q 192 549 235 524 q 122 619 150 575 q 94 726 94 663 l 94 740 q 140 876 94 821 q 263 962 185 932 q 439 992 340 992 q 615 962 538 992 q 738 876 693 932 q 783 740 783 821 l 783 726 q 756 619 783 663 q 686 549 728 575 q 603 514 644 524 l 603 497 q 691 466 644 492 q 770 392 738 440 q 803 268 803 343 l 803 254 q 759 110 803 172 q 634 15 715 49 q 439 -19 553 -19 m 439 58 q 641 108 565 58 q 717 256 717 158 l 717 267 q 641 415 717 365 q 439 464 565 464 q 237 415 313 464 q 161 267 161 365 l 161 256 q 237 108 161 158 q 439 58 313 58 m 439 542 q 628 589 558 542 q 697 722 697 636 l 697 733 q 628 867 697 819 q 439 914 558 914 q 250 867 319 914 q 181 733 181 819 l 181 722 q 250 589 181 636 q 439 542 319 542 z "},"9":{"ha":847,"x_min":78,"x_max":758,"o":"m 415 -19 q 235 19 308 -19 q 124 124 161 58 q 86 271 86 190 l 172 271 q 235 117 172 175 q 415 58 297 58 q 606 126 539 58 q 672 311 672 193 l 672 460 l 656 460 q 567 373 629 413 q 397 333 506 333 q 235 373 308 333 q 120 485 163 413 q 78 654 78 557 l 78 671 q 123 842 78 771 q 245 953 168 914 q 418 992 322 992 q 592 953 515 992 q 713 841 668 914 q 758 664 758 768 l 758 321 q 718 140 758 217 q 601 22 678 64 q 415 -19 524 -19 m 418 408 q 550 440 493 408 q 640 527 607 471 q 672 658 672 583 l 672 669 q 601 849 672 783 q 418 914 531 914 q 235 849 306 914 q 164 669 164 783 l 164 658 q 197 527 164 583 q 286 440 229 471 q 418 408 343 408 z "},"\r":{"ha":833,"x_min":0,"x_max":0,"o":""}," ":{"ha":358,"x_min":0,"x_max":0,"o":""},"A":{"ha":872,"x_min":39,"x_max":833,"o":"m 39 0 l 357 972 l 515 972 l 833 0 l 740 0 l 657 258 l 215 258 l 132 0 l 39 0 m 240 339 l 632 339 l 444 919 l 428 919 l 240 339 z "},"B":{"ha":917,"x_min":67,"x_max":836,"o":"m 67 0 l 67 81 l 206 81 l 206 892 l 67 892 l 67 972 l 549 972 q 697 942 632 972 q 799 856 763 911 q 836 729 836 801 l 836 718 q 810 606 836 650 q 746 536 783 561 q 672 500 708 511 l 672 483 q 747 449 708 475 q 810 379 785 424 q 836 267 836 335 l 836 253 q 798 117 836 174 q 694 30 760 60 q 544 0 628 0 l 67 0 m 294 81 l 536 81 q 694 129 640 81 q 747 260 747 178 l 747 271 q 694 401 747 353 q 536 450 640 450 l 294 450 l 294 81 m 294 531 l 542 531 q 692 578 638 531 q 747 704 747 626 l 747 718 q 692 844 747 796 q 542 892 638 892 l 294 892 l 294 531 z "},"C":{"ha":890,"x_min":89,"x_max":813,"o":"m 464 -19 q 191 81 293 -19 q 89 376 89 182 l 89 596 q 191 891 89 790 q 464 992 293 992 q 723 897 633 992 q 813 638 813 801 l 813 631 l 724 631 l 724 640 q 660 835 724 760 q 464 911 597 911 q 253 829 329 911 q 178 599 178 747 l 178 374 q 253 143 178 225 q 464 61 329 61 q 660 137 597 61 q 724 332 724 213 l 724 353 l 813 353 l 813 335 q 723 76 813 171 q 464 -19 633 -19 z "},"D":{"ha":919,"x_min":67,"x_max":839,"o":"m 67 0 l 67 81 l 206 81 l 206 892 l 67 892 l 67 972 l 436 972 q 733 876 626 972 q 839 575 839 779 l 839 396 q 733 96 839 192 q 436 0 626 0 l 67 0 m 294 81 l 436 81 q 669 154 589 81 q 750 392 750 228 l 750 579 q 669 817 750 744 q 436 890 589 890 l 294 890 l 294 81 z "},"E":{"ha":788,"x_min":119,"x_max":713,"o":"m 119 0 l 119 972 l 707 972 l 707 892 l 208 892 l 208 528 l 668 528 l 668 447 l 208 447 l 208 81 l 713 81 l 713 0 l 119 0 z "},"F":{"ha":753,"x_min":119,"x_max":697,"o":"m 119 0 l 119 972 l 697 972 l 697 892 l 208 892 l 208 528 l 657 528 l 657 447 l 208 447 l 208 0 l 119 0 z "},"G":{"ha":915,"x_min":89,"x_max":807,"o":"m 458 -19 q 264 26 347 -19 q 135 159 181 71 q 89 376 89 247 l 89 596 q 191 891 89 790 q 464 992 293 992 q 720 897 633 992 q 807 646 807 803 l 807 639 l 718 639 l 718 649 q 692 784 718 725 q 609 877 665 843 q 464 911 553 911 q 253 829 329 911 q 178 599 178 747 l 178 374 q 253 143 178 225 q 464 61 329 61 q 658 138 596 61 q 721 343 721 214 l 721 371 l 400 371 l 400 449 l 807 449 l 807 0 l 726 0 l 726 110 l 710 110 q 663 47 693 76 q 583 -1 632 17 q 458 -19 533 -19 z "},"H":{"ha":911,"x_min":119,"x_max":792,"o":"m 119 0 l 119 972 l 208 972 l 208 528 l 703 528 l 703 972 l 792 972 l 792 0 l 703 0 l 703 447 l 208 447 l 208 0 l 119 0 z "},"I":{"ha":328,"x_min":119,"x_max":208,"o":"m 119 0 l 119 972 l 208 972 l 208 0 l 119 0 z "},"J":{"ha":817,"x_min":61,"x_max":753,"o":"m 363 -19 q 142 60 224 -19 q 61 292 61 140 l 61 360 l 150 360 l 150 292 q 203 126 150 190 q 364 61 256 61 q 518 126 475 61 q 561 292 561 190 l 561 892 l 389 892 l 389 972 l 753 972 l 753 892 l 650 892 l 650 292 q 578 60 650 140 q 363 -19 507 -19 z "},"K":{"ha":839,"x_min":119,"x_max":817,"o":"m 119 0 l 119 972 l 208 972 l 208 533 l 225 533 l 675 972 l 800 972 l 297 492 l 817 0 l 690 0 l 225 447 l 208 447 l 208 0 l 119 0 z "},"L":{"ha":760,"x_min":119,"x_max":719,"o":"m 119 0 l 119 972 l 208 972 l 208 81 l 719 81 l 719 0 l 119 0 z "},"M":{"ha":1192,"x_min":119,"x_max":1072,"o":"m 119 0 l 119 972 l 293 972 l 588 53 l 604 53 l 899 972 l 1072 972 l 1072 0 l 986 0 l 986 919 l 969 919 l 675 0 l 517 0 l 222 919 l 206 919 l 206 0 l 119 0 z "},"N":{"ha":918,"x_min":119,"x_max":799,"o":"m 119 0 l 119 972 l 296 972 l 693 53 l 710 53 l 710 972 l 799 972 l 799 0 l 622 0 l 225 921 l 208 921 l 208 0 l 119 0 z "},"O":{"ha":925,"x_min":89,"x_max":836,"o":"m 463 -19 q 190 81 292 -19 q 89 376 89 182 l 89 596 q 190 891 89 790 q 463 992 292 992 q 735 891 633 992 q 836 596 836 790 l 836 376 q 735 81 836 182 q 463 -19 633 -19 m 463 61 q 673 143 599 61 q 747 374 747 225 l 747 599 q 673 829 747 747 q 463 911 599 911 q 253 829 328 911 q 178 599 178 747 l 178 374 q 253 143 178 225 q 463 61 328 61 z "},"P":{"ha":833,"x_min":119,"x_max":783,"o":"m 119 0 l 119 972 l 479 972 q 634 940 565 972 q 743 846 703 907 q 783 697 783 785 l 783 681 q 742 531 783 593 q 633 438 701 469 q 479 406 564 406 l 208 406 l 208 0 l 119 0 m 208 486 l 469 486 q 634 538 574 486 q 694 682 694 589 l 694 696 q 635 841 694 790 q 469 892 576 892 l 208 892 l 208 486 z "},"Q":{"ha":925,"x_min":89,"x_max":836,"o":"m 463 -19 q 190 81 292 -19 q 89 376 89 182 l 89 596 q 190 891 89 790 q 463 992 292 992 q 735 891 633 992 q 836 596 836 790 l 836 376 q 735 81 836 182 q 463 -19 633 -19 m 463 61 q 673 143 599 61 q 747 374 747 225 l 747 599 q 673 829 747 747 q 463 911 599 911 q 253 829 328 911 q 178 599 178 747 l 178 374 q 253 143 178 225 q 463 61 328 61 m 515 -214 q 444 -187 471 -214 q 418 -114 418 -161 l 418 0 l 506 0 l 506 -96 q 544 -137 506 -137 l 640 -137 l 640 -214 l 515 -214 z "},"R":{"ha":876,"x_min":119,"x_max":807,"o":"m 119 0 l 119 972 l 500 972 q 659 942 590 972 q 767 853 728 911 q 807 714 807 796 l 807 700 q 760 545 807 601 q 649 471 713 489 l 649 454 q 731 424 697 453 q 764 331 764 394 l 764 0 l 675 0 l 675 321 q 651 389 675 365 q 578 413 626 413 l 208 413 l 208 0 l 119 0 m 208 493 l 492 493 q 659 544 600 493 q 718 689 718 594 l 718 696 q 660 841 718 790 q 492 892 603 892 l 208 892 l 208 493 z "},"S":{"ha":856,"x_min":75,"x_max":778,"o":"m 438 -19 q 251 17 333 -19 q 122 130 169 54 q 75 322 75 206 l 75 349 l 164 349 l 164 322 q 241 123 164 188 q 438 58 318 58 q 624 115 558 58 q 689 258 689 171 q 660 352 689 317 q 581 409 632 388 q 464 447 531 431 l 375 469 q 233 522 296 490 q 135 603 171 553 q 99 733 99 654 q 140 871 99 813 q 253 960 181 929 q 421 992 325 992 q 594 958 517 992 q 716 860 671 925 q 761 699 761 796 l 761 633 l 672 633 l 672 699 q 639 822 672 775 q 549 892 606 869 q 421 914 492 914 q 253 867 319 914 q 188 733 188 821 q 215 640 188 675 q 291 585 242 606 q 407 547 340 564 l 496 525 q 636 477 572 507 q 739 395 700 447 q 778 258 778 343 q 735 111 778 174 q 617 15 693 49 q 438 -19 540 -19 z "},"T":{"ha":817,"x_min":39,"x_max":778,"o":"m 364 0 l 364 892 l 39 892 l 39 972 l 778 972 l 778 892 l 453 892 l 453 0 l 364 0 z "},"U":{"ha":922,"x_min":111,"x_max":811,"o":"m 461 -19 q 278 17 357 -19 q 156 129 200 54 q 111 318 111 204 l 111 972 l 200 972 l 200 318 q 269 124 200 188 q 461 61 338 61 q 653 124 585 61 q 722 318 722 188 l 722 972 l 811 972 l 811 318 q 767 129 811 204 q 644 17 724 54 q 461 -19 565 -19 z "},"V":{"ha":861,"x_min":39,"x_max":822,"o":"m 351 0 l 39 972 l 132 972 l 422 51 l 439 51 l 729 972 l 822 972 l 510 0 l 351 0 z "},"W":{"ha":1203,"x_min":56,"x_max":1147,"o":"m 226 0 l 56 972 l 146 972 l 301 53 l 318 53 l 519 972 l 683 972 l 885 53 l 901 53 l 1057 972 l 1147 972 l 976 0 l 811 0 l 610 919 l 593 919 l 392 0 l 226 0 z "},"X":{"ha":882,"x_min":50,"x_max":832,"o":"m 50 0 l 375 490 l 56 972 l 163 972 l 432 551 l 449 551 l 719 972 l 826 972 l 507 490 l 832 0 l 725 0 l 449 429 l 432 429 l 157 0 l 50 0 z "},"Y":{"ha":839,"x_min":22,"x_max":817,"o":"m 375 0 l 375 385 l 22 972 l 128 972 l 411 486 l 428 486 l 711 972 l 817 972 l 464 385 l 464 0 l 375 0 z "},"Z":{"ha":803,"x_min":72,"x_max":736,"o":"m 72 0 l 72 122 l 639 878 l 639 892 l 89 892 l 89 972 l 722 972 l 722 850 l 156 94 l 156 81 l 736 81 l 736 0 l 72 0 z "},"a":{"ha":797,"x_min":76,"x_max":761,"o":"m 329 -19 q 201 5 258 -19 q 110 76 143 29 q 76 190 76 124 q 110 303 76 258 q 200 369 143 347 q 326 392 257 392 l 574 392 l 574 446 q 526 574 574 528 q 389 619 479 619 q 248 576 300 619 q 178 458 196 532 l 97 482 q 150 590 114 542 q 246 666 186 638 q 389 694 306 694 q 587 628 517 694 q 657 442 657 561 l 657 114 q 696 72 657 72 l 761 72 l 761 0 l 672 0 q 604 26 629 0 q 579 96 579 51 l 579 106 l 565 106 q 519 46 547 75 q 444 -1 490 17 q 329 -19 399 -19 m 335 56 q 508 120 442 56 q 574 303 574 185 l 574 319 l 328 319 q 208 288 256 319 q 160 192 160 257 q 209 91 160 126 q 335 56 258 56 z "},"b":{"ha":897,"x_min":122,"x_max":808,"o":"m 483 -19 q 310 24 372 -19 q 219 124 249 68 l 203 124 l 203 0 l 122 0 l 122 972 l 206 972 l 206 557 l 222 557 q 273 623 240 592 q 358 674 306 654 q 483 694 410 694 q 649 652 575 694 q 765 531 722 610 q 808 346 808 453 l 808 329 q 765 144 808 222 q 647 23 721 65 q 483 -19 574 -19 m 464 56 q 651 129 579 56 q 722 332 722 203 l 722 343 q 651 546 722 472 q 464 619 579 619 q 278 546 350 619 q 206 343 206 472 l 206 332 q 278 129 206 203 q 464 56 350 56 z "},"c":{"ha":838,"x_min":89,"x_max":754,"o":"m 431 -19 q 255 23 332 -19 q 133 144 178 65 q 89 331 89 224 l 89 344 q 133 531 89 453 q 255 652 178 610 q 431 694 332 694 q 595 658 528 694 q 701 562 663 621 q 749 438 739 503 l 667 421 q 632 520 660 475 q 554 592 604 565 q 431 619 504 619 q 299 585 357 619 q 206 490 240 551 q 172 343 172 428 l 172 332 q 206 185 172 247 q 299 90 240 124 q 431 56 357 56 q 600 113 542 56 q 672 254 658 171 l 754 238 q 702 113 742 172 q 595 17 663 54 q 431 -19 528 -19 z "},"d":{"ha":897,"x_min":89,"x_max":775,"o":"m 414 -19 q 250 23 324 -19 q 133 144 176 65 q 89 329 89 222 l 89 346 q 132 531 89 453 q 249 652 175 610 q 414 694 324 694 q 540 674 489 694 q 624 623 592 654 q 675 557 657 592 l 692 557 l 692 972 l 775 972 l 775 0 l 694 0 l 694 124 l 678 124 q 587 24 649 68 q 414 -19 525 -19 m 433 56 q 620 129 549 56 q 692 332 692 203 l 692 343 q 620 546 692 472 q 433 619 549 619 q 247 546 319 619 q 175 343 175 472 l 175 332 q 247 129 175 203 q 433 56 319 56 z "},"e":{"ha":831,"x_min":89,"x_max":747,"o":"m 433 -19 q 252 24 329 -19 q 132 147 175 68 q 89 329 89 226 l 89 346 q 132 528 89 450 q 251 651 175 607 q 424 694 326 694 q 591 655 518 694 q 706 541 664 615 q 747 364 747 467 l 747 319 l 172 319 q 249 124 176 193 q 433 56 322 56 q 580 99 528 56 q 660 204 632 142 l 735 171 q 677 81 714 125 q 582 9 640 38 q 433 -19 524 -19 m 174 392 l 663 392 q 592 560 657 501 q 424 619 526 619 q 256 560 322 619 q 174 392 189 501 z "},"f":{"ha":617,"x_min":42,"x_max":575,"o":"m 264 0 l 264 600 l 42 600 l 42 675 l 264 675 l 264 867 q 291 944 264 917 q 372 972 318 972 l 539 972 l 539 897 l 389 897 q 347 856 347 897 l 347 675 l 575 675 l 575 600 l 347 600 l 347 0 l 264 0 z "},"g":{"ha":894,"x_min":89,"x_max":772,"o":"m 89 335 l 89 351 q 133 535 89 458 q 250 653 176 611 q 414 694 324 694 q 587 651 525 694 q 678 551 649 607 l 694 551 l 694 675 l 772 675 l 772 -172 q 746 -250 772 -222 q 665 -278 719 -278 l 204 -278 l 204 -203 l 649 -203 q 692 -161 692 -203 l 692 129 l 675 129 q 624 64 657 96 q 540 12 592 32 q 414 -8 489 -8 q 249 33 324 -8 q 132 152 175 75 q 89 335 89 229 m 433 67 q 620 139 549 67 q 692 338 692 211 l 692 349 q 620 548 692 476 q 433 619 549 619 q 247 548 319 619 q 175 349 175 476 l 175 338 q 247 139 175 211 q 433 67 319 67 z "},"h":{"ha":850,"x_min":122,"x_max":736,"o":"m 122 0 l 122 972 l 206 972 l 206 557 l 222 557 q 269 620 239 590 q 347 669 299 650 q 467 688 394 688 q 601 657 540 688 q 699 565 663 626 q 736 411 736 504 l 736 0 l 653 0 l 653 406 q 597 565 653 517 q 449 613 542 613 q 275 544 344 613 q 206 338 206 476 l 206 0 l 122 0 z "},"i":{"ha":328,"x_min":92,"x_max":236,"o":"m 122 0 l 122 675 l 206 675 l 206 0 l 122 0 m 164 792 q 113 813 133 792 q 92 864 92 833 q 113 916 92 896 q 164 936 133 936 q 216 916 196 936 q 236 864 236 896 q 216 813 236 833 q 164 792 196 792 z "},"j":{"ha":331,"x_min":-14,"x_max":239,"o":"m -14 -278 l -14 -203 l 83 -203 q 125 -161 125 -203 l 125 675 l 208 675 l 208 -172 q 181 -250 208 -222 q 100 -278 154 -278 l -14 -278 m 167 792 q 115 813 136 792 q 94 864 94 833 q 115 916 94 896 q 167 936 136 936 q 219 916 199 936 q 239 864 239 896 q 219 813 239 833 q 167 792 199 792 z "},"k":{"ha":732,"x_min":122,"x_max":701,"o":"m 122 0 l 122 972 l 206 972 l 206 386 l 222 386 l 568 675 l 690 675 l 290 346 l 701 0 l 581 0 l 222 304 l 206 304 l 206 0 l 122 0 z "},"l":{"ha":328,"x_min":122,"x_max":206,"o":"m 122 0 l 122 972 l 206 972 l 206 0 l 122 0 z "},"m":{"ha":1197,"x_min":122,"x_max":1083,"o":"m 122 0 l 122 675 l 203 675 l 203 586 l 219 586 q 286 656 240 624 q 417 689 332 689 q 549 651 499 689 q 622 561 600 614 l 639 561 q 713 651 663 614 q 853 689 763 689 q 974 660 922 689 q 1054 581 1025 632 q 1083 463 1083 531 l 1083 0 l 1000 0 l 1000 454 q 956 570 1000 526 q 833 614 913 614 q 699 562 753 614 q 644 410 644 510 l 644 0 l 561 0 l 561 454 q 517 570 561 526 q 394 614 474 614 q 260 562 314 614 q 206 410 206 510 l 206 0 l 122 0 z "},"n":{"ha":850,"x_min":122,"x_max":736,"o":"m 122 0 l 122 675 l 203 675 l 203 550 l 219 550 q 301 647 244 604 q 467 689 358 689 q 601 658 540 689 q 699 566 663 628 q 736 411 736 504 l 736 0 l 653 0 l 653 406 q 597 565 653 517 q 449 614 542 614 q 275 545 344 614 q 206 338 206 476 l 206 0 l 122 0 z "},"o":{"ha":861,"x_min":89,"x_max":772,"o":"m 431 -19 q 251 24 328 -19 q 131 147 174 68 q 89 329 89 225 l 89 346 q 131 528 89 450 q 251 651 174 607 q 431 694 328 694 q 610 651 533 694 q 730 528 688 607 q 772 346 772 450 l 772 329 q 730 147 772 225 q 610 24 688 68 q 431 -19 533 -19 m 431 56 q 619 131 550 56 q 689 332 689 207 l 689 343 q 619 544 689 468 q 431 619 550 619 q 242 544 313 619 q 172 343 172 468 l 172 332 q 242 131 172 207 q 431 56 313 56 z "},"p":{"ha":897,"x_min":122,"x_max":808,"o":"m 122 -278 l 122 675 l 203 675 l 203 551 l 219 551 q 310 651 249 607 q 483 694 372 694 q 647 652 574 694 q 765 532 721 610 q 808 346 808 454 l 808 329 q 765 144 808 222 q 649 23 722 65 q 483 -19 575 -19 q 358 1 410 -19 q 273 53 306 21 q 222 118 240 85 l 206 118 l 206 -278 l 122 -278 m 464 56 q 651 129 579 56 q 722 332 722 203 l 722 343 q 651 546 722 472 q 464 619 579 619 q 278 546 350 619 q 206 343 206 472 l 206 332 q 278 129 206 203 q 464 56 350 56 z "},"q":{"ha":897,"x_min":89,"x_max":775,"o":"m 692 -278 l 692 118 l 675 118 q 624 53 657 85 q 540 1 592 21 q 414 -19 489 -19 q 249 23 324 -19 q 132 144 175 65 q 89 329 89 222 l 89 346 q 133 532 89 454 q 250 652 176 610 q 414 694 324 694 q 587 651 525 694 q 678 551 649 607 l 694 551 l 694 675 l 775 675 l 775 -278 l 692 -278 m 433 56 q 620 129 549 56 q 692 332 692 203 l 692 343 q 620 546 692 472 q 433 619 549 619 q 247 546 319 619 q 175 343 175 472 l 175 332 q 247 129 175 203 q 433 56 319 56 z "},"r":{"ha":513,"x_min":122,"x_max":463,"o":"m 122 0 l 122 675 l 203 675 l 203 590 l 219 590 q 277 657 239 636 q 383 678 315 678 l 463 678 l 463 600 l 374 600 q 251 557 297 600 q 206 422 206 514 l 206 0 l 122 0 z "},"s":{"ha":733,"x_min":75,"x_max":658,"o":"m 390 -19 q 181 39 268 -19 q 75 232 94 97 l 157 247 q 202 131 168 174 q 285 71 236 89 q 390 53 335 53 q 524 87 474 53 q 575 181 575 121 q 527 265 575 242 q 400 303 479 289 l 336 314 q 221 348 272 325 q 140 410 169 371 q 110 507 110 449 q 178 644 110 594 q 361 694 247 694 q 547 642 476 694 q 635 492 617 590 l 557 475 q 491 589 543 556 q 361 622 439 622 q 239 593 285 622 q 193 507 193 564 q 235 426 193 451 q 349 388 276 400 l 413 376 q 538 344 482 365 q 626 283 593 322 q 658 181 658 244 q 586 33 658 85 q 390 -19 514 -19 z "},"t":{"ha":642,"x_min":42,"x_max":578,"o":"m 367 0 q 285 28 313 0 q 258 106 258 56 l 258 600 l 42 600 l 42 675 l 258 675 l 258 928 l 342 928 l 342 675 l 578 675 l 578 600 l 342 600 l 342 117 q 383 75 342 75 l 542 75 l 542 0 l 367 0 z "},"u":{"ha":849,"x_min":113,"x_max":726,"o":"m 382 -14 q 248 17 310 -14 q 149 109 186 47 q 113 264 113 171 l 113 675 l 196 675 l 196 269 q 251 110 196 160 q 400 61 307 61 q 574 130 504 61 q 643 338 643 199 l 643 675 l 726 675 l 726 0 l 646 0 l 646 125 l 629 125 q 547 28 604 71 q 382 -14 490 -14 z "},"v":{"ha":744,"x_min":53,"x_max":692,"o":"m 306 0 l 53 675 l 142 675 l 364 64 l 381 64 l 603 675 l 692 675 l 439 0 l 306 0 z "},"w":{"ha":1122,"x_min":81,"x_max":1042,"o":"m 233 0 l 81 675 l 167 675 l 300 56 l 317 56 l 490 675 l 632 675 l 806 56 l 822 56 l 956 675 l 1042 675 l 889 0 l 743 0 l 569 619 l 553 619 l 379 0 l 233 0 z "},"x":{"ha":825,"x_min":69,"x_max":756,"o":"m 69 0 l 351 343 l 79 675 l 183 675 l 404 399 l 421 399 l 642 675 l 746 675 l 474 343 l 756 0 l 650 0 l 421 288 l 404 288 l 175 0 l 69 0 z "},"y":{"ha":849,"x_min":113,"x_max":726,"o":"m 207 -278 l 207 -203 l 601 -203 q 643 -161 643 -203 l 643 117 l 626 117 q 580 53 610 83 q 502 5 550 24 q 382 -14 454 -14 q 248 17 310 -14 q 149 108 186 47 q 113 263 113 169 l 113 675 l 196 675 l 196 268 q 251 110 196 158 q 400 61 307 61 q 574 129 504 61 q 643 336 643 197 l 643 675 l 726 675 l 726 -172 q 699 -250 726 -222 q 618 -278 672 -278 l 207 -278 z "},"z":{"ha":725,"x_min":89,"x_max":639,"o":"m 89 0 l 89 114 l 543 586 l 543 600 l 103 600 l 103 675 l 628 675 l 628 561 l 172 89 l 172 75 l 639 75 l 639 0 l 89 0 z "},"[":{"ha":453,"x_min":122,"x_max":425,"o":"m 217 -319 q 149 -292 175 -319 q 122 -224 122 -264 l 122 932 q 149 1000 122 972 q 217 1028 175 1028 l 425 1028 l 425 956 l 240 956 q 203 914 203 956 l 203 -206 q 240 -247 203 -247 l 425 -247 l 425 -319 l 217 -319 z "},"]":{"ha":453,"x_min":28,"x_max":331,"o":"m 28 -319 l 28 -247 l 213 -247 q 250 -206 250 -247 l 250 914 q 213 956 250 956 l 28 956 l 28 1028 l 236 1028 q 304 1000 278 1028 q 331 932 331 972 l 331 -224 q 304 -292 331 -264 q 236 -319 278 -319 l 28 -319 z "},"{":{"ha":581,"x_min":56,"x_max":553,"o":"m 344 -319 q 277 -292 304 -319 q 250 -224 250 -264 l 250 232 q 160 314 250 314 l 56 314 l 56 394 l 160 394 q 250 476 250 394 l 250 932 q 277 1000 250 972 q 344 1028 304 1028 l 553 1028 l 553 956 l 368 956 q 331 914 331 956 l 331 474 q 305 392 331 422 q 229 363 279 363 l 225 363 l 225 346 l 229 346 q 305 316 279 346 q 331 235 331 286 l 331 -206 q 368 -247 331 -247 l 553 -247 l 553 -319 l 344 -319 z "},"}":{"ha":581,"x_min":28,"x_max":525,"o":"m 28 -319 l 28 -247 l 213 -247 q 250 -206 250 -247 l 250 235 q 276 316 250 286 q 351 346 301 346 l 356 346 l 356 363 l 351 363 q 276 392 301 363 q 250 474 250 422 l 250 914 q 213 956 250 956 l 28 956 l 28 1028 l 236 1028 q 303 1000 276 1028 q 331 932 331 972 l 331 476 q 421 394 331 394 l 525 394 l 525 314 l 421 314 q 331 232 331 314 l 331 -224 q 303 -292 331 -264 q 236 -319 276 -319 l 28 -319 z "},"(":{"ha":515,"x_min":89,"x_max":501,"o":"m 501 -319 q 283 -276 375 -319 q 140 -135 190 -232 q 89 117 89 -39 l 89 592 q 140 844 89 749 q 283 984 190 940 q 501 1028 375 1028 l 501 956 q 249 862 329 953 q 169 585 169 771 l 169 124 q 249 -153 169 -61 q 501 -247 329 -244 l 501 -319 z "},")":{"ha":515,"x_min":14,"x_max":426,"o":"m 14 -319 l 14 -247 q 267 -153 188 -244 q 346 124 346 -61 l 346 585 q 267 862 346 771 q 14 956 188 953 l 14 1028 q 233 984 140 1028 q 376 844 325 940 q 426 592 426 749 l 426 117 q 376 -135 426 -39 q 233 -276 325 -232 q 14 -319 140 -319 z "},"/":{"ha":504,"x_min":8,"x_max":501,"o":"m 8 -278 l 417 972 l 501 972 l 93 -278 l 8 -278 z "},"|":{"ha":322,"x_min":119,"x_max":203,"o":"m 119 -342 l 119 1119 l 203 1119 l 203 -342 l 119 -342 z "},"¦":{"ha":322,"x_min":119,"x_max":203,"o":"m 119 508 l 119 1119 l 203 1119 l 203 508 l 119 508 m 119 -342 l 119 269 l 203 269 l 203 -342 l 119 -342 z "},"\\":{"ha":504,"x_min":3,"x_max":496,"o":"m 411 -278 l 3 972 l 88 972 l 496 -278 l 411 -278 z "},"'":{"ha":325,"x_min":83,"x_max":242,"o":"m 103 692 l 103 750 l 136 750 q 181 794 181 750 l 181 839 l 163 839 q 106 860 129 839 q 83 915 83 882 q 106 970 83 949 q 163 992 129 992 q 219 969 196 992 q 242 913 242 946 l 242 797 q 138 692 242 692 l 103 692 z "},"\"":{"ha":539,"x_min":83,"x_max":456,"o":"m 103 692 l 103 750 l 136 750 q 181 794 181 750 l 181 839 l 163 839 q 106 860 129 839 q 83 915 83 882 q 106 970 83 949 q 163 992 129 992 q 219 969 196 992 q 242 913 242 946 l 242 797 q 138 692 242 692 l 103 692 m 317 692 l 317 750 l 350 750 q 394 794 394 750 l 394 839 l 376 839 q 320 860 343 839 q 297 915 297 882 q 320 970 297 949 q 376 992 343 992 q 433 969 410 992 q 456 913 456 946 l 456 797 q 351 692 456 692 l 317 692 z "},"‘":{"ha":325,"x_min":83,"x_max":242,"o":"m 222 992 l 222 933 l 189 933 q 144 889 144 933 l 144 844 l 163 844 q 219 823 196 844 q 242 768 242 801 q 219 713 242 735 q 163 692 196 692 q 106 715 129 692 q 83 771 83 738 l 83 886 q 188 992 83 992 l 222 992 z "},"’":{"ha":325,"x_min":83,"x_max":242,"o":"m 103 692 l 103 750 l 136 750 q 181 794 181 750 l 181 839 l 163 839 q 106 860 129 839 q 83 915 83 882 q 106 970 83 949 q 163 992 129 992 q 219 969 196 992 q 242 913 242 946 l 242 797 q 138 692 242 692 l 103 692 z "},"“":{"ha":539,"x_min":83,"x_max":456,"o":"m 436 992 l 436 933 l 403 933 q 358 889 358 933 l 358 844 l 376 844 q 433 823 410 844 q 456 768 456 801 q 433 713 456 735 q 376 692 410 692 q 320 715 343 692 q 297 771 297 738 l 297 886 q 401 992 297 992 l 436 992 m 222 992 l 222 933 l 189 933 q 144 889 144 933 l 144 844 l 163 844 q 219 823 196 844 q 242 768 242 801 q 219 713 242 735 q 163 692 196 692 q 106 715 129 692 q 83 771 83 738 l 83 886 q 188 992 83 992 l 222 992 z "},"”":{"ha":539,"x_min":83,"x_max":456,"o":"m 103 692 l 103 750 l 136 750 q 181 794 181 750 l 181 839 l 163 839 q 106 860 129 839 q 83 915 83 882 q 106 970 83 949 q 163 992 129 992 q 219 969 196 992 q 242 913 242 946 l 242 797 q 138 692 242 692 l 103 692 m 317 692 l 317 750 l 350 750 q 394 794 394 750 l 394 839 l 376 839 q 320 860 343 839 q 297 915 297 882 q 320 970 297 949 q 376 992 343 992 q 433 969 410 992 q 456 913 456 946 l 456 797 q 351 692 456 692 l 317 692 z "},"‚":{"ha":325,"x_min":83,"x_max":242,"o":"m 103 -161 l 103 -103 l 136 -103 q 181 -58 181 -103 l 181 -14 l 163 -14 q 106 8 129 -14 q 83 63 83 29 q 106 117 83 96 q 163 139 129 139 q 219 116 196 139 q 242 60 242 93 l 242 -56 q 138 -161 242 -161 l 103 -161 z "},"„":{"ha":539,"x_min":83,"x_max":456,"o":"m 103 -161 l 103 -103 l 136 -103 q 181 -58 181 -103 l 181 -14 l 163 -14 q 106 8 129 -14 q 83 63 83 29 q 106 117 83 96 q 163 139 129 139 q 219 116 196 139 q 242 60 242 93 l 242 -56 q 138 -161 242 -161 l 103 -161 m 317 -161 l 317 -103 l 350 -103 q 394 -58 394 -103 l 394 -14 l 376 -14 q 320 8 343 -14 q 297 63 297 29 q 320 117 297 96 q 376 139 343 139 q 433 116 410 139 q 456 60 456 93 l 456 -56 q 351 -161 456 -161 l 317 -161 z "},".":{"ha":325,"x_min":83,"x_max":242,"o":"m 163 -19 q 106 3 128 -19 q 83 60 83 25 q 106 117 83 94 q 163 139 128 139 q 219 117 197 139 q 242 60 242 94 q 219 3 242 25 q 163 -19 197 -19 z "},",":{"ha":325,"x_min":83,"x_max":242,"o":"m 103 -161 l 103 -103 l 136 -103 q 181 -58 181 -103 l 181 -14 l 163 -14 q 106 8 129 -14 q 83 63 83 29 q 106 117 83 96 q 163 139 129 139 q 219 116 196 139 q 242 60 242 93 l 242 -56 q 138 -161 242 -161 l 103 -161 z "},":":{"ha":325,"x_min":83,"x_max":242,"o":"m 163 -19 q 106 3 128 -19 q 83 60 83 25 q 106 117 83 94 q 163 139 128 139 q 219 117 197 139 q 242 60 242 94 q 219 3 242 25 q 163 -19 197 -19 m 163 536 q 106 558 128 536 q 83 615 83 581 q 106 672 83 650 q 163 694 128 694 q 219 672 197 694 q 242 615 242 650 q 219 558 242 581 q 163 536 197 536 z "},";":{"ha":325,"x_min":83,"x_max":242,"o":"m 163 536 q 106 558 128 536 q 83 615 83 581 q 106 672 83 650 q 163 694 128 694 q 219 672 197 694 q 242 615 242 650 q 219 558 242 581 q 163 536 197 536 m 103 -161 l 103 -103 l 136 -103 q 181 -58 181 -103 l 181 -14 l 163 -14 q 106 8 129 -14 q 83 63 83 29 q 106 117 83 96 q 163 139 129 139 q 219 116 196 139 q 242 60 242 93 l 242 -56 q 138 -161 242 -161 l 103 -161 z "},"…":{"ha":875,"x_min":83,"x_max":792,"o":"m 163 -19 q 106 3 128 -19 q 83 60 83 25 q 106 117 83 94 q 163 139 128 139 q 219 117 197 139 q 242 60 242 94 q 219 3 242 25 q 163 -19 197 -19 m 438 -19 q 381 3 403 -19 q 358 60 358 25 q 381 117 358 94 q 438 139 403 139 q 494 117 472 139 q 517 60 517 94 q 494 3 517 25 q 438 -19 472 -19 m 713 -19 q 656 3 678 -19 q 633 60 633 25 q 656 117 633 94 q 713 139 678 139 q 769 117 747 139 q 792 60 792 94 q 769 3 792 25 q 713 -19 747 -19 z "},"!":{"ha":325,"x_min":83,"x_max":242,"o":"m 119 236 l 119 972 l 206 972 l 206 236 l 119 236 m 163 -19 q 106 3 128 -19 q 83 60 83 25 q 106 117 83 94 q 163 139 128 139 q 219 117 197 139 q 242 60 242 94 q 219 3 242 25 q 163 -19 197 -19 z "},"¡":{"ha":325,"x_min":83,"x_max":242,"o":"m 119 -278 l 119 439 l 206 439 l 206 -278 l 119 -278 m 163 694 q 219 672 197 694 q 242 615 242 650 q 219 558 242 581 q 163 536 197 536 q 106 558 128 536 q 83 615 83 581 q 106 672 83 650 q 163 694 128 694 z "},"?":{"ha":807,"x_min":64,"x_max":740,"o":"m 346 236 l 346 340 q 367 435 346 401 q 447 493 388 468 l 492 513 q 610 589 567 543 q 654 719 654 635 q 621 827 654 783 q 532 894 588 871 q 408 917 476 917 q 281 893 340 917 q 186 822 222 869 q 150 700 150 774 l 150 643 l 64 643 l 64 701 q 108 860 64 796 q 231 958 153 925 q 408 992 308 992 q 582 956 507 992 q 699 860 657 921 q 740 719 740 799 q 711 591 740 643 q 634 504 682 539 q 526 444 586 469 l 482 425 q 444 396 456 414 q 432 342 432 378 l 432 236 l 346 236 m 389 -19 q 332 3 354 -19 q 310 60 310 25 q 332 117 310 94 q 389 139 354 139 q 446 117 424 139 q 468 60 468 94 q 446 3 468 25 q 389 -19 424 -19 z "},"¿":{"ha":807,"x_min":67,"x_max":743,"o":"m 399 -300 q 225 -265 300 -300 q 108 -167 150 -229 q 67 -28 67 -106 q 96 100 67 49 q 174 187 125 151 q 281 247 222 222 l 325 267 q 364 297 353 278 q 375 350 375 315 l 375 439 l 461 439 l 461 351 q 440 258 461 290 q 360 199 419 225 l 315 179 q 197 103 242 147 q 153 -28 153 58 q 186 -135 153 -90 q 276 -202 219 -179 q 399 -225 332 -225 q 526 -201 467 -225 q 621 -129 585 -178 q 657 -8 657 -81 l 657 49 l 743 49 l 743 -10 q 699 -168 743 -103 q 576 -267 654 -233 q 399 -300 499 -300 m 417 694 q 474 672 451 694 q 496 615 496 650 q 474 558 496 581 q 417 536 451 536 q 360 558 382 536 q 338 615 338 581 q 360 672 338 650 q 417 694 382 694 z "},"‹":{"ha":631,"x_min":72,"x_max":533,"o":"m 525 39 l 72 292 l 72 394 l 525 647 l 533 647 l 533 560 l 153 350 l 153 336 l 533 126 l 533 39 l 525 39 z "},"›":{"ha":631,"x_min":97,"x_max":558,"o":"m 97 39 l 97 126 l 478 336 l 478 350 l 97 560 l 97 647 l 106 647 l 558 394 l 558 292 l 106 39 l 97 39 z "},"-":{"ha":644,"x_min":117,"x_max":528,"o":"m 117 319 l 117 397 l 528 397 l 528 319 l 117 319 z "},"–":{"ha":856,"x_min":117,"x_max":739,"o":"m 117 319 l 117 397 l 739 397 l 739 319 l 117 319 z "},"—":{"ha":1278,"x_min":117,"x_max":1161,"o":"m 117 319 l 117 397 l 1161 397 l 1161 319 l 117 319 z "},"·":{"ha":242,"x_min":42,"x_max":200,"o":"m 121 321 q 64 343 86 321 q 42 400 42 365 q 64 457 42 435 q 121 479 86 479 q 178 457 156 479 q 200 400 200 435 q 178 343 200 365 q 121 321 156 321 z "},"•":{"ha":478,"x_min":86,"x_max":392,"o":"m 239 208 q 161 228 196 208 q 106 281 126 247 q 86 358 86 315 q 106 435 86 401 q 161 489 126 469 q 239 508 196 508 q 317 489 282 508 q 372 435 351 469 q 392 358 392 401 q 372 281 392 315 q 317 228 351 247 q 239 208 282 208 z "},"_":{"ha":861,"x_min":114,"x_max":747,"o":"m 114 -147 l 114 -69 l 747 -69 l 747 -147 l 114 -147 z "},"@":{"ha":1432,"x_min":114,"x_max":1324,"o":"m 743 -278 q 420 -207 563 -278 q 196 0 278 -136 q 114 333 114 136 l 114 361 q 190 694 114 558 q 403 901 267 831 q 715 972 539 972 l 743 972 q 1046 903 915 972 q 1250 706 1176 835 q 1324 394 1324 576 l 1324 368 q 1258 90 1324 179 q 1074 0 1192 0 l 1042 0 q 962 25 989 0 q 935 93 935 50 l 935 111 l 918 111 q 881 52 906 82 q 812 1 856 22 q 699 -19 768 -19 q 552 24 618 -19 q 448 145 486 68 q 410 319 410 222 l 410 344 q 448 519 410 443 q 551 640 486 596 q 697 683 617 683 q 808 664 765 683 q 876 616 851 644 q 915 560 901 588 l 932 560 l 932 664 l 1013 664 l 1013 104 q 1020 79 1013 86 q 1044 72 1028 72 l 1065 72 q 1200 142 1160 72 q 1240 376 1240 211 l 1240 392 q 1178 667 1240 554 q 1006 838 1117 779 q 743 897 894 897 l 718 897 q 445 837 563 897 q 263 656 328 776 q 197 358 197 536 l 197 336 q 267 38 197 158 q 462 -142 338 -82 q 746 -203 586 -203 l 1013 -203 l 1013 -278 l 743 -278 m 713 57 q 870 128 808 57 q 932 325 932 199 l 932 339 q 870 536 932 465 q 713 607 808 607 q 555 535 617 607 q 493 340 493 463 l 493 324 q 555 129 493 201 q 713 57 617 57 z "},"&":{"ha":847,"x_min":69,"x_max":806,"o":"m 356 0 q 213 30 278 0 q 108 117 147 60 q 69 256 69 174 q 94 363 69 317 q 158 439 119 408 q 238 485 196 469 l 238 499 q 128 570 176 518 q 81 715 81 622 q 119 856 81 799 q 222 943 158 914 q 361 972 286 972 l 546 972 l 546 897 l 368 897 q 226 852 285 897 q 167 711 167 807 q 194 607 167 647 q 268 547 222 567 q 368 528 314 528 l 583 528 l 583 688 l 667 688 l 667 528 l 806 528 l 806 453 l 667 453 l 667 0 l 356 0 m 363 75 l 583 75 l 583 453 l 363 453 q 216 407 276 453 q 156 264 156 361 q 217 121 156 167 q 363 75 278 75 z "},"*":{"ha":711,"x_min":67,"x_max":644,"o":"m 67 651 l 67 715 l 189 715 l 283 706 l 290 719 l 215 779 l 129 865 l 174 910 l 260 824 l 319 749 l 333 756 l 324 850 l 324 972 l 388 972 l 388 850 l 378 756 l 392 749 l 451 824 l 538 910 l 582 865 l 496 779 l 421 719 l 428 706 l 522 715 l 644 715 l 644 651 l 522 651 l 428 661 l 421 647 l 496 588 l 582 501 l 538 457 l 451 543 l 392 618 l 378 611 l 388 517 l 388 394 l 324 394 l 324 517 l 333 611 l 319 618 l 260 543 l 174 457 l 129 501 l 215 588 l 290 647 l 283 661 l 189 651 l 67 651 z "},"À":{"ha":872,"x_min":39,"x_max":833,"o":"m 39 0 l 357 972 l 515 972 l 833 0 l 740 0 l 657 258 l 215 258 l 132 0 l 39 0 m 240 339 l 632 339 l 444 919 l 428 919 l 240 339 m 415 1058 l 301 1222 l 410 1222 l 501 1058 l 415 1058 z "},"Á":{"ha":872,"x_min":39,"x_max":833,"o":"m 39 0 l 357 972 l 515 972 l 833 0 l 740 0 l 657 258 l 215 258 l 132 0 l 39 0 m 240 339 l 632 339 l 444 919 l 428 919 l 240 339 m 371 1053 l 463 1217 l 571 1217 l 457 1053 l 371 1053 z "},"Â":{"ha":872,"x_min":39,"x_max":833,"o":"m 39 0 l 357 972 l 515 972 l 833 0 l 740 0 l 657 258 l 215 258 l 132 0 l 39 0 m 240 339 l 632 339 l 444 919 l 428 919 l 240 339 m 204 1053 l 388 1217 l 485 1217 l 668 1053 l 556 1053 l 444 1158 l 428 1158 l 317 1053 l 204 1053 z "},"Ã":{"ha":872,"x_min":39,"x_max":833,"o":"m 39 0 l 357 972 l 515 972 l 833 0 l 740 0 l 657 258 l 215 258 l 132 0 l 39 0 m 240 339 l 632 339 l 444 919 l 428 919 l 240 339 m 269 1060 l 214 1093 l 258 1167 q 294 1208 272 1190 q 351 1225 317 1225 q 408 1209 383 1225 q 461 1163 433 1193 q 493 1131 481 1140 q 519 1122 506 1122 q 544 1130 535 1122 q 561 1151 553 1138 l 603 1218 l 658 1185 l 614 1111 q 578 1071 600 1089 q 521 1053 557 1053 q 464 1069 489 1053 q 411 1115 439 1085 q 380 1147 392 1138 q 353 1156 368 1156 q 328 1147 339 1156 q 310 1125 318 1139 l 269 1060 z "},"Ä":{"ha":872,"x_min":39,"x_max":833,"o":"m 39 0 l 357 972 l 515 972 l 833 0 l 740 0 l 657 258 l 215 258 l 132 0 l 39 0 m 240 339 l 632 339 l 444 919 l 428 919 l 240 339 m 567 1058 q 516 1078 536 1058 q 496 1129 496 1099 q 516 1181 496 1161 q 567 1200 536 1200 q 618 1181 599 1200 q 638 1129 638 1161 q 618 1078 638 1099 q 567 1058 599 1058 m 306 1058 q 255 1078 275 1058 q 235 1129 235 1099 q 255 1181 235 1161 q 306 1200 275 1200 q 357 1181 338 1200 q 376 1129 376 1161 q 357 1078 376 1099 q 306 1058 338 1058 z "},"Ā":{"ha":872,"x_min":39,"x_max":833,"o":"m 39 0 l 357 972 l 515 972 l 833 0 l 740 0 l 657 258 l 215 258 l 132 0 l 39 0 m 240 339 l 632 339 l 444 919 l 428 919 l 240 339 m 228 1075 l 228 1147 l 644 1147 l 644 1075 l 228 1075 z "},"Ă":{"ha":872,"x_min":39,"x_max":833,"o":"m 39 0 l 357 972 l 515 972 l 833 0 l 740 0 l 657 258 l 215 258 l 132 0 l 39 0 m 240 339 l 632 339 l 444 919 l 428 919 l 240 339 m 436 1044 q 290 1092 342 1044 q 238 1215 238 1140 l 238 1219 l 315 1219 l 315 1215 q 346 1140 315 1168 q 436 1111 376 1111 q 528 1140 497 1111 q 558 1215 558 1168 l 558 1219 l 636 1219 l 636 1215 q 583 1092 636 1140 q 436 1044 531 1044 z "},"Å":{"ha":872,"x_min":39,"x_max":833,"o":"m 39 0 l 357 972 l 515 972 l 833 0 l 740 0 l 657 258 l 215 258 l 132 0 l 39 0 m 240 339 l 632 339 l 444 919 l 428 919 l 240 339 m 436 1039 q 342 1075 381 1039 q 303 1169 303 1111 q 342 1264 303 1228 q 436 1300 381 1300 q 532 1264 493 1300 q 571 1169 571 1228 q 532 1075 571 1111 q 436 1039 493 1039 m 436 1103 q 486 1122 468 1103 q 504 1169 504 1140 q 486 1217 504 1199 q 436 1236 468 1236 q 388 1217 406 1236 q 369 1169 369 1199 q 388 1122 369 1140 q 436 1103 406 1103 z "},"Ą":{"ha":872,"x_min":39,"x_max":889,"o":"m 39 0 l 357 972 l 515 972 l 833 0 l 740 0 l 657 258 l 215 258 l 132 0 l 39 0 m 240 339 l 632 339 l 444 919 l 428 919 l 240 339 m 822 -225 q 753 -202 778 -225 q 728 -136 728 -179 q 731 -97 728 -117 q 740 -56 735 -78 l 757 15 l 826 15 l 807 -90 q 803 -110 806 -103 q 801 -126 801 -117 q 832 -153 801 -153 l 889 -153 l 889 -225 l 822 -225 z "},"Æ":{"ha":1160,"x_min":39,"x_max":1085,"o":"m 547 0 l 547 972 l 1079 972 l 1079 892 l 636 892 l 636 528 l 1040 528 l 1040 447 l 636 447 l 636 81 l 1085 81 l 1085 0 l 547 0 m 39 0 l 464 972 l 547 972 l 547 919 l 532 919 l 282 339 l 547 339 l 547 258 l 247 258 l 136 0 l 39 0 z "},"Ç":{"ha":890,"x_min":89,"x_max":813,"o":"m 464 -19 q 191 81 293 -19 q 89 376 89 182 l 89 596 q 191 891 89 790 q 464 992 293 992 q 723 897 633 992 q 813 638 813 801 l 813 631 l 724 631 l 724 640 q 660 835 724 760 q 464 911 597 911 q 253 829 329 911 q 178 599 178 747 l 178 374 q 253 143 178 225 q 464 61 329 61 q 660 137 597 61 q 724 332 724 213 l 724 353 l 813 353 l 813 335 q 723 76 813 171 q 464 -19 633 -19 m 465 -281 q 388 -267 424 -281 q 325 -233 353 -254 l 361 -178 q 409 -206 383 -194 q 465 -217 435 -217 q 515 -205 494 -217 q 535 -167 535 -193 q 516 -131 535 -143 q 465 -118 497 -118 l 415 -118 l 431 31 l 496 31 l 486 -67 q 572 -94 540 -67 q 604 -172 604 -121 q 585 -233 604 -208 q 535 -269 567 -257 q 465 -281 504 -281 z "},"Ć":{"ha":890,"x_min":89,"x_max":813,"o":"m 464 -19 q 191 81 293 -19 q 89 376 89 182 l 89 596 q 191 891 89 790 q 464 992 293 992 q 723 897 633 992 q 813 638 813 801 l 813 631 l 724 631 l 724 640 q 660 835 724 760 q 464 911 597 911 q 253 829 329 911 q 178 599 178 747 l 178 374 q 253 143 178 225 q 464 61 329 61 q 660 137 597 61 q 724 332 724 213 l 724 353 l 813 353 l 813 335 q 723 76 813 171 q 464 -19 633 -19 m 399 1053 l 490 1217 l 599 1217 l 485 1053 l 399 1053 z "},"Ĉ":{"ha":890,"x_min":89,"x_max":813,"o":"m 464 -19 q 191 81 293 -19 q 89 376 89 182 l 89 596 q 191 891 89 790 q 464 992 293 992 q 723 897 633 992 q 813 638 813 801 l 813 631 l 724 631 l 724 640 q 660 835 724 760 q 464 911 597 911 q 253 829 329 911 q 178 599 178 747 l 178 374 q 253 143 178 225 q 464 61 329 61 q 660 137 597 61 q 724 332 724 213 l 724 353 l 813 353 l 813 335 q 723 76 813 171 q 464 -19 633 -19 m 232 1053 l 415 1217 l 513 1217 l 696 1053 l 583 1053 l 472 1158 l 456 1158 l 344 1053 l 232 1053 z "},"Č":{"ha":890,"x_min":89,"x_max":813,"o":"m 464 -19 q 191 81 293 -19 q 89 376 89 182 l 89 596 q 191 891 89 790 q 464 992 293 992 q 723 897 633 992 q 813 638 813 801 l 813 631 l 724 631 l 724 640 q 660 835 724 760 q 464 911 597 911 q 253 829 329 911 q 178 599 178 747 l 178 374 q 253 143 178 225 q 464 61 329 61 q 660 137 597 61 q 724 332 724 213 l 724 353 l 813 353 l 813 335 q 723 76 813 171 q 464 -19 633 -19 m 415 1053 l 232 1217 l 344 1217 l 456 1111 l 472 1111 l 583 1217 l 696 1217 l 513 1053 l 415 1053 z "},"Ċ":{"ha":890,"x_min":89,"x_max":813,"o":"m 464 -19 q 191 81 293 -19 q 89 376 89 182 l 89 596 q 191 891 89 790 q 464 992 293 992 q 723 897 633 992 q 813 638 813 801 l 813 631 l 724 631 l 724 640 q 660 835 724 760 q 464 911 597 911 q 253 829 329 911 q 178 599 178 747 l 178 374 q 253 143 178 225 q 464 61 329 61 q 660 137 597 61 q 724 332 724 213 l 724 353 l 813 353 l 813 335 q 723 76 813 171 q 464 -19 633 -19 m 464 1058 q 413 1079 433 1058 q 392 1131 392 1100 q 413 1183 392 1163 q 464 1203 433 1203 q 516 1183 496 1203 q 536 1131 536 1163 q 516 1079 536 1100 q 464 1058 496 1058 z "},"Ð":{"ha":919,"x_min":67,"x_max":839,"o":"m 67 0 l 67 81 l 206 81 l 206 892 l 67 892 l 67 972 l 436 972 q 733 876 626 972 q 839 575 839 779 l 839 396 q 733 96 839 192 q 436 0 626 0 l 67 0 m 294 81 l 436 81 q 669 154 589 81 q 750 392 750 228 l 750 579 q 669 817 750 744 q 436 890 589 890 l 294 890 l 294 81 m 67 444 l 67 514 l 467 514 l 467 444 l 67 444 z "},"Ď":{"ha":919,"x_min":67,"x_max":839,"o":"m 67 0 l 67 81 l 206 81 l 206 892 l 67 892 l 67 972 l 436 972 q 733 876 626 972 q 839 575 839 779 l 839 396 q 733 96 839 192 q 436 0 626 0 l 67 0 m 294 81 l 436 81 q 669 154 589 81 q 750 392 750 228 l 750 579 q 669 817 750 744 q 436 890 589 890 l 294 890 l 294 81 m 392 1053 l 208 1217 l 321 1217 l 432 1111 l 449 1111 l 560 1217 l 672 1217 l 489 1053 l 392 1053 z "},"Đ":{"ha":919,"x_min":67,"x_max":839,"o":"m 67 0 l 67 81 l 206 81 l 206 892 l 67 892 l 67 972 l 436 972 q 733 876 626 972 q 839 575 839 779 l 839 396 q 733 96 839 192 q 436 0 626 0 l 67 0 m 294 81 l 436 81 q 669 154 589 81 q 750 392 750 228 l 750 579 q 669 817 750 744 q 436 890 589 890 l 294 890 l 294 81 m 67 444 l 67 514 l 467 514 l 467 444 l 67 444 z "},"È":{"ha":788,"x_min":119,"x_max":713,"o":"m 119 0 l 119 972 l 707 972 l 707 892 l 208 892 l 208 528 l 668 528 l 668 447 l 208 447 l 208 81 l 713 81 l 713 0 l 119 0 m 401 1058 l 288 1222 l 396 1222 l 488 1058 l 401 1058 z "},"É":{"ha":788,"x_min":119,"x_max":713,"o":"m 119 0 l 119 972 l 707 972 l 707 892 l 208 892 l 208 528 l 668 528 l 668 447 l 208 447 l 208 81 l 713 81 l 713 0 l 119 0 m 357 1053 l 449 1217 l 557 1217 l 443 1053 l 357 1053 z "},"Ê":{"ha":788,"x_min":119,"x_max":713,"o":"m 119 0 l 119 972 l 707 972 l 707 892 l 208 892 l 208 528 l 668 528 l 668 447 l 208 447 l 208 81 l 713 81 l 713 0 l 119 0 m 190 1053 l 374 1217 l 471 1217 l 654 1053 l 542 1053 l 431 1158 l 414 1158 l 303 1053 l 190 1053 z "},"Ě":{"ha":788,"x_min":119,"x_max":713,"o":"m 119 0 l 119 972 l 707 972 l 707 892 l 208 892 l 208 528 l 668 528 l 668 447 l 208 447 l 208 81 l 713 81 l 713 0 l 119 0 m 374 1053 l 190 1217 l 303 1217 l 414 1111 l 431 1111 l 542 1217 l 654 1217 l 471 1053 l 374 1053 z "},"Ë":{"ha":788,"x_min":119,"x_max":713,"o":"m 119 0 l 119 972 l 707 972 l 707 892 l 208 892 l 208 528 l 668 528 l 668 447 l 208 447 l 208 81 l 713 81 l 713 0 l 119 0 m 553 1058 q 502 1078 522 1058 q 482 1129 482 1099 q 502 1181 482 1161 q 553 1200 522 1200 q 604 1181 585 1200 q 624 1129 624 1161 q 604 1078 624 1099 q 553 1058 585 1058 m 292 1058 q 241 1078 261 1058 q 221 1129 221 1099 q 241 1181 221 1161 q 292 1200 261 1200 q 343 1181 324 1200 q 363 1129 363 1161 q 343 1078 363 1099 q 292 1058 324 1058 z "},"Ē":{"ha":788,"x_min":119,"x_max":713,"o":"m 119 0 l 119 972 l 707 972 l 707 892 l 208 892 l 208 528 l 668 528 l 668 447 l 208 447 l 208 81 l 713 81 l 713 0 l 119 0 m 214 1075 l 214 1147 l 631 1147 l 631 1075 l 214 1075 z "},"Ĕ":{"ha":788,"x_min":119,"x_max":713,"o":"m 119 0 l 119 972 l 707 972 l 707 892 l 208 892 l 208 528 l 668 528 l 668 447 l 208 447 l 208 81 l 713 81 l 713 0 l 119 0 m 422 1044 q 276 1092 328 1044 q 224 1215 224 1140 l 224 1219 l 301 1219 l 301 1215 q 332 1140 301 1168 q 422 1111 363 1111 q 514 1140 483 1111 q 544 1215 544 1168 l 544 1219 l 622 1219 l 622 1215 q 569 1092 622 1140 q 422 1044 517 1044 z "},"Ė":{"ha":788,"x_min":119,"x_max":713,"o":"m 119 0 l 119 972 l 707 972 l 707 892 l 208 892 l 208 528 l 668 528 l 668 447 l 208 447 l 208 81 l 713 81 l 713 0 l 119 0 m 422 1058 q 371 1079 392 1058 q 350 1131 350 1100 q 371 1183 350 1163 q 422 1203 392 1203 q 474 1183 454 1203 q 494 1131 494 1163 q 474 1079 494 1100 q 422 1058 454 1058 z "},"Ę":{"ha":788,"x_min":119,"x_max":713,"o":"m 119 0 l 119 972 l 707 972 l 707 892 l 208 892 l 208 528 l 668 528 l 668 447 l 208 447 l 208 81 l 713 81 l 713 0 l 119 0 m 644 -225 q 575 -202 600 -225 q 550 -136 550 -179 q 553 -97 550 -117 q 563 -56 557 -78 l 579 15 l 649 15 l 629 -90 q 626 -110 628 -103 q 624 -126 624 -117 q 654 -153 624 -153 l 711 -153 l 711 -225 l 644 -225 z "},"Ĝ":{"ha":915,"x_min":89,"x_max":807,"o":"m 458 -19 q 264 26 347 -19 q 135 159 181 71 q 89 376 89 247 l 89 596 q 191 891 89 790 q 464 992 293 992 q 720 897 633 992 q 807 646 807 803 l 807 639 l 718 639 l 718 649 q 692 784 718 725 q 609 877 665 843 q 464 911 553 911 q 253 829 329 911 q 178 599 178 747 l 178 374 q 253 143 178 225 q 464 61 329 61 q 658 138 596 61 q 721 343 721 214 l 721 371 l 400 371 l 400 449 l 807 449 l 807 0 l 726 0 l 726 110 l 710 110 q 663 47 693 76 q 583 -1 632 17 q 458 -19 533 -19 m 233 1053 l 417 1217 l 514 1217 l 697 1053 l 585 1053 l 474 1158 l 457 1158 l 346 1053 l 233 1053 z "},"Ğ":{"ha":915,"x_min":89,"x_max":807,"o":"m 458 -19 q 264 26 347 -19 q 135 159 181 71 q 89 376 89 247 l 89 596 q 191 891 89 790 q 464 992 293 992 q 720 897 633 992 q 807 646 807 803 l 807 639 l 718 639 l 718 649 q 692 784 718 725 q 609 877 665 843 q 464 911 553 911 q 253 829 329 911 q 178 599 178 747 l 178 374 q 253 143 178 225 q 464 61 329 61 q 658 138 596 61 q 721 343 721 214 l 721 371 l 400 371 l 400 449 l 807 449 l 807 0 l 726 0 l 726 110 l 710 110 q 663 47 693 76 q 583 -1 632 17 q 458 -19 533 -19 m 465 1044 q 319 1092 371 1044 q 267 1215 267 1140 l 267 1219 l 344 1219 l 344 1215 q 375 1140 344 1168 q 465 1111 406 1111 q 557 1140 526 1111 q 588 1215 588 1168 l 588 1219 l 665 1219 l 665 1215 q 613 1092 665 1140 q 465 1044 560 1044 z "},"Ġ":{"ha":915,"x_min":89,"x_max":807,"o":"m 458 -19 q 264 26 347 -19 q 135 159 181 71 q 89 376 89 247 l 89 596 q 191 891 89 790 q 464 992 293 992 q 720 897 633 992 q 807 646 807 803 l 807 639 l 718 639 l 718 649 q 692 784 718 725 q 609 877 665 843 q 464 911 553 911 q 253 829 329 911 q 178 599 178 747 l 178 374 q 253 143 178 225 q 464 61 329 61 q 658 138 596 61 q 721 343 721 214 l 721 371 l 400 371 l 400 449 l 807 449 l 807 0 l 726 0 l 726 110 l 710 110 q 663 47 693 76 q 583 -1 632 17 q 458 -19 533 -19 m 465 1058 q 414 1079 435 1058 q 393 1131 393 1100 q 414 1183 393 1163 q 465 1203 435 1203 q 517 1183 497 1203 q 538 1131 538 1163 q 517 1079 538 1100 q 465 1058 497 1058 z "},"Ĥ":{"ha":911,"x_min":119,"x_max":792,"o":"m 119 0 l 119 972 l 208 972 l 208 528 l 703 528 l 703 972 l 792 972 l 792 0 l 703 0 l 703 447 l 208 447 l 208 0 l 119 0 m 224 1053 l 407 1217 l 504 1217 l 688 1053 l 575 1053 l 464 1158 l 447 1158 l 336 1053 l 224 1053 z "},"Ħ":{"ha":911,"x_min":31,"x_max":882,"o":"m 119 0 l 119 972 l 208 972 l 208 528 l 703 528 l 703 972 l 792 972 l 792 0 l 703 0 l 703 447 l 208 447 l 208 0 l 119 0 m 31 708 l 31 776 l 882 776 l 882 708 l 31 708 z "},"Ì":{"ha":328,"x_min":29,"x_max":229,"o":"m 119 0 l 119 972 l 208 972 l 208 0 l 119 0 m 143 1058 l 29 1222 l 138 1222 l 229 1058 l 143 1058 z "},"Í":{"ha":328,"x_min":99,"x_max":299,"o":"m 119 0 l 119 972 l 208 972 l 208 0 l 119 0 m 99 1053 l 190 1217 l 299 1217 l 185 1053 l 99 1053 z "},"Î":{"ha":328,"x_min":-68,"x_max":396,"o":"m 119 0 l 119 972 l 208 972 l 208 0 l 119 0 m -68 1053 l 115 1217 l 213 1217 l 396 1053 l 283 1053 l 172 1158 l 156 1158 l 44 1053 l -68 1053 z "},"Ĩ":{"ha":328,"x_min":-58,"x_max":386,"o":"m 119 0 l 119 972 l 208 972 l 208 0 l 119 0 m -3 1060 l -58 1093 l -14 1167 q 22 1208 0 1190 q 79 1225 44 1225 q 136 1209 111 1225 q 189 1163 161 1193 q 221 1131 208 1140 q 247 1122 233 1122 q 272 1130 263 1122 q 289 1151 281 1138 l 331 1218 l 386 1185 l 342 1111 q 306 1071 328 1089 q 249 1053 285 1053 q 192 1069 217 1053 q 139 1115 167 1085 q 108 1147 119 1138 q 81 1156 96 1156 q 56 1147 67 1156 q 38 1125 46 1139 l -3 1060 z "},"Ï":{"ha":328,"x_min":-37,"x_max":365,"o":"m 119 0 l 119 972 l 208 972 l 208 0 l 119 0 m 294 1058 q 244 1078 264 1058 q 224 1129 224 1099 q 244 1181 224 1161 q 294 1200 264 1200 q 346 1181 326 1200 q 365 1129 365 1161 q 346 1078 365 1099 q 294 1058 326 1058 m 33 1058 q -17 1078 3 1058 q -37 1129 -37 1099 q -17 1181 -37 1161 q 33 1200 3 1200 q 85 1181 65 1200 q 104 1129 104 1161 q 85 1078 104 1099 q 33 1058 65 1058 z "},"Ī":{"ha":328,"x_min":-44,"x_max":372,"o":"m 119 0 l 119 972 l 208 972 l 208 0 l 119 0 m -44 1075 l -44 1147 l 372 1147 l 372 1075 l -44 1075 z "},"İ":{"ha":328,"x_min":92,"x_max":236,"o":"m 119 0 l 119 972 l 208 972 l 208 0 l 119 0 m 164 1058 q 113 1079 133 1058 q 92 1131 92 1100 q 113 1183 92 1163 q 164 1203 133 1203 q 216 1183 196 1203 q 236 1131 236 1163 q 216 1079 236 1100 q 164 1058 196 1058 z "},"Į":{"ha":328,"x_min":104,"x_max":265,"o":"m 119 0 l 119 972 l 208 972 l 208 0 l 119 0 m 199 -225 q 129 -202 154 -225 q 104 -136 104 -179 q 108 -97 104 -117 q 117 -56 111 -78 l 133 15 l 203 15 l 183 -90 q 180 -110 182 -103 q 178 -126 178 -117 q 208 -153 178 -153 l 265 -153 l 265 -225 l 199 -225 z "},"Ĭ":{"ha":328,"x_min":-35,"x_max":364,"o":"m 119 0 l 119 972 l 208 972 l 208 0 l 119 0 m 164 1044 q 17 1092 69 1044 q -35 1215 -35 1140 l -35 1219 l 43 1219 l 43 1215 q 74 1140 43 1168 q 164 1111 104 1111 q 256 1140 225 1111 q 286 1215 286 1168 l 286 1219 l 364 1219 l 364 1215 q 311 1092 364 1140 q 164 1044 258 1044 z "},"Ĵ":{"ha":817,"x_min":61,"x_max":803,"o":"m 363 -19 q 142 60 224 -19 q 61 292 61 140 l 61 360 l 150 360 l 150 292 q 203 126 150 190 q 364 61 256 61 q 518 126 475 61 q 561 292 561 190 l 561 892 l 389 892 l 389 972 l 753 972 l 753 892 l 650 892 l 650 292 q 578 60 650 140 q 363 -19 507 -19 m 339 1053 l 522 1217 l 619 1217 l 803 1053 l 690 1053 l 579 1158 l 563 1158 l 451 1053 l 339 1053 z "},"Ĺ":{"ha":760,"x_min":97,"x_max":719,"o":"m 119 0 l 119 972 l 208 972 l 208 81 l 719 81 l 719 0 l 119 0 m 97 1053 l 189 1217 l 297 1217 l 183 1053 l 97 1053 z "},"Ľ":{"ha":760,"x_min":119,"x_max":719,"o":"m 119 0 l 119 972 l 208 972 l 208 81 l 719 81 l 719 0 l 119 0 m 319 722 l 332 972 l 422 972 l 386 722 l 319 722 z "},"Ḹ":{"ha":760,"x_min":-46,"x_max":719,"o":"m 119 0 l 119 972 l 208 972 l 208 81 l 719 81 l 719 0 l 119 0 m 419 -261 q 368 -240 389 -261 q 347 -189 347 -219 q 368 -137 347 -157 q 419 -117 389 -117 q 472 -137 451 -117 q 492 -189 492 -157 q 472 -240 492 -219 q 419 -261 451 -261 m -46 1075 l -46 1147 l 371 1147 l 371 1075 l -46 1075 z "},"Ł":{"ha":826,"x_min":28,"x_max":786,"o":"m 186 0 l 186 972 l 275 972 l 275 81 l 786 81 l 786 0 l 186 0 m 61 344 l 28 406 l 401 607 l 433 546 l 61 344 z "},"Ŀ":{"ha":760,"x_min":119,"x_max":719,"o":"m 119 0 l 119 972 l 208 972 l 208 81 l 719 81 l 719 0 l 119 0 m 543 419 q 492 440 513 419 q 471 492 471 461 q 492 544 471 524 q 543 564 513 564 q 595 544 575 564 q 615 492 615 524 q 595 440 615 461 q 543 419 575 419 z "},"Ń":{"ha":918,"x_min":119,"x_max":799,"o":"m 119 0 l 119 972 l 296 972 l 693 53 l 710 53 l 710 972 l 799 972 l 799 0 l 622 0 l 225 921 l 208 921 l 208 0 l 119 0 m 400 1053 l 492 1217 l 600 1217 l 486 1053 l 400 1053 z "},"Ň":{"ha":918,"x_min":119,"x_max":799,"o":"m 119 0 l 119 972 l 296 972 l 693 53 l 710 53 l 710 972 l 799 972 l 799 0 l 622 0 l 225 921 l 208 921 l 208 0 l 119 0 m 417 1053 l 233 1217 l 346 1217 l 457 1111 l 474 1111 l 585 1217 l 697 1217 l 514 1053 l 417 1053 z "},"Ñ":{"ha":918,"x_min":119,"x_max":799,"o":"m 119 0 l 119 972 l 296 972 l 693 53 l 710 53 l 710 972 l 799 972 l 799 0 l 622 0 l 225 921 l 208 921 l 208 0 l 119 0 m 299 1060 l 243 1093 l 288 1167 q 324 1208 301 1190 q 381 1225 346 1225 q 438 1209 413 1225 q 490 1163 463 1193 q 522 1131 510 1140 q 549 1122 535 1122 q 573 1130 564 1122 q 590 1151 582 1138 l 632 1218 l 688 1185 l 643 1111 q 608 1071 629 1089 q 550 1053 586 1053 q 493 1069 518 1053 q 440 1115 468 1085 q 409 1147 421 1138 q 382 1156 397 1156 q 358 1147 368 1156 q 339 1125 347 1139 l 299 1060 z "},"Ò":{"ha":925,"x_min":89,"x_max":836,"o":"m 463 -19 q 190 81 292 -19 q 89 376 89 182 l 89 596 q 190 891 89 790 q 463 992 292 992 q 735 891 633 992 q 836 596 836 790 l 836 376 q 735 81 836 182 q 463 -19 633 -19 m 463 61 q 673 143 599 61 q 747 374 747 225 l 747 599 q 673 829 747 747 q 463 911 599 911 q 253 829 328 911 q 178 599 178 747 l 178 374 q 253 143 178 225 q 463 61 328 61 m 442 1058 l 328 1222 l 436 1222 l 528 1058 l 442 1058 z "},"Ó":{"ha":925,"x_min":89,"x_max":836,"o":"m 463 -19 q 190 81 292 -19 q 89 376 89 182 l 89 596 q 190 891 89 790 q 463 992 292 992 q 735 891 633 992 q 836 596 836 790 l 836 376 q 735 81 836 182 q 463 -19 633 -19 m 463 61 q 673 143 599 61 q 747 374 747 225 l 747 599 q 673 829 747 747 q 463 911 599 911 q 253 829 328 911 q 178 599 178 747 l 178 374 q 253 143 178 225 q 463 61 328 61 m 397 1053 l 489 1217 l 597 1217 l 483 1053 l 397 1053 z "},"Ô":{"ha":925,"x_min":89,"x_max":836,"o":"m 463 -19 q 190 81 292 -19 q 89 376 89 182 l 89 596 q 190 891 89 790 q 463 992 292 992 q 735 891 633 992 q 836 596 836 790 l 836 376 q 735 81 836 182 q 463 -19 633 -19 m 463 61 q 673 143 599 61 q 747 374 747 225 l 747 599 q 673 829 747 747 q 463 911 599 911 q 253 829 328 911 q 178 599 178 747 l 178 374 q 253 143 178 225 q 463 61 328 61 m 231 1053 l 414 1217 l 511 1217 l 694 1053 l 582 1053 l 471 1158 l 454 1158 l 343 1053 l 231 1053 z "},"Õ":{"ha":925,"x_min":89,"x_max":836,"o":"m 463 -19 q 190 81 292 -19 q 89 376 89 182 l 89 596 q 190 891 89 790 q 463 992 292 992 q 735 891 633 992 q 836 596 836 790 l 836 376 q 735 81 836 182 q 463 -19 633 -19 m 463 61 q 673 143 599 61 q 747 374 747 225 l 747 599 q 673 829 747 747 q 463 911 599 911 q 253 829 328 911 q 178 599 178 747 l 178 374 q 253 143 178 225 q 463 61 328 61 m 296 1060 l 240 1093 l 285 1167 q 321 1208 299 1190 q 378 1225 343 1225 q 435 1209 410 1225 q 488 1163 460 1193 q 519 1131 507 1140 q 546 1122 532 1122 q 570 1130 561 1122 q 588 1151 579 1138 l 629 1218 l 685 1185 l 640 1111 q 605 1071 626 1089 q 547 1053 583 1053 q 490 1069 515 1053 q 438 1115 465 1085 q 406 1147 418 1138 q 379 1156 394 1156 q 355 1147 365 1156 q 336 1125 344 1139 l 296 1060 z "},"Ö":{"ha":925,"x_min":89,"x_max":836,"o":"m 463 -19 q 190 81 292 -19 q 89 376 89 182 l 89 596 q 190 891 89 790 q 463 992 292 992 q 735 891 633 992 q 836 596 836 790 l 836 376 q 735 81 836 182 q 463 -19 633 -19 m 463 61 q 673 143 599 61 q 747 374 747 225 l 747 599 q 673 829 747 747 q 463 911 599 911 q 253 829 328 911 q 178 599 178 747 l 178 374 q 253 143 178 225 q 463 61 328 61 m 593 1058 q 542 1078 563 1058 q 522 1129 522 1099 q 542 1181 522 1161 q 593 1200 563 1200 q 644 1181 625 1200 q 664 1129 664 1161 q 644 1078 664 1099 q 593 1058 625 1058 m 332 1058 q 281 1078 301 1058 q 261 1129 261 1099 q 281 1181 261 1161 q 332 1200 301 1200 q 383 1181 364 1200 q 403 1129 403 1161 q 383 1078 403 1099 q 332 1058 364 1058 z "},"Ō":{"ha":925,"x_min":89,"x_max":836,"o":"m 463 -19 q 190 81 292 -19 q 89 376 89 182 l 89 596 q 190 891 89 790 q 463 992 292 992 q 735 891 633 992 q 836 596 836 790 l 836 376 q 735 81 836 182 q 463 -19 633 -19 m 463 61 q 673 143 599 61 q 747 374 747 225 l 747 599 q 673 829 747 747 q 463 911 599 911 q 253 829 328 911 q 178 599 178 747 l 178 374 q 253 143 178 225 q 463 61 328 61 m 254 1075 l 254 1147 l 671 1147 l 671 1075 l 254 1075 z "},"Ő":{"ha":925,"x_min":89,"x_max":836,"o":"m 463 -19 q 190 81 292 -19 q 89 376 89 182 l 89 596 q 190 891 89 790 q 463 992 292 992 q 735 891 633 992 q 836 596 836 790 l 836 376 q 735 81 836 182 q 463 -19 633 -19 m 463 61 q 673 143 599 61 q 747 374 747 225 l 747 599 q 673 829 747 747 q 463 911 599 911 q 253 829 328 911 q 178 599 178 747 l 178 374 q 253 143 178 225 q 463 61 328 61 m 483 1058 l 582 1222 l 693 1222 l 565 1058 l 483 1058 m 299 1058 l 379 1222 l 478 1222 l 374 1058 l 299 1058 z "},"Ŏ":{"ha":925,"x_min":89,"x_max":836,"o":"m 463 -19 q 190 81 292 -19 q 89 376 89 182 l 89 596 q 190 891 89 790 q 463 992 292 992 q 735 891 633 992 q 836 596 836 790 l 836 376 q 735 81 836 182 q 463 -19 633 -19 m 463 61 q 673 143 599 61 q 747 374 747 225 l 747 599 q 673 829 747 747 q 463 911 599 911 q 253 829 328 911 q 178 599 178 747 l 178 374 q 253 143 178 225 q 463 61 328 61 m 463 1044 q 316 1092 368 1044 q 264 1215 264 1140 l 264 1219 l 342 1219 l 342 1215 q 372 1140 342 1168 q 463 1111 403 1111 q 554 1140 524 1111 q 585 1215 585 1168 l 585 1219 l 663 1219 l 663 1215 q 610 1092 663 1140 q 463 1044 557 1044 z "},"Ø":{"ha":925,"x_min":89,"x_max":836,"o":"m 463 -19 q 190 81 292 -19 q 89 376 89 182 l 89 596 q 190 891 89 790 q 463 992 292 992 q 735 891 633 992 q 836 596 836 790 l 836 376 q 735 81 836 182 q 463 -19 633 -19 m 463 61 q 673 143 599 61 q 747 374 747 225 l 747 599 q 673 829 747 747 q 463 911 599 911 q 253 829 328 911 q 178 599 178 747 l 178 374 q 253 143 178 225 q 463 61 328 61 m 269 -117 l 204 -92 l 657 1072 l 721 1047 l 269 -117 z "},"Œ":{"ha":1165,"x_min":89,"x_max":1090,"o":"m 553 0 l 553 972 l 1085 972 l 1085 892 l 642 892 l 642 528 l 1046 528 l 1046 447 l 642 447 l 642 81 l 1090 81 l 1090 0 l 553 0 m 553 0 q 211 111 333 0 q 89 438 89 222 l 89 535 q 211 861 89 750 q 553 972 333 972 l 553 894 q 271 801 364 894 q 178 544 178 708 l 178 428 q 271 171 178 264 q 553 78 364 78 l 553 0 z "},"Ŕ":{"ha":876,"x_min":119,"x_max":807,"o":"m 119 0 l 119 972 l 500 972 q 659 942 590 972 q 767 853 728 911 q 807 714 807 796 l 807 700 q 760 545 807 601 q 649 471 713 489 l 649 454 q 731 424 697 453 q 764 331 764 394 l 764 0 l 675 0 l 675 321 q 651 389 675 365 q 578 413 626 413 l 208 413 l 208 0 l 119 0 m 208 493 l 492 493 q 659 544 600 493 q 718 689 718 594 l 718 696 q 660 841 718 790 q 492 892 603 892 l 208 892 l 208 493 m 365 1053 l 457 1217 l 565 1217 l 451 1053 l 365 1053 z "},"Ř":{"ha":876,"x_min":119,"x_max":807,"o":"m 119 0 l 119 972 l 500 972 q 659 942 590 972 q 767 853 728 911 q 807 714 807 796 l 807 700 q 760 545 807 601 q 649 471 713 489 l 649 454 q 731 424 697 453 q 764 331 764 394 l 764 0 l 675 0 l 675 321 q 651 389 675 365 q 578 413 626 413 l 208 413 l 208 0 l 119 0 m 208 493 l 492 493 q 659 544 600 493 q 718 689 718 594 l 718 696 q 660 841 718 790 q 492 892 603 892 l 208 892 l 208 493 m 382 1053 l 199 1217 l 311 1217 l 422 1111 l 439 1111 l 550 1217 l 663 1217 l 479 1053 l 382 1053 z "},"Ṝ":{"ha":876,"x_min":119,"x_max":807,"o":"m 119 0 l 119 972 l 500 972 q 659 942 590 972 q 767 853 728 911 q 807 714 807 796 l 807 700 q 760 545 807 601 q 649 471 713 489 l 649 454 q 731 424 697 453 q 764 331 764 394 l 764 0 l 675 0 l 675 321 q 651 389 675 365 q 578 413 626 413 l 208 413 l 208 0 l 119 0 m 208 493 l 492 493 q 659 544 600 493 q 718 689 718 594 l 718 696 q 660 841 718 790 q 492 892 603 892 l 208 892 l 208 493 m 443 -261 q 392 -240 413 -261 q 371 -189 371 -219 q 392 -137 371 -157 q 443 -117 413 -117 q 495 -137 475 -117 q 515 -189 515 -157 q 495 -240 515 -219 q 443 -261 475 -261 m 222 1075 l 222 1147 l 639 1147 l 639 1075 l 222 1075 z "},"Ś":{"ha":856,"x_min":75,"x_max":778,"o":"m 438 -19 q 251 17 333 -19 q 122 130 169 54 q 75 322 75 206 l 75 349 l 164 349 l 164 322 q 241 123 164 188 q 438 58 318 58 q 624 115 558 58 q 689 258 689 171 q 660 352 689 317 q 581 409 632 388 q 464 447 531 431 l 375 469 q 233 522 296 490 q 135 603 171 553 q 99 733 99 654 q 140 871 99 813 q 253 960 181 929 q 421 992 325 992 q 594 958 517 992 q 716 860 671 925 q 761 699 761 796 l 761 633 l 672 633 l 672 699 q 639 822 672 775 q 549 892 606 869 q 421 914 492 914 q 253 867 319 914 q 188 733 188 821 q 215 640 188 675 q 291 585 242 606 q 407 547 340 564 l 496 525 q 636 477 572 507 q 739 395 700 447 q 778 258 778 343 q 735 111 778 174 q 617 15 693 49 q 438 -19 540 -19 m 361 1053 l 453 1217 l 561 1217 l 447 1053 l 361 1053 z "},"Ŝ":{"ha":856,"x_min":75,"x_max":778,"o":"m 438 -19 q 251 17 333 -19 q 122 130 169 54 q 75 322 75 206 l 75 349 l 164 349 l 164 322 q 241 123 164 188 q 438 58 318 58 q 624 115 558 58 q 689 258 689 171 q 660 352 689 317 q 581 409 632 388 q 464 447 531 431 l 375 469 q 233 522 296 490 q 135 603 171 553 q 99 733 99 654 q 140 871 99 813 q 253 960 181 929 q 421 992 325 992 q 594 958 517 992 q 716 860 671 925 q 761 699 761 796 l 761 633 l 672 633 l 672 699 q 639 822 672 775 q 549 892 606 869 q 421 914 492 914 q 253 867 319 914 q 188 733 188 821 q 215 640 188 675 q 291 585 242 606 q 407 547 340 564 l 496 525 q 636 477 572 507 q 739 395 700 447 q 778 258 778 343 q 735 111 778 174 q 617 15 693 49 q 438 -19 540 -19 m 194 1053 l 378 1217 l 475 1217 l 658 1053 l 546 1053 l 435 1158 l 418 1158 l 307 1053 l 194 1053 z "},"Š":{"ha":856,"x_min":75,"x_max":778,"o":"m 438 -19 q 251 17 333 -19 q 122 130 169 54 q 75 322 75 206 l 75 349 l 164 349 l 164 322 q 241 123 164 188 q 438 58 318 58 q 624 115 558 58 q 689 258 689 171 q 660 352 689 317 q 581 409 632 388 q 464 447 531 431 l 375 469 q 233 522 296 490 q 135 603 171 553 q 99 733 99 654 q 140 871 99 813 q 253 960 181 929 q 421 992 325 992 q 594 958 517 992 q 716 860 671 925 q 761 699 761 796 l 761 633 l 672 633 l 672 699 q 639 822 672 775 q 549 892 606 869 q 421 914 492 914 q 253 867 319 914 q 188 733 188 821 q 215 640 188 675 q 291 585 242 606 q 407 547 340 564 l 496 525 q 636 477 572 507 q 739 395 700 447 q 778 258 778 343 q 735 111 778 174 q 617 15 693 49 q 438 -19 540 -19 m 378 1053 l 194 1217 l 307 1217 l 418 1111 l 435 1111 l 546 1217 l 658 1217 l 475 1053 l 378 1053 z "},"Ş":{"ha":856,"x_min":75,"x_max":778,"o":"m 438 -19 q 251 17 333 -19 q 122 130 169 54 q 75 322 75 206 l 75 349 l 164 349 l 164 322 q 241 123 164 188 q 438 58 318 58 q 624 115 558 58 q 689 258 689 171 q 660 352 689 317 q 581 409 632 388 q 464 447 531 431 l 375 469 q 233 522 296 490 q 135 603 171 553 q 99 733 99 654 q 140 871 99 813 q 253 960 181 929 q 421 992 325 992 q 594 958 517 992 q 716 860 671 925 q 761 699 761 796 l 761 633 l 672 633 l 672 699 q 639 822 672 775 q 549 892 606 869 q 421 914 492 914 q 253 867 319 914 q 188 733 188 821 q 215 640 188 675 q 291 585 242 606 q 407 547 340 564 l 496 525 q 636 477 572 507 q 739 395 700 447 q 778 258 778 343 q 735 111 778 174 q 617 15 693 49 q 438 -19 540 -19 m 450 -281 q 373 -267 408 -281 q 310 -233 338 -254 l 346 -178 q 394 -206 368 -194 q 450 -217 419 -217 q 499 -205 479 -217 q 519 -167 519 -193 q 501 -131 519 -143 q 450 -118 482 -118 l 400 -118 l 415 31 l 481 31 l 471 -67 q 557 -94 525 -67 q 589 -172 589 -121 q 570 -233 589 -208 q 520 -269 551 -257 q 450 -281 489 -281 z "},"Ť":{"ha":817,"x_min":39,"x_max":778,"o":"m 364 0 l 364 892 l 39 892 l 39 972 l 778 972 l 778 892 l 453 892 l 453 0 l 364 0 m 360 1053 l 176 1217 l 289 1217 l 400 1111 l 417 1111 l 528 1217 l 640 1217 l 457 1053 l 360 1053 z "},"Ŧ":{"ha":817,"x_min":39,"x_max":778,"o":"m 364 0 l 364 892 l 39 892 l 39 972 l 778 972 l 778 892 l 453 892 l 453 0 l 364 0 m 208 444 l 208 514 l 608 514 l 608 444 l 208 444 z "},"Ù":{"ha":922,"x_min":111,"x_max":811,"o":"m 461 -19 q 278 17 357 -19 q 156 129 200 54 q 111 318 111 204 l 111 972 l 200 972 l 200 318 q 269 124 200 188 q 461 61 338 61 q 653 124 585 61 q 722 318 722 188 l 722 972 l 811 972 l 811 318 q 767 129 811 204 q 644 17 724 54 q 461 -19 565 -19 m 440 1058 l 326 1222 l 435 1222 l 526 1058 l 440 1058 z "},"Ú":{"ha":922,"x_min":111,"x_max":811,"o":"m 461 -19 q 278 17 357 -19 q 156 129 200 54 q 111 318 111 204 l 111 972 l 200 972 l 200 318 q 269 124 200 188 q 461 61 338 61 q 653 124 585 61 q 722 318 722 188 l 722 972 l 811 972 l 811 318 q 767 129 811 204 q 644 17 724 54 q 461 -19 565 -19 m 396 1053 l 488 1217 l 596 1217 l 482 1053 l 396 1053 z "},"Û":{"ha":922,"x_min":111,"x_max":811,"o":"m 461 -19 q 278 17 357 -19 q 156 129 200 54 q 111 318 111 204 l 111 972 l 200 972 l 200 318 q 269 124 200 188 q 461 61 338 61 q 653 124 585 61 q 722 318 722 188 l 722 972 l 811 972 l 811 318 q 767 129 811 204 q 644 17 724 54 q 461 -19 565 -19 m 229 1053 l 413 1217 l 510 1217 l 693 1053 l 581 1053 l 469 1158 l 453 1158 l 342 1053 l 229 1053 z "},"Ũ":{"ha":922,"x_min":111,"x_max":811,"o":"m 461 -19 q 278 17 357 -19 q 156 129 200 54 q 111 318 111 204 l 111 972 l 200 972 l 200 318 q 269 124 200 188 q 461 61 338 61 q 653 124 585 61 q 722 318 722 188 l 722 972 l 811 972 l 811 318 q 767 129 811 204 q 644 17 724 54 q 461 -19 565 -19 m 294 1060 l 239 1093 l 283 1167 q 319 1208 297 1190 q 376 1225 342 1225 q 433 1209 408 1225 q 486 1163 458 1193 q 518 1131 506 1140 q 544 1122 531 1122 q 569 1130 560 1122 q 586 1151 578 1138 l 628 1218 l 683 1185 l 639 1111 q 603 1071 625 1089 q 546 1053 582 1053 q 489 1069 514 1053 q 436 1115 464 1085 q 405 1147 417 1138 q 378 1156 393 1156 q 353 1147 364 1156 q 335 1125 343 1139 l 294 1060 z "},"Ü":{"ha":922,"x_min":111,"x_max":811,"o":"m 461 -19 q 278 17 357 -19 q 156 129 200 54 q 111 318 111 204 l 111 972 l 200 972 l 200 318 q 269 124 200 188 q 461 61 338 61 q 653 124 585 61 q 722 318 722 188 l 722 972 l 811 972 l 811 318 q 767 129 811 204 q 644 17 724 54 q 461 -19 565 -19 m 592 1058 q 541 1078 561 1058 q 521 1129 521 1099 q 541 1181 521 1161 q 592 1200 561 1200 q 643 1181 624 1200 q 663 1129 663 1161 q 643 1078 663 1099 q 592 1058 624 1058 m 331 1058 q 280 1078 300 1058 q 260 1129 260 1099 q 280 1181 260 1161 q 331 1200 300 1200 q 382 1181 363 1200 q 401 1129 401 1161 q 382 1078 401 1099 q 331 1058 363 1058 z "},"Ū":{"ha":922,"x_min":111,"x_max":811,"o":"m 461 -19 q 278 17 357 -19 q 156 129 200 54 q 111 318 111 204 l 111 972 l 200 972 l 200 318 q 269 124 200 188 q 461 61 338 61 q 653 124 585 61 q 722 318 722 188 l 722 972 l 811 972 l 811 318 q 767 129 811 204 q 644 17 724 54 q 461 -19 565 -19 m 253 1075 l 253 1147 l 669 1147 l 669 1075 l 253 1075 z "},"Ŭ":{"ha":922,"x_min":111,"x_max":811,"o":"m 461 -19 q 278 17 357 -19 q 156 129 200 54 q 111 318 111 204 l 111 972 l 200 972 l 200 318 q 269 124 200 188 q 461 61 338 61 q 653 124 585 61 q 722 318 722 188 l 722 972 l 811 972 l 811 318 q 767 129 811 204 q 644 17 724 54 q 461 -19 565 -19 m 461 1044 q 315 1092 367 1044 q 263 1215 263 1140 l 263 1219 l 340 1219 l 340 1215 q 371 1140 340 1168 q 461 1111 401 1111 q 553 1140 522 1111 q 583 1215 583 1168 l 583 1219 l 661 1219 l 661 1215 q 608 1092 661 1140 q 461 1044 556 1044 z "},"Ů":{"ha":922,"x_min":111,"x_max":811,"o":"m 461 -19 q 278 17 357 -19 q 156 129 200 54 q 111 318 111 204 l 111 972 l 200 972 l 200 318 q 269 124 200 188 q 461 61 338 61 q 653 124 585 61 q 722 318 722 188 l 722 972 l 811 972 l 811 318 q 767 129 811 204 q 644 17 724 54 q 461 -19 565 -19 m 461 1039 q 367 1075 406 1039 q 328 1169 328 1111 q 367 1264 328 1228 q 461 1300 406 1300 q 557 1264 518 1300 q 596 1169 596 1228 q 557 1075 596 1111 q 461 1039 518 1039 m 461 1103 q 511 1122 493 1103 q 529 1169 529 1140 q 511 1217 529 1199 q 461 1236 493 1236 q 413 1217 431 1236 q 394 1169 394 1199 q 413 1122 394 1140 q 461 1103 431 1103 z "},"Ű":{"ha":922,"x_min":111,"x_max":811,"o":"m 461 -19 q 278 17 357 -19 q 156 129 200 54 q 111 318 111 204 l 111 972 l 200 972 l 200 318 q 269 124 200 188 q 461 61 338 61 q 653 124 585 61 q 722 318 722 188 l 722 972 l 811 972 l 811 318 q 767 129 811 204 q 644 17 724 54 q 461 -19 565 -19 m 482 1058 l 581 1222 l 692 1222 l 564 1058 l 482 1058 m 297 1058 l 378 1222 l 476 1222 l 372 1058 l 297 1058 z "},"Ų":{"ha":922,"x_min":111,"x_max":811,"o":"m 461 -19 q 278 17 357 -19 q 156 129 200 54 q 111 318 111 204 l 111 972 l 200 972 l 200 318 q 269 124 200 188 q 461 61 338 61 q 653 124 585 61 q 722 318 722 188 l 722 972 l 811 972 l 811 318 q 767 129 811 204 q 644 17 724 54 q 461 -19 565 -19 m 589 -225 q 519 -202 544 -225 q 494 -136 494 -179 q 498 -97 494 -117 q 507 -56 501 -78 l 524 15 l 593 15 l 574 -90 q 570 -110 572 -103 q 568 -126 568 -117 q 599 -153 568 -153 l 656 -153 l 656 -225 l 589 -225 z "},"Ŵ":{"ha":1203,"x_min":56,"x_max":1147,"o":"m 226 0 l 56 972 l 146 972 l 301 53 l 318 53 l 519 972 l 683 972 l 885 53 l 901 53 l 1057 972 l 1147 972 l 976 0 l 811 0 l 610 919 l 593 919 l 392 0 l 226 0 m 369 1053 l 553 1217 l 650 1217 l 833 1053 l 721 1053 l 610 1158 l 593 1158 l 482 1053 l 369 1053 z "},"Ý":{"ha":839,"x_min":22,"x_max":817,"o":"m 375 0 l 375 385 l 22 972 l 128 972 l 411 486 l 428 486 l 711 972 l 817 972 l 464 385 l 464 0 l 375 0 m 354 1053 l 446 1217 l 554 1217 l 440 1053 l 354 1053 z "},"Ŷ":{"ha":839,"x_min":22,"x_max":817,"o":"m 375 0 l 375 385 l 22 972 l 128 972 l 411 486 l 428 486 l 711 972 l 817 972 l 464 385 l 464 0 l 375 0 m 188 1053 l 371 1217 l 468 1217 l 651 1053 l 539 1053 l 428 1158 l 411 1158 l 300 1053 l 188 1053 z "},"Ÿ":{"ha":839,"x_min":22,"x_max":817,"o":"m 375 0 l 375 385 l 22 972 l 128 972 l 411 486 l 428 486 l 711 972 l 817 972 l 464 385 l 464 0 l 375 0 m 550 1058 q 499 1078 519 1058 q 479 1129 479 1099 q 499 1181 479 1161 q 550 1200 519 1200 q 601 1181 582 1200 q 621 1129 621 1161 q 601 1078 621 1099 q 550 1058 582 1058 m 289 1058 q 238 1078 258 1058 q 218 1129 218 1099 q 238 1181 218 1161 q 289 1200 258 1200 q 340 1181 321 1200 q 360 1129 360 1161 q 340 1078 360 1099 q 289 1058 321 1058 z "},"Ź":{"ha":803,"x_min":72,"x_max":736,"o":"m 72 0 l 72 122 l 639 878 l 639 892 l 89 892 l 89 972 l 722 972 l 722 850 l 156 94 l 156 81 l 736 81 l 736 0 l 72 0 m 328 1053 l 419 1217 l 528 1217 l 414 1053 l 328 1053 z "},"Ž":{"ha":803,"x_min":72,"x_max":736,"o":"m 72 0 l 72 122 l 639 878 l 639 892 l 89 892 l 89 972 l 722 972 l 722 850 l 156 94 l 156 81 l 736 81 l 736 0 l 72 0 m 344 1053 l 161 1217 l 274 1217 l 385 1111 l 401 1111 l 513 1217 l 625 1217 l 442 1053 l 344 1053 z "},"Ż":{"ha":803,"x_min":72,"x_max":736,"o":"m 72 0 l 72 122 l 639 878 l 639 892 l 89 892 l 89 972 l 722 972 l 722 850 l 156 94 l 156 81 l 736 81 l 736 0 l 72 0 m 393 1058 q 342 1079 363 1058 q 321 1131 321 1100 q 342 1183 321 1163 q 393 1203 363 1203 q 445 1183 425 1203 q 465 1131 465 1163 q 445 1079 465 1100 q 393 1058 425 1058 z "},"Þ":{"ha":833,"x_min":119,"x_max":783,"o":"m 208 219 l 208 300 l 469 300 q 634 351 574 300 q 694 496 694 403 l 694 508 q 635 653 694 603 q 469 704 576 704 l 208 704 l 208 785 l 479 785 q 634 752 565 785 q 743 658 703 719 q 783 510 783 597 l 783 494 q 742 345 783 407 q 633 251 701 283 q 479 219 564 219 l 208 219 m 119 0 l 119 972 l 208 972 l 208 0 l 119 0 z "},"Ŋ":{"ha":918,"x_min":119,"x_max":799,"o":"m 119 0 l 119 972 l 296 972 l 693 53 l 710 53 l 710 972 l 799 972 l 799 0 l 622 0 l 225 921 l 208 921 l 208 0 l 119 0 m 522 -278 l 522 -203 l 672 -203 q 713 -161 713 -203 l 713 0 l 799 0 l 799 -175 q 770 -253 799 -228 q 693 -278 742 -278 l 522 -278 z "},"Ĳ":{"ha":989,"x_min":64,"x_max":925,"o":"m 501 -21 q 271 61 356 -21 q 186 299 186 143 l 186 317 l 275 317 l 275 299 q 331 126 275 193 q 503 60 388 60 q 667 126 621 60 q 714 299 714 193 l 714 890 l 592 890 l 592 971 l 925 971 l 925 890 l 803 890 l 803 299 q 728 61 803 143 q 501 -21 653 -21 m 186 497 l 186 892 l 64 892 l 64 972 l 397 972 l 397 892 l 275 892 l 275 497 l 186 497 z "},"":{"ha":989,"x_min":64,"x_max":925,"o":"m 501 -21 q 271 61 356 -21 q 186 299 186 143 l 186 317 l 275 317 l 275 299 q 331 126 275 193 q 503 60 388 60 q 667 126 621 60 q 714 299 714 193 l 714 890 l 592 890 l 592 971 l 925 971 l 925 890 l 803 890 l 803 299 q 728 61 803 143 q 501 -21 653 -21 m 186 497 l 186 892 l 64 892 l 64 972 l 397 972 l 397 892 l 275 892 l 275 497 l 186 497 m 165 1053 l 257 1217 l 365 1217 l 251 1053 l 165 1053 m 693 1053 l 785 1217 l 893 1217 l 779 1053 l 693 1053 z "},"à":{"ha":797,"x_min":76,"x_max":761,"o":"m 329 -19 q 201 5 258 -19 q 110 76 143 29 q 76 190 76 124 q 110 303 76 258 q 200 369 143 347 q 326 392 257 392 l 574 392 l 574 446 q 526 574 574 528 q 389 619 479 619 q 248 576 300 619 q 178 458 196 532 l 97 482 q 150 590 114 542 q 246 666 186 638 q 389 694 306 694 q 587 628 517 694 q 657 442 657 561 l 657 114 q 696 72 657 72 l 761 72 l 761 0 l 672 0 q 604 26 629 0 q 579 96 579 51 l 579 106 l 565 106 q 519 46 547 75 q 444 -1 490 17 q 329 -19 399 -19 m 335 56 q 508 120 442 56 q 574 303 574 185 l 574 319 l 328 319 q 208 288 256 319 q 160 192 160 257 q 209 91 160 126 q 335 56 258 56 m 365 789 l 238 972 l 344 972 l 451 789 l 365 789 z "},"á":{"ha":797,"x_min":76,"x_max":761,"o":"m 329 -19 q 201 5 258 -19 q 110 76 143 29 q 76 190 76 124 q 110 303 76 258 q 200 369 143 347 q 326 392 257 392 l 574 392 l 574 446 q 526 574 574 528 q 389 619 479 619 q 248 576 300 619 q 178 458 196 532 l 97 482 q 150 590 114 542 q 246 666 186 638 q 389 694 306 694 q 587 628 517 694 q 657 442 657 561 l 657 114 q 696 72 657 72 l 761 72 l 761 0 l 672 0 q 604 26 629 0 q 579 96 579 51 l 579 106 l 565 106 q 519 46 547 75 q 444 -1 490 17 q 329 -19 399 -19 m 335 56 q 508 120 442 56 q 574 303 574 185 l 574 319 l 328 319 q 208 288 256 319 q 160 192 160 257 q 209 91 160 126 q 335 56 258 56 m 332 772 l 440 956 l 546 956 l 418 772 l 332 772 z "},"â":{"ha":797,"x_min":76,"x_max":761,"o":"m 329 -19 q 201 5 258 -19 q 110 76 143 29 q 76 190 76 124 q 110 303 76 258 q 200 369 143 347 q 326 392 257 392 l 574 392 l 574 446 q 526 574 574 528 q 389 619 479 619 q 248 576 300 619 q 178 458 196 532 l 97 482 q 150 590 114 542 q 246 666 186 638 q 389 694 306 694 q 587 628 517 694 q 657 442 657 561 l 657 114 q 696 72 657 72 l 761 72 l 761 0 l 672 0 q 604 26 629 0 q 579 96 579 51 l 579 106 l 565 106 q 519 46 547 75 q 444 -1 490 17 q 329 -19 399 -19 m 335 56 q 508 120 442 56 q 574 303 574 185 l 574 319 l 328 319 q 208 288 256 319 q 160 192 160 257 q 209 91 160 126 q 335 56 258 56 m 164 772 l 339 956 l 444 956 l 619 772 l 517 772 l 400 894 l 383 894 l 267 772 l 164 772 z "},"ã":{"ha":797,"x_min":76,"x_max":761,"o":"m 329 -19 q 201 5 258 -19 q 110 76 143 29 q 76 190 76 124 q 110 303 76 258 q 200 369 143 347 q 326 392 257 392 l 574 392 l 574 446 q 526 574 574 528 q 389 619 479 619 q 248 576 300 619 q 178 458 196 532 l 97 482 q 150 590 114 542 q 246 666 186 638 q 389 694 306 694 q 587 628 517 694 q 657 442 657 561 l 657 114 q 696 72 657 72 l 761 72 l 761 0 l 672 0 q 604 26 629 0 q 579 96 579 51 l 579 106 l 565 106 q 519 46 547 75 q 444 -1 490 17 q 329 -19 399 -19 m 335 56 q 508 120 442 56 q 574 303 574 185 l 574 319 l 328 319 q 208 288 256 319 q 160 192 160 257 q 209 91 160 126 q 335 56 258 56 m 239 760 l 181 792 l 222 869 q 258 910 236 894 q 311 926 281 926 q 362 915 340 926 q 408 872 383 903 q 441 836 428 850 q 468 822 454 822 q 490 829 482 822 q 506 849 499 836 l 544 919 l 603 888 l 561 810 q 526 769 547 785 q 472 753 504 753 q 422 765 443 753 q 375 807 400 776 q 344 843 357 829 q 315 857 331 857 q 293 850 301 857 q 278 831 285 843 l 239 760 z "},"ä":{"ha":797,"x_min":76,"x_max":761,"o":"m 329 -19 q 201 5 258 -19 q 110 76 143 29 q 76 190 76 124 q 110 303 76 258 q 200 369 143 347 q 326 392 257 392 l 574 392 l 574 446 q 526 574 574 528 q 389 619 479 619 q 248 576 300 619 q 178 458 196 532 l 97 482 q 150 590 114 542 q 246 666 186 638 q 389 694 306 694 q 587 628 517 694 q 657 442 657 561 l 657 114 q 696 72 657 72 l 761 72 l 761 0 l 672 0 q 604 26 629 0 q 579 96 579 51 l 579 106 l 565 106 q 519 46 547 75 q 444 -1 490 17 q 329 -19 399 -19 m 335 56 q 508 120 442 56 q 574 303 574 185 l 574 319 l 328 319 q 208 288 256 319 q 160 192 160 257 q 209 91 160 126 q 335 56 258 56 m 517 792 q 466 812 486 792 q 446 863 446 832 q 466 914 446 894 q 517 933 486 933 q 568 914 549 933 q 588 863 588 894 q 568 812 588 832 q 517 792 549 792 m 267 792 q 216 812 236 792 q 196 863 196 832 q 216 914 196 894 q 267 933 236 933 q 318 914 299 933 q 338 863 338 894 q 318 812 338 832 q 267 792 299 792 z "},"ā":{"ha":797,"x_min":76,"x_max":761,"o":"m 329 -19 q 201 5 258 -19 q 110 76 143 29 q 76 190 76 124 q 110 303 76 258 q 200 369 143 347 q 326 392 257 392 l 574 392 l 574 446 q 526 574 574 528 q 389 619 479 619 q 248 576 300 619 q 178 458 196 532 l 97 482 q 150 590 114 542 q 246 666 186 638 q 389 694 306 694 q 587 628 517 694 q 657 442 657 561 l 657 114 q 696 72 657 72 l 761 72 l 761 0 l 672 0 q 604 26 629 0 q 579 96 579 51 l 579 106 l 565 106 q 519 46 547 75 q 444 -1 490 17 q 329 -19 399 -19 m 335 56 q 508 120 442 56 q 574 303 574 185 l 574 319 l 328 319 q 208 288 256 319 q 160 192 160 257 q 209 91 160 126 q 335 56 258 56 m 183 803 l 183 875 l 600 875 l 600 803 l 183 803 z "},"ă":{"ha":797,"x_min":76,"x_max":761,"o":"m 329 -19 q 201 5 258 -19 q 110 76 143 29 q 76 190 76 124 q 110 303 76 258 q 200 369 143 347 q 326 392 257 392 l 574 392 l 574 446 q 526 574 574 528 q 389 619 479 619 q 248 576 300 619 q 178 458 196 532 l 97 482 q 150 590 114 542 q 246 666 186 638 q 389 694 306 694 q 587 628 517 694 q 657 442 657 561 l 657 114 q 696 72 657 72 l 761 72 l 761 0 l 672 0 q 604 26 629 0 q 579 96 579 51 l 579 106 l 565 106 q 519 46 547 75 q 444 -1 490 17 q 329 -19 399 -19 m 335 56 q 508 120 442 56 q 574 303 574 185 l 574 319 l 328 319 q 208 288 256 319 q 160 192 160 257 q 209 91 160 126 q 335 56 258 56 m 392 769 q 253 816 307 769 q 199 947 199 863 l 199 956 l 276 956 l 276 947 q 306 867 276 899 q 392 836 335 836 q 477 867 449 836 q 506 947 506 899 l 506 956 l 583 956 l 583 947 q 530 816 583 863 q 392 769 476 769 z "},"å":{"ha":797,"x_min":76,"x_max":761,"o":"m 329 -19 q 201 5 258 -19 q 110 76 143 29 q 76 190 76 124 q 110 303 76 258 q 200 369 143 347 q 326 392 257 392 l 574 392 l 574 446 q 526 574 574 528 q 389 619 479 619 q 248 576 300 619 q 178 458 196 532 l 97 482 q 150 590 114 542 q 246 666 186 638 q 389 694 306 694 q 587 628 517 694 q 657 442 657 561 l 657 114 q 696 72 657 72 l 761 72 l 761 0 l 672 0 q 604 26 629 0 q 579 96 579 51 l 579 106 l 565 106 q 519 46 547 75 q 444 -1 490 17 q 329 -19 399 -19 m 335 56 q 508 120 442 56 q 574 303 574 185 l 574 319 l 328 319 q 208 288 256 319 q 160 192 160 257 q 209 91 160 126 q 335 56 258 56 m 392 756 q 297 792 336 756 q 258 886 258 828 q 297 981 258 944 q 392 1017 336 1017 q 488 981 449 1017 q 526 886 526 944 q 488 792 526 828 q 392 756 449 756 m 392 819 q 442 838 424 819 q 460 886 460 857 q 442 934 460 915 q 392 953 424 953 q 343 934 361 953 q 325 886 325 915 q 343 838 325 857 q 392 819 361 819 z "},"ą":{"ha":797,"x_min":76,"x_max":761,"o":"m 329 -19 q 201 5 258 -19 q 110 76 143 29 q 76 190 76 124 q 110 303 76 258 q 200 369 143 347 q 326 392 257 392 l 574 392 l 574 446 q 526 574 574 528 q 389 619 479 619 q 248 576 300 619 q 178 458 196 532 l 97 482 q 150 590 114 542 q 246 666 186 638 q 389 694 306 694 q 587 628 517 694 q 657 442 657 561 l 657 114 q 696 72 657 72 l 761 72 l 761 0 l 672 0 q 604 26 629 0 q 579 96 579 51 l 579 106 l 565 106 q 519 46 547 75 q 444 -1 490 17 q 329 -19 399 -19 m 335 56 q 508 120 442 56 q 574 303 574 185 l 574 319 l 328 319 q 208 288 256 319 q 160 192 160 257 q 209 91 160 126 q 335 56 258 56 m 694 -225 q 625 -202 650 -225 q 600 -136 600 -179 q 603 -97 600 -117 q 613 -56 607 -78 l 629 15 l 699 15 l 679 -90 q 676 -110 678 -103 q 674 -126 674 -117 q 704 -153 674 -153 l 761 -153 l 761 -225 l 694 -225 z "},"æ":{"ha":1314,"x_min":76,"x_max":1231,"o":"m 931 -19 q 754 28 829 -19 q 638 159 679 76 q 597 343 597 242 q 638 522 597 443 q 752 648 679 601 q 918 694 825 694 q 1081 655 1011 694 q 1191 542 1151 615 q 1231 365 1231 468 l 1231 315 l 675 315 q 751 125 682 194 q 929 56 819 56 q 1069 99 1019 56 q 1144 203 1118 143 l 1217 165 q 1156 74 1192 117 q 1067 6 1121 32 q 931 -19 1013 -19 m 349 51 q 523 117 456 51 q 590 301 590 183 l 590 315 l 338 315 q 210 284 261 315 q 158 189 158 253 q 213 88 158 125 q 349 51 267 51 m 346 -19 q 153 33 229 -19 q 76 188 76 86 q 151 338 76 289 q 336 386 225 386 l 590 386 l 590 446 q 538 574 590 528 q 396 619 486 619 q 249 576 304 619 q 174 461 193 533 l 96 485 q 150 590 113 543 q 249 666 188 638 q 396 694 311 694 q 553 656 490 694 q 642 551 615 617 l 671 551 l 640 351 l 661 153 l 626 153 q 574 68 608 107 q 483 5 539 29 q 346 -19 426 -19 m 675 386 l 1146 386 q 1080 559 1142 500 q 918 618 1018 618 q 752 556 818 618 q 675 386 686 494 z "},"ç":{"ha":838,"x_min":89,"x_max":754,"o":"m 431 -19 q 255 23 332 -19 q 133 144 178 65 q 89 331 89 224 l 89 344 q 133 531 89 453 q 255 652 178 610 q 431 694 332 694 q 595 658 528 694 q 701 562 663 621 q 749 438 739 503 l 667 421 q 632 520 660 475 q 554 592 604 565 q 431 619 504 619 q 299 585 357 619 q 206 490 240 551 q 172 343 172 428 l 172 332 q 206 185 172 247 q 299 90 240 124 q 431 56 357 56 q 600 113 542 56 q 672 254 658 171 l 754 238 q 702 113 742 172 q 595 17 663 54 q 431 -19 528 -19 m 436 -281 q 359 -267 394 -281 q 296 -233 324 -254 l 332 -178 q 380 -206 354 -194 q 436 -217 406 -217 q 485 -205 465 -217 q 506 -167 506 -193 q 487 -131 506 -143 q 436 -118 468 -118 l 386 -118 l 401 31 l 467 31 l 457 -67 q 543 -94 511 -67 q 575 -172 575 -121 q 556 -233 575 -208 q 506 -269 538 -257 q 436 -281 475 -281 z "},"ć":{"ha":838,"x_min":89,"x_max":754,"o":"m 431 -19 q 255 23 332 -19 q 133 144 178 65 q 89 331 89 224 l 89 344 q 133 531 89 453 q 255 652 178 610 q 431 694 332 694 q 595 658 528 694 q 701 562 663 621 q 749 438 739 503 l 667 421 q 632 520 660 475 q 554 592 604 565 q 431 619 504 619 q 299 585 357 619 q 206 490 240 551 q 172 343 172 428 l 172 332 q 206 185 172 247 q 299 90 240 124 q 431 56 357 56 q 600 113 542 56 q 672 254 658 171 l 754 238 q 702 113 742 172 q 595 17 663 54 q 431 -19 528 -19 m 371 772 l 479 956 l 585 956 l 457 772 l 371 772 z "},"ĉ":{"ha":838,"x_min":89,"x_max":754,"o":"m 431 -19 q 255 23 332 -19 q 133 144 178 65 q 89 331 89 224 l 89 344 q 133 531 89 453 q 255 652 178 610 q 431 694 332 694 q 595 658 528 694 q 701 562 663 621 q 749 438 739 503 l 667 421 q 632 520 660 475 q 554 592 604 565 q 431 619 504 619 q 299 585 357 619 q 206 490 240 551 q 172 343 172 428 l 172 332 q 206 185 172 247 q 299 90 240 124 q 431 56 357 56 q 600 113 542 56 q 672 254 658 171 l 754 238 q 702 113 742 172 q 595 17 663 54 q 431 -19 528 -19 m 203 772 l 378 956 l 483 956 l 658 772 l 556 772 l 439 894 l 422 894 l 306 772 l 203 772 z "},"č":{"ha":838,"x_min":89,"x_max":754,"o":"m 431 -19 q 255 23 332 -19 q 133 144 178 65 q 89 331 89 224 l 89 344 q 133 531 89 453 q 255 652 178 610 q 431 694 332 694 q 595 658 528 694 q 701 562 663 621 q 749 438 739 503 l 667 421 q 632 520 660 475 q 554 592 604 565 q 431 619 504 619 q 299 585 357 619 q 206 490 240 551 q 172 343 172 428 l 172 332 q 206 185 172 247 q 299 90 240 124 q 431 56 357 56 q 600 113 542 56 q 672 254 658 171 l 754 238 q 702 113 742 172 q 595 17 663 54 q 431 -19 528 -19 m 378 772 l 203 956 l 306 956 l 422 833 l 439 833 l 556 956 l 658 956 l 483 772 l 378 772 z "},"ċ":{"ha":838,"x_min":89,"x_max":754,"o":"m 431 -19 q 255 23 332 -19 q 133 144 178 65 q 89 331 89 224 l 89 344 q 133 531 89 453 q 255 652 178 610 q 431 694 332 694 q 595 658 528 694 q 701 562 663 621 q 749 438 739 503 l 667 421 q 632 520 660 475 q 554 592 604 565 q 431 619 504 619 q 299 585 357 619 q 206 490 240 551 q 172 343 172 428 l 172 332 q 206 185 172 247 q 299 90 240 124 q 431 56 357 56 q 600 113 542 56 q 672 254 658 171 l 754 238 q 702 113 742 172 q 595 17 663 54 q 431 -19 528 -19 m 431 792 q 379 813 400 792 q 358 864 358 833 q 379 916 358 896 q 431 936 400 936 q 483 916 463 936 q 503 864 503 896 q 483 813 503 833 q 431 792 463 792 z "},"ð":{"ha":853,"x_min":89,"x_max":772,"o":"m 431 -19 q 251 24 328 -19 q 131 147 174 68 q 89 329 89 225 l 89 346 q 131 528 89 450 q 247 649 172 606 q 417 693 321 693 q 553 667 497 693 q 643 599 608 640 l 658 599 q 542 792 631 706 q 293 924 454 878 l 318 988 q 563 867 461 946 q 718 665 664 789 q 772 363 772 540 q 730 156 772 242 q 611 26 688 71 q 431 -19 535 -19 m 431 56 q 567 90 508 56 q 657 188 625 125 q 689 332 689 250 l 689 343 q 619 543 689 467 q 431 619 549 619 q 242 543 313 619 q 172 343 172 467 l 172 332 q 242 132 172 208 q 431 56 313 56 m 408 764 l 356 800 l 508 1010 l 561 974 l 408 764 z "},"ď":{"ha":978,"x_min":89,"x_max":989,"o":"m 414 -19 q 250 23 324 -19 q 133 144 176 65 q 89 329 89 222 l 89 346 q 132 531 89 453 q 249 652 175 610 q 414 694 324 694 q 540 674 489 694 q 624 623 592 654 q 675 557 657 592 l 692 557 l 692 972 l 775 972 l 775 0 l 694 0 l 694 124 l 678 124 q 587 24 649 68 q 414 -19 525 -19 m 433 56 q 620 129 549 56 q 692 332 692 203 l 692 343 q 620 546 692 472 q 433 619 549 619 q 247 546 319 619 q 175 343 175 472 l 175 332 q 247 129 175 203 q 433 56 319 56 m 886 722 l 899 972 l 989 972 l 953 722 l 886 722 z "},"đ":{"ha":897,"x_min":89,"x_max":886,"o":"m 414 -19 q 250 23 324 -19 q 133 144 176 65 q 89 329 89 222 l 89 346 q 132 531 89 453 q 249 652 175 610 q 414 694 324 694 q 540 674 489 694 q 624 623 592 654 q 675 557 657 592 l 692 557 l 692 972 l 775 972 l 775 0 l 694 0 l 694 124 l 678 124 q 587 24 649 68 q 414 -19 525 -19 m 433 56 q 620 129 549 56 q 692 332 692 203 l 692 343 q 620 546 692 472 q 433 619 549 619 q 247 546 319 619 q 175 343 175 472 l 175 332 q 247 129 175 203 q 433 56 319 56 m 440 786 l 440 847 l 886 847 l 886 786 l 440 786 z "},"è":{"ha":831,"x_min":89,"x_max":747,"o":"m 433 -19 q 252 24 329 -19 q 132 147 175 68 q 89 329 89 226 l 89 346 q 132 528 89 450 q 251 651 175 607 q 424 694 326 694 q 591 655 518 694 q 706 541 664 615 q 747 364 747 467 l 747 319 l 172 319 q 249 124 176 193 q 433 56 322 56 q 580 99 528 56 q 660 204 632 142 l 735 171 q 677 81 714 125 q 582 9 640 38 q 433 -19 524 -19 m 174 392 l 663 392 q 592 560 657 501 q 424 619 526 619 q 256 560 322 619 q 174 392 189 501 m 397 789 l 269 972 l 376 972 l 483 789 l 397 789 z "},"é":{"ha":831,"x_min":89,"x_max":747,"o":"m 433 -19 q 252 24 329 -19 q 132 147 175 68 q 89 329 89 226 l 89 346 q 132 528 89 450 q 251 651 175 607 q 424 694 326 694 q 591 655 518 694 q 706 541 664 615 q 747 364 747 467 l 747 319 l 172 319 q 249 124 176 193 q 433 56 322 56 q 580 99 528 56 q 660 204 632 142 l 735 171 q 677 81 714 125 q 582 9 640 38 q 433 -19 524 -19 m 174 392 l 663 392 q 592 560 657 501 q 424 619 526 619 q 256 560 322 619 q 174 392 189 501 m 364 772 l 472 956 l 578 956 l 450 772 l 364 772 z "},"ê":{"ha":831,"x_min":89,"x_max":747,"o":"m 433 -19 q 252 24 329 -19 q 132 147 175 68 q 89 329 89 226 l 89 346 q 132 528 89 450 q 251 651 175 607 q 424 694 326 694 q 591 655 518 694 q 706 541 664 615 q 747 364 747 467 l 747 319 l 172 319 q 249 124 176 193 q 433 56 322 56 q 580 99 528 56 q 660 204 632 142 l 735 171 q 677 81 714 125 q 582 9 640 38 q 433 -19 524 -19 m 174 392 l 663 392 q 592 560 657 501 q 424 619 526 619 q 256 560 322 619 q 174 392 189 501 m 196 772 l 371 956 l 476 956 l 651 772 l 549 772 l 432 894 l 415 894 l 299 772 l 196 772 z "},"ě":{"ha":831,"x_min":89,"x_max":747,"o":"m 433 -19 q 252 24 329 -19 q 132 147 175 68 q 89 329 89 226 l 89 346 q 132 528 89 450 q 251 651 175 607 q 424 694 326 694 q 591 655 518 694 q 706 541 664 615 q 747 364 747 467 l 747 319 l 172 319 q 249 124 176 193 q 433 56 322 56 q 580 99 528 56 q 660 204 632 142 l 735 171 q 677 81 714 125 q 582 9 640 38 q 433 -19 524 -19 m 174 392 l 663 392 q 592 560 657 501 q 424 619 526 619 q 256 560 322 619 q 174 392 189 501 m 371 772 l 196 956 l 299 956 l 415 833 l 432 833 l 549 956 l 651 956 l 476 772 l 371 772 z "},"ë":{"ha":831,"x_min":89,"x_max":747,"o":"m 433 -19 q 252 24 329 -19 q 132 147 175 68 q 89 329 89 226 l 89 346 q 132 528 89 450 q 251 651 175 607 q 424 694 326 694 q 591 655 518 694 q 706 541 664 615 q 747 364 747 467 l 747 319 l 172 319 q 249 124 176 193 q 433 56 322 56 q 580 99 528 56 q 660 204 632 142 l 735 171 q 677 81 714 125 q 582 9 640 38 q 433 -19 524 -19 m 174 392 l 663 392 q 592 560 657 501 q 424 619 526 619 q 256 560 322 619 q 174 392 189 501 m 549 792 q 498 812 518 792 q 478 863 478 832 q 498 914 478 894 q 549 933 518 933 q 600 914 581 933 q 619 863 619 894 q 600 812 619 832 q 549 792 581 792 m 299 792 q 248 812 268 792 q 228 863 228 832 q 248 914 228 894 q 299 933 268 933 q 350 914 331 933 q 369 863 369 894 q 350 812 369 832 q 299 792 331 792 z "},"ē":{"ha":831,"x_min":89,"x_max":747,"o":"m 433 -19 q 252 24 329 -19 q 132 147 175 68 q 89 329 89 226 l 89 346 q 132 528 89 450 q 251 651 175 607 q 424 694 326 694 q 591 655 518 694 q 706 541 664 615 q 747 364 747 467 l 747 319 l 172 319 q 249 124 176 193 q 433 56 322 56 q 580 99 528 56 q 660 204 632 142 l 735 171 q 677 81 714 125 q 582 9 640 38 q 433 -19 524 -19 m 174 392 l 663 392 q 592 560 657 501 q 424 619 526 619 q 256 560 322 619 q 174 392 189 501 m 215 803 l 215 875 l 632 875 l 632 803 l 215 803 z "},"ĕ":{"ha":831,"x_min":89,"x_max":747,"o":"m 433 -19 q 252 24 329 -19 q 132 147 175 68 q 89 329 89 226 l 89 346 q 132 528 89 450 q 251 651 175 607 q 424 694 326 694 q 591 655 518 694 q 706 541 664 615 q 747 364 747 467 l 747 319 l 172 319 q 249 124 176 193 q 433 56 322 56 q 580 99 528 56 q 660 204 632 142 l 735 171 q 677 81 714 125 q 582 9 640 38 q 433 -19 524 -19 m 174 392 l 663 392 q 592 560 657 501 q 424 619 526 619 q 256 560 322 619 q 174 392 189 501 m 424 769 q 285 816 339 769 q 231 947 231 863 l 231 956 l 308 956 l 308 947 q 338 867 308 899 q 424 836 367 836 q 509 867 481 836 q 538 947 538 899 l 538 956 l 615 956 l 615 947 q 562 816 615 863 q 424 769 508 769 z "},"ę":{"ha":831,"x_min":89,"x_max":747,"o":"m 433 -19 q 252 24 329 -19 q 132 147 175 68 q 89 329 89 226 l 89 346 q 132 528 89 450 q 251 651 175 607 q 424 694 326 694 q 591 655 518 694 q 706 541 664 615 q 747 364 747 467 l 747 319 l 172 319 q 249 124 176 193 q 433 56 322 56 q 580 99 528 56 q 660 204 632 142 l 735 171 q 677 81 714 125 q 582 9 640 38 q 433 -19 524 -19 m 174 392 l 663 392 q 592 560 657 501 q 424 619 526 619 q 256 560 322 619 q 174 392 189 501 m 550 -225 q 481 -202 506 -225 q 456 -136 456 -179 q 459 -97 456 -117 q 468 -56 463 -78 l 485 15 l 554 15 l 535 -90 q 531 -110 533 -103 q 529 -126 529 -117 q 560 -153 529 -153 l 617 -153 l 617 -225 l 550 -225 z "},"ė":{"ha":831,"x_min":89,"x_max":747,"o":"m 433 -19 q 252 24 329 -19 q 132 147 175 68 q 89 329 89 226 l 89 346 q 132 528 89 450 q 251 651 175 607 q 424 694 326 694 q 591 655 518 694 q 706 541 664 615 q 747 364 747 467 l 747 319 l 172 319 q 249 124 176 193 q 433 56 322 56 q 580 99 528 56 q 660 204 632 142 l 735 171 q 677 81 714 125 q 582 9 640 38 q 433 -19 524 -19 m 174 392 l 663 392 q 592 560 657 501 q 424 619 526 619 q 256 560 322 619 q 174 392 189 501 m 424 792 q 372 813 393 792 q 351 864 351 833 q 372 916 351 896 q 424 936 393 936 q 476 916 456 936 q 496 864 496 896 q 476 813 496 833 q 424 792 456 792 z "},"ĝ":{"ha":894,"x_min":89,"x_max":772,"o":"m 89 335 l 89 351 q 133 535 89 458 q 250 653 176 611 q 414 694 324 694 q 587 651 525 694 q 678 551 649 607 l 694 551 l 694 675 l 772 675 l 772 -172 q 746 -250 772 -222 q 665 -278 719 -278 l 204 -278 l 204 -203 l 649 -203 q 692 -161 692 -203 l 692 129 l 675 129 q 624 64 657 96 q 540 12 592 32 q 414 -8 489 -8 q 249 33 324 -8 q 132 152 175 75 q 89 335 89 229 m 433 67 q 620 139 549 67 q 692 338 692 211 l 692 349 q 620 548 692 476 q 433 619 549 619 q 247 548 319 619 q 175 349 175 476 l 175 338 q 247 139 175 211 q 433 67 319 67 m 233 772 l 408 956 l 514 956 l 689 772 l 586 772 l 469 894 l 453 894 l 336 772 l 233 772 z "},"ğ":{"ha":894,"x_min":89,"x_max":772,"o":"m 89 335 l 89 351 q 133 535 89 458 q 250 653 176 611 q 414 694 324 694 q 587 651 525 694 q 678 551 649 607 l 694 551 l 694 675 l 772 675 l 772 -172 q 746 -250 772 -222 q 665 -278 719 -278 l 204 -278 l 204 -203 l 649 -203 q 692 -161 692 -203 l 692 129 l 675 129 q 624 64 657 96 q 540 12 592 32 q 414 -8 489 -8 q 249 33 324 -8 q 132 152 175 75 q 89 335 89 229 m 433 67 q 620 139 549 67 q 692 338 692 211 l 692 349 q 620 548 692 476 q 433 619 549 619 q 247 548 319 619 q 175 349 175 476 l 175 338 q 247 139 175 211 q 433 67 319 67 m 461 769 q 322 816 376 769 q 268 947 268 863 l 268 956 l 346 956 l 346 947 q 375 867 346 899 q 461 836 404 836 q 547 867 518 836 q 575 947 575 899 l 575 956 l 653 956 l 653 947 q 599 816 653 863 q 461 769 546 769 z "},"ġ":{"ha":894,"x_min":89,"x_max":772,"o":"m 89 335 l 89 351 q 133 535 89 458 q 250 653 176 611 q 414 694 324 694 q 587 651 525 694 q 678 551 649 607 l 694 551 l 694 675 l 772 675 l 772 -172 q 746 -250 772 -222 q 665 -278 719 -278 l 204 -278 l 204 -203 l 649 -203 q 692 -161 692 -203 l 692 129 l 675 129 q 624 64 657 96 q 540 12 592 32 q 414 -8 489 -8 q 249 33 324 -8 q 132 152 175 75 q 89 335 89 229 m 433 67 q 620 139 549 67 q 692 338 692 211 l 692 349 q 620 548 692 476 q 433 619 549 619 q 247 548 319 619 q 175 349 175 476 l 175 338 q 247 139 175 211 q 433 67 319 67 m 461 792 q 410 813 431 792 q 389 864 389 833 q 410 916 389 896 q 461 936 431 936 q 513 916 493 936 q 533 864 533 896 q 513 813 533 833 q 461 792 493 792 z "},"ĥ":{"ha":850,"x_min":-68,"x_max":736,"o":"m 122 0 l 122 972 l 206 972 l 206 557 l 222 557 q 269 620 239 590 q 347 669 299 650 q 467 688 394 688 q 601 657 540 688 q 699 565 663 626 q 736 411 736 504 l 736 0 l 653 0 l 653 406 q 597 565 653 517 q 449 613 542 613 q 275 544 344 613 q 206 338 206 476 l 206 0 l 122 0 m -68 1053 l 115 1217 l 213 1217 l 396 1053 l 283 1053 l 172 1158 l 156 1158 l 44 1053 l -68 1053 z "},"ħ":{"ha":850,"x_min":11,"x_max":736,"o":"m 122 0 l 122 972 l 206 972 l 206 557 l 222 557 q 269 620 239 590 q 347 669 299 650 q 467 688 394 688 q 601 657 540 688 q 699 565 663 626 q 736 411 736 504 l 736 0 l 653 0 l 653 406 q 597 565 653 517 q 449 613 542 613 q 275 544 344 613 q 206 338 206 476 l 206 0 l 122 0 m 11 786 l 11 847 l 457 847 l 457 786 l 11 786 z "},"ì":{"ha":328,"x_min":10,"x_max":224,"o":"m 122 0 l 122 675 l 206 675 l 206 0 l 122 0 m 138 789 l 10 972 l 117 972 l 224 789 l 138 789 z "},"í":{"ha":328,"x_min":104,"x_max":318,"o":"m 122 0 l 122 675 l 206 675 l 206 0 l 122 0 m 104 772 l 213 956 l 318 956 l 190 772 l 104 772 z "},"î":{"ha":328,"x_min":-64,"x_max":392,"o":"m 122 0 l 122 675 l 206 675 l 206 0 l 122 0 m -64 772 l 111 956 l 217 956 l 392 772 l 289 772 l 172 894 l 156 894 l 39 772 l -64 772 z "},"ĩ":{"ha":328,"x_min":-47,"x_max":375,"o":"m 122 0 l 122 675 l 206 675 l 206 0 l 122 0 m 11 760 l -47 792 l -6 869 q 31 910 8 894 q 83 926 53 926 q 134 915 113 926 q 181 872 156 903 q 213 836 200 850 q 240 822 226 822 q 263 829 254 822 q 278 849 271 836 l 317 919 l 375 888 l 333 810 q 298 769 319 785 q 244 753 276 753 q 194 765 215 753 q 147 807 172 776 q 116 843 129 829 q 88 857 103 857 q 65 850 74 857 q 50 831 57 843 l 11 760 z "},"ï":{"ha":328,"x_min":-32,"x_max":360,"o":"m 122 0 l 122 675 l 206 675 l 206 0 l 122 0 m 289 792 q 238 812 258 792 q 218 863 218 832 q 238 914 218 894 q 289 933 258 933 q 340 914 321 933 q 360 863 360 894 q 340 812 360 832 q 289 792 321 792 m 39 792 q -12 812 8 792 q -32 863 -32 832 q -12 914 -32 894 q 39 933 8 933 q 90 914 71 933 q 110 863 110 894 q 90 812 110 832 q 39 792 71 792 z "},"ī":{"ha":328,"x_min":-44,"x_max":372,"o":"m 122 0 l 122 675 l 206 675 l 206 0 l 122 0 m -44 803 l -44 875 l 372 875 l 372 803 l -44 803 z "},"į":{"ha":328,"x_min":92,"x_max":265,"o":"m 122 0 l 122 675 l 206 675 l 206 0 l 122 0 m 164 792 q 113 813 133 792 q 92 864 92 833 q 113 916 92 896 q 164 936 133 936 q 216 916 196 936 q 236 864 236 896 q 216 813 236 833 q 164 792 196 792 m 199 -225 q 129 -202 154 -225 q 104 -136 104 -179 q 108 -97 104 -117 q 117 -56 111 -78 l 133 15 l 203 15 l 183 -90 q 180 -110 182 -103 q 178 -126 178 -117 q 208 -153 178 -153 l 265 -153 l 265 -225 l 199 -225 z "},"ĭ":{"ha":328,"x_min":-29,"x_max":356,"o":"m 122 0 l 122 675 l 206 675 l 206 0 l 122 0 m 164 769 q 25 816 79 769 q -29 947 -29 863 l -29 956 l 49 956 l 49 947 q 78 867 49 899 q 164 836 107 836 q 249 867 221 836 q 278 947 278 899 l 278 956 l 356 956 l 356 947 q 302 816 356 863 q 164 769 249 769 z "},"ĵ":{"ha":331,"x_min":-61,"x_max":394,"o":"m -14 -278 l -14 -203 l 83 -203 q 125 -161 125 -203 l 125 675 l 208 675 l 208 -172 q 181 -250 208 -222 q 100 -278 154 -278 l -14 -278 m -61 772 l 114 956 l 219 956 l 394 772 l 292 772 l 175 894 l 158 894 l 42 772 l -61 772 z "},"ĸ":{"ha":732,"x_min":122,"x_max":701,"o":"m 122 0 l 122 675 l 206 675 l 206 386 l 222 386 l 568 675 l 690 675 l 290 346 l 701 0 l 581 0 l 222 304 l 206 304 l 206 0 l 122 0 z "},"ĺ":{"ha":328,"x_min":99,"x_max":299,"o":"m 122 0 l 122 972 l 206 972 l 206 0 l 122 0 m 99 1053 l 190 1217 l 299 1217 l 185 1053 l 99 1053 z "},"ľ":{"ha":408,"x_min":122,"x_max":419,"o":"m 122 0 l 122 972 l 206 972 l 206 0 l 122 0 m 317 722 l 329 972 l 419 972 l 383 722 l 317 722 z "},"ḹ":{"ha":328,"x_min":-44,"x_max":372,"o":"m 122 0 l 122 972 l 206 972 l 206 0 l 122 0 m 164 -261 q 113 -240 133 -261 q 92 -189 92 -219 q 113 -137 92 -157 q 164 -117 133 -117 q 216 -137 196 -117 q 236 -189 236 -157 q 216 -240 236 -219 q 164 -261 196 -261 m -44 1075 l -44 1147 l 372 1147 l 372 1075 l -44 1075 z "},"ł":{"ha":483,"x_min":39,"x_max":444,"o":"m 69 283 l 39 340 l 414 542 l 444 485 l 69 283 m 200 0 l 200 972 l 283 972 l 283 0 l 200 0 z "},"ŀ":{"ha":556,"x_min":122,"x_max":514,"o":"m 122 0 l 122 972 l 206 972 l 206 0 l 122 0 m 442 328 q 390 349 411 328 q 369 400 369 369 q 390 452 369 432 q 442 472 411 472 q 494 452 474 472 q 514 400 514 432 q 494 349 514 369 q 442 328 474 328 z "},"ń":{"ha":850,"x_min":122,"x_max":736,"o":"m 122 0 l 122 675 l 203 675 l 203 550 l 219 550 q 301 647 244 604 q 467 689 358 689 q 601 658 540 689 q 699 566 663 628 q 736 411 736 504 l 736 0 l 653 0 l 653 406 q 597 565 653 517 q 449 614 542 614 q 275 545 344 614 q 206 338 206 476 l 206 0 l 122 0 m 371 772 l 479 956 l 585 956 l 457 772 l 371 772 z "},"ň":{"ha":850,"x_min":122,"x_max":736,"o":"m 122 0 l 122 675 l 203 675 l 203 550 l 219 550 q 301 647 244 604 q 467 689 358 689 q 601 658 540 689 q 699 566 663 628 q 736 411 736 504 l 736 0 l 653 0 l 653 406 q 597 565 653 517 q 449 614 542 614 q 275 545 344 614 q 206 338 206 476 l 206 0 l 122 0 m 378 772 l 203 956 l 306 956 l 422 833 l 439 833 l 556 956 l 658 956 l 483 772 l 378 772 z "},"ñ":{"ha":850,"x_min":122,"x_max":736,"o":"m 122 0 l 122 675 l 203 675 l 203 550 l 219 550 q 301 647 244 604 q 467 689 358 689 q 601 658 540 689 q 699 566 663 628 q 736 411 736 504 l 736 0 l 653 0 l 653 406 q 597 565 653 517 q 449 614 542 614 q 275 545 344 614 q 206 338 206 476 l 206 0 l 122 0 m 278 760 l 219 792 l 261 869 q 297 910 275 894 q 350 926 319 926 q 401 915 379 926 q 447 872 422 903 q 480 836 467 850 q 507 822 493 822 q 529 829 521 822 q 544 849 538 836 l 583 919 l 642 888 l 600 810 q 565 769 586 785 q 511 753 543 753 q 460 765 482 753 q 414 807 439 776 q 383 843 396 829 q 354 857 369 857 q 332 850 340 857 q 317 831 324 843 l 278 760 z "},"ŉ":{"ha":850,"x_min":111,"x_max":736,"o":"m 122 0 l 122 675 l 203 675 l 203 550 l 219 550 q 301 647 244 604 q 467 689 358 689 q 601 658 540 689 q 699 566 663 628 q 736 411 736 504 l 736 0 l 653 0 l 653 406 q 597 565 653 517 q 449 614 542 614 q 275 545 344 614 q 206 338 206 476 l 206 0 l 122 0 m 122 775 l 122 828 l 151 828 q 185 838 175 828 q 194 869 194 847 l 194 896 l 181 896 q 131 915 151 896 q 111 964 111 933 q 131 1013 111 993 q 181 1032 150 1032 q 230 1012 210 1032 q 250 956 250 992 l 250 868 q 157 775 250 775 l 122 775 z "},"ò":{"ha":861,"x_min":89,"x_max":772,"o":"m 431 -19 q 251 24 328 -19 q 131 147 174 68 q 89 329 89 225 l 89 346 q 131 528 89 450 q 251 651 174 607 q 431 694 328 694 q 610 651 533 694 q 730 528 688 607 q 772 346 772 450 l 772 329 q 730 147 772 225 q 610 24 688 68 q 431 -19 533 -19 m 431 56 q 619 131 550 56 q 689 332 689 207 l 689 343 q 619 544 689 468 q 431 619 550 619 q 242 544 313 619 q 172 343 172 468 l 172 332 q 242 131 172 207 q 431 56 313 56 m 404 789 l 276 972 l 383 972 l 490 789 l 404 789 z "},"ó":{"ha":861,"x_min":89,"x_max":772,"o":"m 431 -19 q 251 24 328 -19 q 131 147 174 68 q 89 329 89 225 l 89 346 q 131 528 89 450 q 251 651 174 607 q 431 694 328 694 q 610 651 533 694 q 730 528 688 607 q 772 346 772 450 l 772 329 q 730 147 772 225 q 610 24 688 68 q 431 -19 533 -19 m 431 56 q 619 131 550 56 q 689 332 689 207 l 689 343 q 619 544 689 468 q 431 619 550 619 q 242 544 313 619 q 172 343 172 468 l 172 332 q 242 131 172 207 q 431 56 313 56 m 371 772 l 479 956 l 585 956 l 457 772 l 371 772 z "},"ô":{"ha":861,"x_min":89,"x_max":772,"o":"m 431 -19 q 251 24 328 -19 q 131 147 174 68 q 89 329 89 225 l 89 346 q 131 528 89 450 q 251 651 174 607 q 431 694 328 694 q 610 651 533 694 q 730 528 688 607 q 772 346 772 450 l 772 329 q 730 147 772 225 q 610 24 688 68 q 431 -19 533 -19 m 431 56 q 619 131 550 56 q 689 332 689 207 l 689 343 q 619 544 689 468 q 431 619 550 619 q 242 544 313 619 q 172 343 172 468 l 172 332 q 242 131 172 207 q 431 56 313 56 m 203 772 l 378 956 l 483 956 l 658 772 l 556 772 l 439 894 l 422 894 l 306 772 l 203 772 z "},"õ":{"ha":861,"x_min":89,"x_max":772,"o":"m 431 -19 q 251 24 328 -19 q 131 147 174 68 q 89 329 89 225 l 89 346 q 131 528 89 450 q 251 651 174 607 q 431 694 328 694 q 610 651 533 694 q 730 528 688 607 q 772 346 772 450 l 772 329 q 730 147 772 225 q 610 24 688 68 q 431 -19 533 -19 m 431 56 q 619 131 550 56 q 689 332 689 207 l 689 343 q 619 544 689 468 q 431 619 550 619 q 242 544 313 619 q 172 343 172 468 l 172 332 q 242 131 172 207 q 431 56 313 56 m 278 760 l 219 792 l 261 869 q 297 910 275 894 q 350 926 319 926 q 401 915 379 926 q 447 872 422 903 q 480 836 467 850 q 507 822 493 822 q 529 829 521 822 q 544 849 538 836 l 583 919 l 642 888 l 600 810 q 565 769 586 785 q 511 753 543 753 q 460 765 482 753 q 414 807 439 776 q 383 843 396 829 q 354 857 369 857 q 332 850 340 857 q 317 831 324 843 l 278 760 z "},"ö":{"ha":861,"x_min":89,"x_max":772,"o":"m 431 -19 q 251 24 328 -19 q 131 147 174 68 q 89 329 89 225 l 89 346 q 131 528 89 450 q 251 651 174 607 q 431 694 328 694 q 610 651 533 694 q 730 528 688 607 q 772 346 772 450 l 772 329 q 730 147 772 225 q 610 24 688 68 q 431 -19 533 -19 m 431 56 q 619 131 550 56 q 689 332 689 207 l 689 343 q 619 544 689 468 q 431 619 550 619 q 242 544 313 619 q 172 343 172 468 l 172 332 q 242 131 172 207 q 431 56 313 56 m 556 792 q 505 812 525 792 q 485 863 485 832 q 505 914 485 894 q 556 933 525 933 q 607 914 588 933 q 626 863 626 894 q 607 812 626 832 q 556 792 588 792 m 306 792 q 255 812 275 792 q 235 863 235 832 q 255 914 235 894 q 306 933 275 933 q 357 914 338 933 q 376 863 376 894 q 357 812 376 832 q 306 792 338 792 z "},"ō":{"ha":861,"x_min":89,"x_max":772,"o":"m 431 -19 q 251 24 328 -19 q 131 147 174 68 q 89 329 89 225 l 89 346 q 131 528 89 450 q 251 651 174 607 q 431 694 328 694 q 610 651 533 694 q 730 528 688 607 q 772 346 772 450 l 772 329 q 730 147 772 225 q 610 24 688 68 q 431 -19 533 -19 m 431 56 q 619 131 550 56 q 689 332 689 207 l 689 343 q 619 544 689 468 q 431 619 550 619 q 242 544 313 619 q 172 343 172 468 l 172 332 q 242 131 172 207 q 431 56 313 56 m 222 803 l 222 875 l 639 875 l 639 803 l 222 803 z "},"ő":{"ha":861,"x_min":89,"x_max":772,"o":"m 431 -19 q 251 24 328 -19 q 131 147 174 68 q 89 329 89 225 l 89 346 q 131 528 89 450 q 251 651 174 607 q 431 694 328 694 q 610 651 533 694 q 730 528 688 607 q 772 346 772 450 l 772 329 q 730 147 772 225 q 610 24 688 68 q 431 -19 533 -19 m 431 56 q 619 131 550 56 q 689 332 689 207 l 689 343 q 619 544 689 468 q 431 619 550 619 q 242 544 313 619 q 172 343 172 468 l 172 332 q 242 131 172 207 q 431 56 313 56 m 463 772 l 563 956 l 661 956 l 544 772 l 463 772 m 268 772 l 354 956 l 450 956 l 349 772 l 268 772 z "},"ŏ":{"ha":861,"x_min":89,"x_max":772,"o":"m 431 -19 q 251 24 328 -19 q 131 147 174 68 q 89 329 89 225 l 89 346 q 131 528 89 450 q 251 651 174 607 q 431 694 328 694 q 610 651 533 694 q 730 528 688 607 q 772 346 772 450 l 772 329 q 730 147 772 225 q 610 24 688 68 q 431 -19 533 -19 m 431 56 q 619 131 550 56 q 689 332 689 207 l 689 343 q 619 544 689 468 q 431 619 550 619 q 242 544 313 619 q 172 343 172 468 l 172 332 q 242 131 172 207 q 431 56 313 56 m 431 769 q 292 816 346 769 q 238 947 238 863 l 238 956 l 315 956 l 315 947 q 344 867 315 899 q 431 836 374 836 q 516 867 488 836 q 544 947 544 899 l 544 956 l 622 956 l 622 947 q 569 816 622 863 q 431 769 515 769 z "},"ø":{"ha":861,"x_min":89,"x_max":772,"o":"m 431 -19 q 251 24 328 -19 q 131 147 174 68 q 89 329 89 225 l 89 346 q 131 528 89 450 q 251 651 174 607 q 431 694 328 694 q 610 651 533 694 q 730 528 688 607 q 772 346 772 450 l 772 329 q 730 147 772 225 q 610 24 688 68 q 431 -19 533 -19 m 431 56 q 619 131 550 56 q 689 332 689 207 l 689 343 q 619 544 689 468 q 431 619 550 619 q 242 544 313 619 q 172 343 172 468 l 172 332 q 242 131 172 207 q 431 56 313 56 m 233 -81 l 176 -49 l 626 746 l 683 714 l 233 -81 z "},"œ":{"ha":1440,"x_min":89,"x_max":1357,"o":"m 429 -19 q 250 24 326 -19 q 131 147 174 68 q 89 328 89 225 l 89 346 q 131 528 89 450 q 250 651 174 607 q 429 694 326 694 q 613 644 536 694 q 725 504 689 594 l 742 504 q 859 643 782 592 q 1036 694 936 694 q 1203 655 1131 694 q 1316 541 1275 615 q 1357 364 1357 467 l 1357 321 l 783 321 q 860 126 789 197 q 1044 56 932 56 q 1190 99 1139 56 q 1269 204 1242 142 l 1346 172 q 1288 83 1324 126 q 1194 10 1251 39 q 1046 -19 1136 -19 q 858 33 938 -19 q 742 171 779 85 l 725 171 q 613 31 689 81 q 429 -19 536 -19 m 431 56 q 618 131 547 56 q 689 332 689 207 l 689 343 q 619 542 689 467 q 431 618 549 618 q 242 542 313 618 q 171 343 171 467 l 171 332 q 242 131 171 207 q 431 56 313 56 m 785 392 l 1271 392 q 1202 560 1267 501 q 1035 618 1138 618 q 865 557 933 618 q 785 392 796 496 z "},"ŕ":{"ha":513,"x_min":122,"x_max":463,"o":"m 122 0 l 122 675 l 203 675 l 203 590 l 219 590 q 277 657 239 636 q 383 678 315 678 l 463 678 l 463 600 l 374 600 q 251 557 297 600 q 206 422 206 514 l 206 0 l 122 0 m 233 772 l 342 956 l 447 956 l 319 772 l 233 772 z "},"ř":{"ha":513,"x_min":65,"x_max":521,"o":"m 122 0 l 122 675 l 203 675 l 203 590 l 219 590 q 277 657 239 636 q 383 678 315 678 l 463 678 l 463 600 l 374 600 q 251 557 297 600 q 206 422 206 514 l 206 0 l 122 0 m 240 772 l 65 956 l 168 956 l 285 833 l 301 833 l 418 956 l 521 956 l 346 772 l 240 772 z "},"ṝ":{"ha":513,"x_min":85,"x_max":501,"o":"m 122 0 l 122 675 l 203 675 l 203 590 l 219 590 q 277 657 239 636 q 383 678 315 678 l 463 678 l 463 600 l 374 600 q 251 557 297 600 q 206 422 206 514 l 206 0 l 122 0 m 164 -261 q 113 -240 133 -261 q 92 -189 92 -219 q 113 -137 92 -157 q 164 -117 133 -117 q 216 -137 196 -117 q 236 -189 236 -157 q 216 -240 236 -219 q 164 -261 196 -261 m 85 803 l 85 875 l 501 875 l 501 803 l 85 803 z "},"ś":{"ha":733,"x_min":75,"x_max":658,"o":"m 390 -19 q 181 39 268 -19 q 75 232 94 97 l 157 247 q 202 131 168 174 q 285 71 236 89 q 390 53 335 53 q 524 87 474 53 q 575 181 575 121 q 527 265 575 242 q 400 303 479 289 l 336 314 q 221 348 272 325 q 140 410 169 371 q 110 507 110 449 q 178 644 110 594 q 361 694 247 694 q 547 642 476 694 q 635 492 617 590 l 557 475 q 491 589 543 556 q 361 622 439 622 q 239 593 285 622 q 193 507 193 564 q 235 426 193 451 q 349 388 276 400 l 413 376 q 538 344 482 365 q 626 283 593 322 q 658 181 658 244 q 586 33 658 85 q 390 -19 514 -19 m 303 772 l 411 956 l 517 956 l 389 772 l 303 772 z "},"ŝ":{"ha":733,"x_min":75,"x_max":658,"o":"m 390 -19 q 181 39 268 -19 q 75 232 94 97 l 157 247 q 202 131 168 174 q 285 71 236 89 q 390 53 335 53 q 524 87 474 53 q 575 181 575 121 q 527 265 575 242 q 400 303 479 289 l 336 314 q 221 348 272 325 q 140 410 169 371 q 110 507 110 449 q 178 644 110 594 q 361 694 247 694 q 547 642 476 694 q 635 492 617 590 l 557 475 q 491 589 543 556 q 361 622 439 622 q 239 593 285 622 q 193 507 193 564 q 235 426 193 451 q 349 388 276 400 l 413 376 q 538 344 482 365 q 626 283 593 322 q 658 181 658 244 q 586 33 658 85 q 390 -19 514 -19 m 135 772 l 310 956 l 415 956 l 590 772 l 488 772 l 371 894 l 354 894 l 238 772 l 135 772 z "},"š":{"ha":733,"x_min":75,"x_max":658,"o":"m 390 -19 q 181 39 268 -19 q 75 232 94 97 l 157 247 q 202 131 168 174 q 285 71 236 89 q 390 53 335 53 q 524 87 474 53 q 575 181 575 121 q 527 265 575 242 q 400 303 479 289 l 336 314 q 221 348 272 325 q 140 410 169 371 q 110 507 110 449 q 178 644 110 594 q 361 694 247 694 q 547 642 476 694 q 635 492 617 590 l 557 475 q 491 589 543 556 q 361 622 439 622 q 239 593 285 622 q 193 507 193 564 q 235 426 193 451 q 349 388 276 400 l 413 376 q 538 344 482 365 q 626 283 593 322 q 658 181 658 244 q 586 33 658 85 q 390 -19 514 -19 m 310 772 l 135 956 l 238 956 l 354 833 l 371 833 l 488 956 l 590 956 l 415 772 l 310 772 z "},"ş":{"ha":733,"x_min":75,"x_max":658,"o":"m 390 -19 q 181 39 268 -19 q 75 232 94 97 l 157 247 q 202 131 168 174 q 285 71 236 89 q 390 53 335 53 q 524 87 474 53 q 575 181 575 121 q 527 265 575 242 q 400 303 479 289 l 336 314 q 221 348 272 325 q 140 410 169 371 q 110 507 110 449 q 178 644 110 594 q 361 694 247 694 q 547 642 476 694 q 635 492 617 590 l 557 475 q 491 589 543 556 q 361 622 439 622 q 239 593 285 622 q 193 507 193 564 q 235 426 193 451 q 349 388 276 400 l 413 376 q 538 344 482 365 q 626 283 593 322 q 658 181 658 244 q 586 33 658 85 q 390 -19 514 -19 m 386 -281 q 309 -267 344 -281 q 246 -233 274 -254 l 282 -178 q 330 -206 304 -194 q 386 -217 356 -217 q 435 -205 415 -217 q 456 -167 456 -193 q 437 -131 456 -143 q 386 -118 418 -118 l 336 -118 l 351 31 l 417 31 l 407 -67 q 493 -94 461 -67 q 525 -172 525 -121 q 506 -233 525 -208 q 456 -269 488 -257 q 386 -281 425 -281 z "},"ß":{"ha":858,"x_min":122,"x_max":815,"o":"m 558 -19 q 417 7 479 -19 q 317 84 356 33 q 269 207 279 135 l 347 224 q 420 94 364 135 q 558 54 476 54 q 687 90 640 54 q 733 194 733 126 q 708 269 733 239 q 644 321 683 299 q 563 363 606 343 l 513 386 q 442 438 465 408 q 418 501 418 467 q 445 574 418 547 q 513 622 472 600 q 599 687 561 650 q 636 783 636 724 q 585 883 636 849 q 460 918 533 918 q 342 889 401 918 q 244 796 283 860 q 204 625 204 732 l 204 0 l 122 0 l 122 619 q 165 819 122 736 q 285 947 208 903 q 460 992 361 992 q 597 964 539 992 q 686 889 654 936 q 718 785 718 842 q 694 685 718 726 q 631 613 671 643 q 544 557 592 583 q 511 532 521 544 q 501 504 501 519 q 547 453 501 472 l 607 424 q 708 372 660 400 q 785 301 756 343 q 815 194 815 260 q 783 81 815 129 q 694 6 751 32 q 558 -19 636 -19 z "},"ſ":{"ha":464,"x_min":42,"x_max":467,"o":"m 197 0 l 197 600 l 42 600 l 42 675 l 197 675 l 197 867 q 224 944 197 917 q 306 972 251 972 l 467 972 l 467 897 l 322 897 q 281 856 281 897 l 281 0 l 197 0 z "},"ť":{"ha":642,"x_min":42,"x_max":578,"o":"m 367 0 q 285 28 313 0 q 258 106 258 56 l 258 600 l 42 600 l 42 675 l 258 675 l 258 928 l 342 928 l 342 675 l 578 675 l 578 600 l 342 600 l 342 117 q 383 75 342 75 l 542 75 l 542 0 l 367 0 m 472 808 l 485 1058 l 575 1058 l 539 808 l 472 808 z "},"ŧ":{"ha":642,"x_min":42,"x_max":578,"o":"m 364 0 q 287 27 315 0 q 258 103 258 54 l 258 600 l 42 600 l 42 675 l 258 675 l 258 928 l 342 928 l 342 675 l 578 675 l 578 600 l 342 600 l 342 117 q 382 75 342 75 l 542 75 l 542 0 l 364 0 m 42 311 l 42 378 l 578 378 l 578 311 l 42 311 z "},"ù":{"ha":849,"x_min":113,"x_max":726,"o":"m 382 -14 q 248 17 310 -14 q 149 109 186 47 q 113 264 113 171 l 113 675 l 196 675 l 196 269 q 251 110 196 160 q 400 61 307 61 q 574 130 504 61 q 643 338 643 199 l 643 675 l 726 675 l 726 0 l 646 0 l 646 125 l 629 125 q 547 28 604 71 q 382 -14 490 -14 m 393 789 l 265 972 l 372 972 l 479 789 l 393 789 z "},"ú":{"ha":849,"x_min":113,"x_max":726,"o":"m 382 -14 q 248 17 310 -14 q 149 109 186 47 q 113 264 113 171 l 113 675 l 196 675 l 196 269 q 251 110 196 160 q 400 61 307 61 q 574 130 504 61 q 643 338 643 199 l 643 675 l 726 675 l 726 0 l 646 0 l 646 125 l 629 125 q 547 28 604 71 q 382 -14 490 -14 m 360 772 l 468 956 l 574 956 l 446 772 l 360 772 z "},"û":{"ha":849,"x_min":113,"x_max":726,"o":"m 382 -14 q 248 17 310 -14 q 149 109 186 47 q 113 264 113 171 l 113 675 l 196 675 l 196 269 q 251 110 196 160 q 400 61 307 61 q 574 130 504 61 q 643 338 643 199 l 643 675 l 726 675 l 726 0 l 646 0 l 646 125 l 629 125 q 547 28 604 71 q 382 -14 490 -14 m 192 772 l 367 956 l 472 956 l 647 772 l 544 772 l 428 894 l 411 894 l 294 772 l 192 772 z "},"ũ":{"ha":849,"x_min":113,"x_max":726,"o":"m 382 -14 q 248 17 310 -14 q 149 109 186 47 q 113 264 113 171 l 113 675 l 196 675 l 196 269 q 251 110 196 160 q 400 61 307 61 q 574 130 504 61 q 643 338 643 199 l 643 675 l 726 675 l 726 0 l 646 0 l 646 125 l 629 125 q 547 28 604 71 q 382 -14 490 -14 m 267 760 l 208 792 l 250 869 q 286 910 264 894 q 339 926 308 926 q 390 915 368 926 q 436 872 411 903 q 469 836 456 850 q 496 822 482 822 q 518 829 510 822 q 533 849 526 836 l 572 919 l 631 888 l 589 810 q 553 769 575 785 q 500 753 532 753 q 449 765 471 753 q 403 807 428 776 q 372 843 385 829 q 343 857 358 857 q 321 850 329 857 q 306 831 313 843 l 267 760 z "},"ü":{"ha":849,"x_min":113,"x_max":726,"o":"m 382 -14 q 248 17 310 -14 q 149 109 186 47 q 113 264 113 171 l 113 675 l 196 675 l 196 269 q 251 110 196 160 q 400 61 307 61 q 574 130 504 61 q 643 338 643 199 l 643 675 l 726 675 l 726 0 l 646 0 l 646 125 l 629 125 q 547 28 604 71 q 382 -14 490 -14 m 544 792 q 494 812 514 792 q 474 863 474 832 q 494 914 474 894 q 544 933 514 933 q 596 914 576 933 q 615 863 615 894 q 596 812 615 832 q 544 792 576 792 m 294 792 q 244 812 264 792 q 224 863 224 832 q 244 914 224 894 q 294 933 264 933 q 346 914 326 933 q 365 863 365 894 q 346 812 365 832 q 294 792 326 792 z "},"ū":{"ha":849,"x_min":113,"x_max":726,"o":"m 382 -14 q 248 17 310 -14 q 149 109 186 47 q 113 264 113 171 l 113 675 l 196 675 l 196 269 q 251 110 196 160 q 400 61 307 61 q 574 130 504 61 q 643 338 643 199 l 643 675 l 726 675 l 726 0 l 646 0 l 646 125 l 629 125 q 547 28 604 71 q 382 -14 490 -14 m 211 803 l 211 875 l 628 875 l 628 803 l 211 803 z "},"ŭ":{"ha":849,"x_min":113,"x_max":726,"o":"m 382 -14 q 248 17 310 -14 q 149 109 186 47 q 113 264 113 171 l 113 675 l 196 675 l 196 269 q 251 110 196 160 q 400 61 307 61 q 574 130 504 61 q 643 338 643 199 l 643 675 l 726 675 l 726 0 l 646 0 l 646 125 l 629 125 q 547 28 604 71 q 382 -14 490 -14 m 419 769 q 281 816 335 769 q 226 947 226 863 l 226 956 l 304 956 l 304 947 q 333 867 304 899 q 419 836 363 836 q 505 867 476 836 q 533 947 533 899 l 533 956 l 611 956 l 611 947 q 558 816 611 863 q 419 769 504 769 z "},"ů":{"ha":849,"x_min":113,"x_max":726,"o":"m 382 -14 q 248 17 310 -14 q 149 109 186 47 q 113 264 113 171 l 113 675 l 196 675 l 196 269 q 251 110 196 160 q 400 61 307 61 q 574 130 504 61 q 643 338 643 199 l 643 675 l 726 675 l 726 0 l 646 0 l 646 125 l 629 125 q 547 28 604 71 q 382 -14 490 -14 m 419 756 q 325 792 364 756 q 286 886 286 828 q 325 981 286 944 q 419 1017 364 1017 q 515 981 476 1017 q 554 886 554 944 q 515 792 554 828 q 419 756 476 756 m 419 819 q 469 838 451 819 q 488 886 488 857 q 469 934 488 915 q 419 953 451 953 q 371 934 389 953 q 353 886 353 915 q 371 838 353 857 q 419 819 389 819 z "},"ű":{"ha":849,"x_min":113,"x_max":726,"o":"m 382 -14 q 248 17 310 -14 q 149 109 186 47 q 113 264 113 171 l 113 675 l 196 675 l 196 269 q 251 110 196 160 q 400 61 307 61 q 574 130 504 61 q 643 338 643 199 l 643 675 l 726 675 l 726 0 l 646 0 l 646 125 l 629 125 q 547 28 604 71 q 382 -14 490 -14 m 451 772 l 551 956 l 650 956 l 533 772 l 451 772 m 257 772 l 343 956 l 439 956 l 338 772 l 257 772 z "},"ų":{"ha":849,"x_min":113,"x_max":786,"o":"m 382 -14 q 248 17 310 -14 q 149 109 186 47 q 113 264 113 171 l 113 675 l 196 675 l 196 269 q 251 110 196 160 q 400 61 307 61 q 574 130 504 61 q 643 338 643 199 l 643 675 l 726 675 l 726 0 l 646 0 l 646 125 l 629 125 q 547 28 604 71 q 382 -14 490 -14 m 719 -225 q 650 -202 675 -225 q 625 -136 625 -179 q 628 -97 625 -117 q 638 -56 632 -78 l 654 15 l 724 15 l 704 -90 q 701 -110 703 -103 q 699 -126 699 -117 q 729 -153 699 -153 l 786 -153 l 786 -225 l 719 -225 z "},"ŵ":{"ha":1122,"x_min":81,"x_max":1042,"o":"m 233 0 l 81 675 l 167 675 l 300 56 l 317 56 l 490 675 l 632 675 l 806 56 l 822 56 l 956 675 l 1042 675 l 889 0 l 743 0 l 569 619 l 553 619 l 379 0 l 233 0 m 333 772 l 508 956 l 614 956 l 789 772 l 686 772 l 569 894 l 553 894 l 436 772 l 333 772 z "},"ý":{"ha":849,"x_min":113,"x_max":726,"o":"m 207 -278 l 207 -203 l 601 -203 q 643 -161 643 -203 l 643 117 l 626 117 q 580 53 610 83 q 502 5 550 24 q 382 -14 454 -14 q 248 17 310 -14 q 149 108 186 47 q 113 263 113 169 l 113 675 l 196 675 l 196 268 q 251 110 196 158 q 400 61 307 61 q 574 129 504 61 q 643 336 643 197 l 643 675 l 726 675 l 726 -172 q 699 -250 726 -222 q 618 -278 672 -278 l 207 -278 m 361 772 l 469 956 l 575 956 l 447 772 l 361 772 z "},"ŷ":{"ha":849,"x_min":113,"x_max":726,"o":"m 207 -278 l 207 -203 l 601 -203 q 643 -161 643 -203 l 643 117 l 626 117 q 580 53 610 83 q 502 5 550 24 q 382 -14 454 -14 q 248 17 310 -14 q 149 108 186 47 q 113 263 113 169 l 113 675 l 196 675 l 196 268 q 251 110 196 158 q 400 61 307 61 q 574 129 504 61 q 643 336 643 197 l 643 675 l 726 675 l 726 -172 q 699 -250 726 -222 q 618 -278 672 -278 l 207 -278 m 193 772 l 368 956 l 474 956 l 649 772 l 546 772 l 429 894 l 413 894 l 296 772 l 193 772 z "},"ÿ":{"ha":849,"x_min":113,"x_max":726,"o":"m 207 -278 l 207 -203 l 601 -203 q 643 -161 643 -203 l 643 117 l 626 117 q 580 53 610 83 q 502 5 550 24 q 382 -14 454 -14 q 248 17 310 -14 q 149 108 186 47 q 113 263 113 169 l 113 675 l 196 675 l 196 268 q 251 110 196 158 q 400 61 307 61 q 574 129 504 61 q 643 336 643 197 l 643 675 l 726 675 l 726 -172 q 699 -250 726 -222 q 618 -278 672 -278 l 207 -278 m 546 792 q 495 812 515 792 q 475 863 475 832 q 495 914 475 894 q 546 933 515 933 q 597 914 578 933 q 617 863 617 894 q 597 812 617 832 q 546 792 578 792 m 296 792 q 245 812 265 792 q 225 863 225 832 q 245 914 225 894 q 296 933 265 933 q 347 914 328 933 q 367 863 367 894 q 347 812 367 832 q 296 792 328 792 z "},"ź":{"ha":725,"x_min":89,"x_max":639,"o":"m 89 0 l 89 114 l 543 586 l 543 600 l 103 600 l 103 675 l 628 675 l 628 561 l 172 89 l 172 75 l 639 75 l 639 0 l 89 0 m 292 772 l 400 956 l 506 956 l 378 772 l 292 772 z "},"ž":{"ha":725,"x_min":89,"x_max":639,"o":"m 89 0 l 89 114 l 543 586 l 543 600 l 103 600 l 103 675 l 628 675 l 628 561 l 172 89 l 172 75 l 639 75 l 639 0 l 89 0 m 299 772 l 124 956 l 226 956 l 343 833 l 360 833 l 476 956 l 579 956 l 404 772 l 299 772 z "},"ż":{"ha":725,"x_min":89,"x_max":639,"o":"m 89 0 l 89 114 l 543 586 l 543 600 l 103 600 l 103 675 l 628 675 l 628 561 l 172 89 l 172 75 l 639 75 l 639 0 l 89 0 m 351 792 q 300 813 321 792 q 279 864 279 833 q 300 916 279 896 q 351 936 321 936 q 403 916 383 936 q 424 864 424 896 q 403 813 424 833 q 351 792 383 792 z "},"þ":{"ha":894,"x_min":122,"x_max":806,"o":"m 122 -278 l 122 972 l 204 972 l 204 557 l 219 557 q 272 623 239 592 q 356 674 304 654 q 482 694 408 694 q 647 652 574 694 q 763 531 719 610 q 806 346 806 453 l 806 329 q 763 144 806 222 q 647 23 719 65 q 482 -19 574 -19 q 356 1 408 -19 q 272 52 304 21 q 219 117 239 83 l 204 117 l 204 -278 l 122 -278 m 464 56 q 650 129 579 56 q 721 332 721 203 l 721 343 q 650 546 721 472 q 464 619 579 619 q 277 546 350 619 q 204 343 204 472 l 204 332 q 277 129 204 203 q 464 56 350 56 z "},"ŋ":{"ha":850,"x_min":122,"x_max":736,"o":"m 122 0 l 122 675 l 203 675 l 203 550 l 219 550 q 301 647 244 604 q 467 689 358 689 q 601 658 540 689 q 699 566 663 628 q 736 411 736 504 l 736 0 l 653 0 l 653 406 q 597 565 653 517 q 449 614 542 614 q 275 545 344 614 q 206 338 206 476 l 206 0 l 122 0 m 458 -278 l 458 -203 l 614 -203 q 653 -161 653 -203 l 653 0 l 736 0 l 736 -178 q 710 -251 736 -225 q 639 -278 685 -278 l 458 -278 z "},"ĳ":{"ha":658,"x_min":92,"x_max":567,"o":"m 122 0 l 122 675 l 206 675 l 206 0 l 122 0 m 164 792 q 113 813 133 792 q 92 864 92 833 q 113 916 92 896 q 164 936 133 936 q 216 916 196 936 q 236 864 236 896 q 216 813 236 833 q 164 792 196 792 m 314 -278 l 314 -203 l 411 -203 q 453 -161 453 -203 l 453 675 l 536 675 l 536 -172 q 509 -250 536 -222 q 428 -278 482 -278 l 314 -278 m 494 792 q 443 813 464 792 q 422 864 422 833 q 443 916 422 896 q 494 936 464 936 q 547 916 526 936 q 567 864 567 896 q 547 813 567 833 q 494 792 526 792 z "},"":{"ha":658,"x_min":104,"x_max":649,"o":"m 122 0 l 122 675 l 206 675 l 206 0 l 122 0 m 104 772 l 213 956 l 318 956 l 190 772 l 104 772 z "},"ɑ":{"ha":922,"x_min":89,"x_max":879,"o":"m 414 -19 q 249 23 324 -19 q 132 144 175 65 q 89 329 89 222 l 89 346 q 133 532 89 454 q 250 652 176 610 q 414 694 324 694 q 587 651 525 694 q 678 551 649 607 l 694 551 l 694 675 l 775 675 l 775 114 q 814 72 775 72 l 879 72 l 879 0 l 790 0 q 720 27 746 0 q 694 101 694 54 l 694 124 l 678 124 q 587 24 649 68 q 414 -19 525 -19 m 433 56 q 620 129 549 56 q 692 332 692 203 l 692 343 q 620 546 692 472 q 433 619 549 619 q 247 546 319 619 q 175 343 175 472 l 175 332 q 247 129 175 203 q 433 56 319 56 z "},"π":{"ha":842,"x_min":89,"x_max":736,"o":"m 186 0 l 186 600 l 89 600 l 89 675 l 736 675 l 736 600 l 639 600 l 639 117 q 681 75 639 75 l 736 75 l 736 0 l 664 0 q 583 28 610 0 q 556 106 556 56 l 556 600 l 269 600 l 269 0 l 186 0 z "},"ª":{"ha":583,"x_min":58,"x_max":553,"o":"m 244 472 q 113 510 168 472 q 58 622 58 547 q 113 731 58 697 q 242 764 168 764 l 411 764 l 411 797 q 380 887 411 854 q 283 919 349 919 q 185 889 218 919 q 140 815 151 858 l 69 832 q 138 936 86 892 q 283 981 190 981 q 428 931 376 981 q 481 794 481 882 l 481 578 q 508 547 481 547 l 553 547 l 553 486 l 499 486 q 441 504 463 486 q 419 557 419 522 l 403 557 q 374 517 393 536 q 324 485 356 497 q 244 472 293 472 m 250 536 q 369 574 326 536 q 411 690 411 613 l 411 703 l 244 703 q 160 685 193 703 q 128 622 128 667 q 161 558 128 579 q 250 536 194 536 z "},"º":{"ha":608,"x_min":58,"x_max":550,"o":"m 304 472 q 126 540 194 472 q 58 726 58 607 q 126 913 58 846 q 304 981 194 981 q 483 913 415 981 q 550 726 550 846 q 483 540 550 607 q 304 472 415 472 m 304 533 q 431 586 382 533 q 479 726 479 639 q 431 867 479 814 q 304 919 382 919 q 178 867 226 919 q 129 726 129 814 q 178 586 129 639 q 304 533 226 533 z "},"†":{"ha":792,"x_min":111,"x_max":681,"o":"m 353 0 l 353 597 l 111 597 l 111 675 l 353 675 l 353 972 l 439 972 l 439 675 l 681 675 l 681 597 l 439 597 l 439 0 l 353 0 z "},"‡":{"ha":792,"x_min":111,"x_max":681,"o":"m 353 0 l 353 275 l 111 275 l 111 353 l 353 353 l 353 622 l 111 622 l 111 700 l 353 700 l 353 972 l 439 972 l 439 700 l 681 700 l 681 622 l 439 622 l 439 353 l 681 353 l 681 275 l 439 275 l 439 0 l 353 0 z "},"§":{"ha":706,"x_min":67,"x_max":625,"o":"m 365 -19 q 147 54 226 -19 q 67 256 67 128 l 67 288 l 150 288 l 150 263 q 206 111 150 167 q 367 56 263 56 q 494 98 449 56 q 539 204 539 140 q 493 301 539 269 q 346 349 447 332 q 158 418 217 371 q 100 550 100 465 q 109 610 100 583 q 140 663 118 638 q 100 783 100 714 l 100 789 q 134 898 100 853 q 224 967 168 943 q 349 992 281 992 q 542 935 467 992 q 617 768 617 878 l 617 719 l 533 719 l 533 763 q 507 849 533 815 q 439 900 481 883 q 350 917 397 917 q 233 885 282 917 q 183 788 183 854 q 238 683 183 714 q 386 632 293 651 q 563 566 500 607 q 625 442 625 525 q 588 326 625 374 q 613 272 604 300 q 622 213 622 244 l 622 203 q 558 43 622 106 q 365 -19 493 -19 m 525 379 q 537 404 532 390 q 542 436 542 418 q 493 517 542 490 q 349 561 444 543 q 267 583 304 569 q 201 610 229 596 q 183 550 183 585 q 227 469 183 497 q 381 422 271 442 q 466 403 433 413 q 525 379 499 393 z "},"¶":{"ha":781,"x_min":44,"x_max":661,"o":"m 367 0 l 367 436 l 353 436 q 193 467 263 436 q 84 556 124 497 q 44 697 44 614 l 44 711 q 84 853 44 794 q 194 942 124 911 q 353 972 264 972 l 661 972 l 661 0 l 578 0 l 578 896 l 450 896 l 450 0 l 367 0 m 354 511 l 367 511 l 367 896 l 354 896 q 184 843 240 896 q 128 708 128 790 l 128 700 q 183 565 128 619 q 354 511 239 511 z "},"©":{"ha":969,"x_min":89,"x_max":881,"o":"m 479 -17 q 274 28 363 -17 q 138 169 186 74 q 89 413 89 264 l 89 560 q 138 804 89 710 q 274 944 186 899 q 479 989 363 989 l 493 989 q 698 944 611 989 q 833 804 785 899 q 881 560 881 710 l 881 413 q 833 169 881 264 q 698 28 785 74 q 493 -17 611 -17 l 479 -17 m 481 56 l 492 56 q 720 140 638 56 q 803 414 803 225 l 803 558 q 720 832 803 747 q 492 917 638 917 l 481 917 q 251 832 333 917 q 168 558 168 747 l 168 414 q 251 140 168 225 q 481 56 333 56 m 494 172 q 342 228 399 172 q 286 396 286 285 l 286 571 q 344 744 286 686 q 492 803 401 803 q 638 745 586 803 q 689 597 689 688 l 689 568 l 607 568 l 607 606 q 581 693 607 657 q 493 729 556 729 q 404 694 440 729 q 368 590 368 660 l 368 376 q 406 280 368 313 q 493 247 444 247 q 576 278 546 247 q 607 374 607 308 l 607 404 l 689 404 l 689 375 q 640 229 689 286 q 494 172 590 172 z "},"®":{"ha":746,"x_min":82,"x_max":665,"o":"m 374 414 q 224 451 290 414 q 120 553 158 488 q 82 703 82 618 q 120 853 82 788 q 224 955 158 918 q 374 992 290 992 q 523 955 457 992 q 627 853 589 918 q 665 703 665 788 q 627 553 665 618 q 523 451 589 488 q 374 414 457 414 m 374 467 q 545 531 481 467 q 610 703 610 596 q 545 874 610 810 q 374 939 481 939 q 203 874 268 939 q 138 703 138 810 q 203 531 138 596 q 374 467 268 467 m 274 551 l 274 860 l 392 860 q 469 834 443 860 q 496 774 496 808 q 483 726 496 746 q 440 696 469 707 l 440 688 q 474 672 464 686 q 485 639 485 657 l 485 551 l 432 551 l 432 638 q 403 667 432 667 l 326 667 l 326 551 l 274 551 m 326 714 l 394 714 q 431 729 418 714 q 443 764 443 744 q 431 798 443 783 q 394 813 418 813 l 326 813 l 326 714 z "},"™":{"ha":794,"x_min":58,"x_max":719,"o":"m 364 664 l 364 972 l 463 972 l 538 713 l 546 713 l 621 972 l 719 972 l 719 664 l 667 664 l 667 925 l 658 925 l 582 664 l 501 664 l 425 925 l 417 925 l 417 664 l 364 664 m 164 664 l 164 925 l 58 925 l 58 972 l 322 972 l 322 925 l 217 925 l 217 664 l 164 664 z "},"℠":{"ha":786,"x_min":69,"x_max":711,"o":"m 356 664 l 356 972 l 454 972 l 529 713 l 538 713 l 613 972 l 711 972 l 711 664 l 658 664 l 658 925 l 650 925 l 574 664 l 493 664 l 417 925 l 408 925 l 408 664 l 356 664 m 189 658 q 102 686 135 658 q 69 764 69 714 l 69 776 l 121 776 l 121 764 q 139 720 121 736 q 189 704 157 704 q 235 717 221 704 q 250 750 250 731 q 234 781 250 771 q 186 797 218 792 l 172 800 q 102 828 128 810 q 76 890 76 847 q 105 956 76 933 q 183 978 133 978 q 263 953 232 978 q 294 879 294 929 l 294 865 l 243 865 l 243 879 q 183 932 243 932 q 129 892 129 932 q 186 846 129 857 l 200 843 q 274 817 244 835 q 303 753 303 799 q 272 684 303 710 q 189 658 242 658 z "},"#":{"ha":868,"x_min":61,"x_max":807,"o":"m 247 0 l 247 294 l 61 294 l 61 367 l 247 367 l 247 606 l 61 606 l 61 678 l 247 678 l 247 972 l 325 972 l 325 678 l 542 678 l 542 972 l 619 972 l 619 678 l 807 678 l 807 606 l 619 606 l 619 367 l 807 367 l 807 294 l 619 294 l 619 0 l 542 0 l 542 294 l 325 294 l 325 0 l 247 0 m 325 367 l 542 367 l 542 606 l 325 606 l 325 367 z "},"¤":{"ha":861,"x_min":78,"x_max":785,"o":"m 136 133 l 78 192 l 158 272 q 102 372 121 317 q 83 486 83 426 q 102 602 83 547 q 158 700 121 657 l 78 782 l 136 840 l 217 758 q 316 813 261 793 q 431 833 371 833 q 547 813 492 833 q 644 758 601 793 l 726 840 l 785 782 l 703 700 q 758 602 738 657 q 778 486 778 547 q 758 372 778 426 q 703 272 738 317 l 785 192 l 726 133 l 644 214 q 547 158 601 176 q 431 139 492 139 q 316 158 371 139 q 217 214 261 176 l 136 133 m 431 217 q 566 251 506 217 q 661 347 626 286 q 696 486 696 407 q 660 627 696 567 q 565 722 625 688 q 431 757 506 757 q 296 722 356 757 q 201 626 236 688 q 165 486 165 565 q 201 346 165 407 q 297 251 236 285 q 431 217 357 217 z "},"$":{"ha":856,"x_min":75,"x_max":778,"o":"m 438 -19 q 251 17 333 -19 q 122 130 169 54 q 75 322 75 206 l 75 349 l 164 349 l 164 322 q 241 123 164 188 q 438 58 318 58 q 624 115 558 58 q 689 258 689 171 q 660 352 689 317 q 581 409 632 388 q 464 447 531 431 l 375 469 q 233 522 296 490 q 135 603 171 553 q 99 733 99 654 q 140 871 99 813 q 253 960 181 929 q 421 992 325 992 q 594 958 517 992 q 716 860 671 925 q 761 699 761 796 l 761 633 l 672 633 l 672 699 q 639 822 672 775 q 549 892 606 869 q 421 914 492 914 q 253 867 319 914 q 188 733 188 821 q 215 640 188 675 q 291 585 242 606 q 407 547 340 564 l 496 525 q 636 477 572 507 q 739 395 700 447 q 778 258 778 343 q 735 111 778 174 q 617 15 693 49 q 438 -19 540 -19 m 397 -161 l 397 1133 l 481 1133 l 481 -161 l 397 -161 z "},"£":{"ha":867,"x_min":86,"x_max":771,"o":"m 86 0 l 86 78 l 189 78 l 189 440 l 92 440 l 92 513 l 189 513 l 189 696 q 266 917 189 842 q 476 992 343 992 q 687 917 610 992 q 764 696 764 842 l 764 614 l 678 614 l 678 693 q 626 855 678 796 q 476 914 575 914 q 327 855 379 914 q 275 693 275 796 l 275 513 l 463 513 l 463 440 l 275 440 l 275 78 l 771 78 l 771 0 l 86 0 z "},"¥":{"ha":861,"x_min":33,"x_max":828,"o":"m 386 0 l 386 406 l 368 414 l 33 972 l 139 972 l 422 486 l 439 486 l 722 972 l 828 972 l 493 414 l 475 406 l 475 0 l 386 0 m 161 236 l 161 308 l 700 308 l 700 236 l 161 236 m 161 392 l 161 464 l 700 464 l 700 392 l 161 392 z "},"¢":{"ha":832,"x_min":89,"x_max":754,"o":"m 431 -19 q 255 23 332 -19 q 133 144 178 65 q 89 331 89 224 l 89 344 q 133 531 89 453 q 255 652 178 610 q 431 694 332 694 q 595 658 528 694 q 701 562 663 621 q 749 438 739 503 l 667 421 q 632 520 660 475 q 554 592 604 565 q 431 619 504 619 q 299 585 357 619 q 206 490 240 551 q 172 343 172 428 l 172 332 q 206 185 172 247 q 299 90 240 124 q 431 56 357 56 q 600 113 542 56 q 672 254 658 171 l 754 238 q 702 113 742 172 q 595 17 663 54 q 431 -19 528 -19 m 393 -161 l 393 850 l 474 850 l 474 -161 l 393 -161 z "},"⁄":{"ha":911,"x_min":38,"x_max":874,"o":"m 92 -17 l 38 26 l 819 989 l 874 946 l 92 -17 z "},"%":{"ha":1081,"x_min":53,"x_max":1028,"o":"m 179 -19 l 118 29 l 901 992 l 963 943 l 179 -19 m 808 -19 q 649 41 710 -19 q 589 203 589 101 l 589 211 q 649 374 589 314 q 808 433 710 433 q 967 374 907 433 q 1028 211 1028 314 l 1028 203 q 967 41 1028 101 q 808 -19 907 -19 m 808 47 q 914 90 875 47 q 953 200 953 132 l 953 214 q 914 325 953 283 q 808 367 875 367 q 703 325 742 367 q 664 214 664 283 l 664 200 q 703 90 664 132 q 808 47 742 47 m 272 539 q 113 599 174 539 q 53 761 53 660 l 53 769 q 113 932 53 872 q 272 992 174 992 q 431 932 371 992 q 492 769 492 872 l 492 761 q 431 599 492 660 q 272 539 371 539 m 272 606 q 378 648 339 606 q 417 758 417 690 l 417 772 q 378 883 417 842 q 272 925 339 925 q 167 883 206 925 q 128 772 128 842 l 128 758 q 167 648 128 690 q 272 606 206 606 z "},"‰":{"ha":1382,"x_min":53,"x_max":1329,"o":"m 179 -19 l 118 29 l 901 992 l 963 943 l 179 -19 m 788 -19 q 644 40 699 -19 q 589 201 589 100 l 589 213 q 644 374 589 315 q 788 433 699 433 q 928 374 878 433 q 978 213 978 314 l 978 204 q 928 42 978 103 q 788 -19 878 -19 m 793 49 q 888 92 854 49 q 922 204 922 136 l 922 215 q 888 325 922 285 q 793 365 854 365 q 699 325 733 365 q 664 215 664 285 l 664 199 q 699 90 664 131 q 793 49 733 49 m 272 539 q 113 599 174 539 q 53 761 53 660 l 53 769 q 113 932 53 872 q 272 992 174 992 q 431 932 371 992 q 492 769 492 872 l 492 761 q 431 599 492 660 q 272 539 371 539 m 272 606 q 378 648 339 606 q 417 758 417 690 l 417 772 q 378 883 417 842 q 272 925 339 925 q 167 883 206 925 q 128 772 128 842 l 128 758 q 167 648 128 690 q 272 606 206 606 m 950 78 l 950 339 l 968 339 l 968 78 l 950 78 m 1125 49 q 1220 90 1186 49 q 1254 199 1254 131 l 1254 215 q 1220 325 1254 285 q 1125 365 1186 365 q 1031 325 1065 365 q 996 215 996 285 l 996 204 q 1031 92 996 136 q 1125 49 1065 49 m 1131 -19 q 991 42 1042 -19 q 940 204 940 103 l 940 213 q 991 374 940 314 q 1131 433 1042 433 q 1275 374 1221 433 q 1329 213 1329 315 l 1329 201 q 1275 40 1329 100 q 1131 -19 1221 -19 z "},"¼":{"ha":1124,"x_min":28,"x_max":1099,"o":"m 143 -17 l 89 26 l 871 989 l 925 946 l 143 -17 m 914 0 l 914 122 l 607 122 l 607 197 l 865 486 l 983 486 l 983 183 l 1099 183 l 1099 122 l 983 122 l 983 0 l 914 0 m 693 183 l 914 183 l 914 426 l 897 426 l 693 197 l 693 183 z "},"½":{"ha":1143,"x_min":28,"x_max":1099,"o":"m 143 -17 l 89 26 l 871 989 l 925 946 l 143 -17 m 672 0 l 672 35 q 721 154 672 107 q 868 224 769 201 q 990 269 950 243 q 1029 343 1029 296 q 992 416 1029 388 q 894 444 956 444 q 790 415 831 444 q 744 322 750 385 l 675 325 q 743 461 683 417 q 894 506 803 506 q 1042 462 986 506 q 1099 343 1099 418 q 1051 229 1099 267 q 917 172 1003 192 q 793 129 833 153 q 746 61 753 106 l 1096 61 l 1096 0 l 672 0 z "},"¾":{"ha":1244,"x_min":42,"x_max":1219,"o":"m 264 -17 l 210 26 l 992 989 l 1046 946 l 264 -17 m 1035 0 l 1035 122 l 728 122 l 728 197 l 986 486 l 1104 486 l 1104 183 l 1219 183 l 1219 122 l 1104 122 l 1104 0 l 1035 0 m 814 183 l 1035 183 l 1035 426 l 1018 426 l 814 197 l 814 183 z "},"⅓":{"ha":1190,"x_min":28,"x_max":1138,"o":"m 143 -17 l 89 26 l 871 989 l 925 946 l 143 -17 m 924 -19 q 771 26 835 -19 q 701 157 707 71 l 771 163 q 819 72 775 103 q 924 42 863 42 q 1028 70 988 42 q 1068 146 1068 99 q 1030 222 1068 199 q 921 244 992 244 l 839 244 l 839 314 l 1028 411 l 1028 425 l 713 425 l 713 486 l 1136 486 l 1136 407 l 946 310 l 946 296 q 1087 259 1036 294 q 1138 146 1138 224 q 1110 59 1138 96 q 1033 1 1082 22 q 924 -19 985 -19 z "},"⅔":{"ha":1336,"x_min":39,"x_max":1283,"o":"m 289 -17 l 235 26 l 1017 989 l 1071 946 l 289 -17 m 1069 -19 q 917 26 981 -19 q 847 157 853 71 l 917 163 q 965 72 921 103 q 1069 42 1008 42 q 1174 70 1133 42 q 1214 146 1214 99 q 1176 222 1214 199 q 1067 244 1138 244 l 985 244 l 985 314 l 1174 411 l 1174 425 l 858 425 l 858 486 l 1282 486 l 1282 407 l 1092 310 l 1092 296 q 1233 259 1182 294 q 1283 146 1283 224 q 1256 59 1283 96 q 1179 1 1228 22 q 1069 -19 1131 -19 z "},"⅛":{"ha":1175,"x_min":28,"x_max":1119,"o":"m 143 -17 l 89 26 l 871 989 l 925 946 l 143 -17 m 900 -19 q 738 21 796 -19 q 681 125 681 61 q 697 187 681 164 q 736 223 713 210 q 781 240 760 236 l 781 257 q 720 290 751 264 q 689 368 689 317 q 747 469 689 432 q 900 506 806 506 q 1053 469 994 506 q 1111 368 1111 432 q 1080 290 1111 317 q 1019 257 1049 264 l 1019 240 q 1065 223 1042 236 q 1103 187 1088 210 q 1119 125 1119 164 q 1062 21 1119 61 q 900 -19 1004 -19 m 900 42 q 1010 64 969 42 q 1050 129 1050 86 q 1010 195 1050 174 q 900 217 969 217 q 790 195 831 217 q 750 129 750 174 q 790 64 750 86 q 900 42 831 42 m 900 278 q 1003 300 965 278 q 1042 361 1042 322 q 1003 423 1042 401 q 900 444 965 444 q 797 423 835 444 q 758 361 758 401 q 797 300 758 322 q 900 278 835 278 z "},"⅜":{"ha":1296,"x_min":42,"x_max":1240,"o":"m 264 -17 l 210 26 l 992 989 l 1046 946 l 264 -17 m 1021 -19 q 859 21 917 -19 q 801 125 801 61 q 817 187 801 164 q 857 223 833 210 q 901 240 881 236 l 901 257 q 841 290 872 264 q 810 368 810 317 q 868 469 810 432 q 1021 506 926 506 q 1174 469 1115 506 q 1232 368 1232 432 q 1201 290 1232 317 q 1140 257 1169 264 l 1140 240 q 1185 223 1163 236 q 1224 187 1208 210 q 1240 125 1240 164 q 1183 21 1240 61 q 1021 -19 1125 -19 m 1021 42 q 1131 64 1090 42 q 1171 129 1171 86 q 1131 195 1171 174 q 1021 217 1090 217 q 911 195 951 217 q 871 129 871 174 q 911 64 871 86 q 1021 42 951 42 m 1021 278 q 1124 300 1086 278 q 1163 361 1163 322 q 1124 423 1163 401 q 1021 444 1086 444 q 917 423 956 444 q 879 361 879 401 q 917 300 879 322 q 1021 278 956 278 z "},"⅝":{"ha":1288,"x_min":50,"x_max":1232,"o":"m 256 -17 l 201 26 l 983 989 l 1038 946 l 256 -17 m 1013 -19 q 851 21 908 -19 q 793 125 793 61 q 809 187 793 164 q 849 223 825 210 q 893 240 872 236 l 893 257 q 833 290 864 264 q 801 368 801 317 q 860 469 801 432 q 1013 506 918 506 q 1165 469 1107 506 q 1224 368 1224 432 q 1192 290 1224 317 q 1132 257 1161 264 l 1132 240 q 1177 223 1154 236 q 1216 187 1200 210 q 1232 125 1232 164 q 1174 21 1232 61 q 1013 -19 1117 -19 m 1013 42 q 1122 64 1082 42 q 1163 129 1163 86 q 1122 195 1163 174 q 1013 217 1082 217 q 903 195 943 217 q 863 129 863 174 q 903 64 863 86 q 1013 42 943 42 m 1013 278 q 1116 300 1078 278 q 1154 361 1154 322 q 1116 423 1154 401 q 1013 444 1078 444 q 909 423 947 444 q 871 361 871 401 q 909 300 871 322 q 1013 278 947 278 z "},"⅞":{"ha":1182,"x_min":22,"x_max":1126,"o":"m 150 -17 l 96 26 l 878 989 l 932 946 l 150 -17 m 907 -19 q 745 21 803 -19 q 688 125 688 61 q 703 187 688 164 q 743 223 719 210 q 788 240 767 236 l 788 257 q 727 290 758 264 q 696 368 696 317 q 754 469 696 432 q 907 506 813 506 q 1060 469 1001 506 q 1118 368 1118 432 q 1087 290 1118 317 q 1026 257 1056 264 l 1026 240 q 1072 223 1049 236 q 1110 187 1094 210 q 1126 125 1126 164 q 1069 21 1126 61 q 907 -19 1011 -19 m 907 42 q 1017 64 976 42 q 1057 129 1057 86 q 1017 195 1057 174 q 907 217 976 217 q 797 195 838 217 q 757 129 757 174 q 797 64 757 86 q 907 42 838 42 m 907 278 q 1010 300 972 278 q 1049 361 1049 322 q 1010 423 1049 401 q 907 444 972 444 q 803 423 842 444 q 765 361 765 401 q 803 300 765 322 q 907 278 842 278 z "},"+":{"ha":861,"x_min":139,"x_max":722,"o":"m 390 194 l 390 447 l 139 447 l 139 525 l 390 525 l 390 778 l 471 778 l 471 525 l 722 525 l 722 447 l 471 447 l 471 194 l 390 194 z "},"−":{"ha":861,"x_min":139,"x_max":722,"o":"m 139 447 l 139 525 l 722 525 l 722 447 l 139 447 z "},"×":{"ha":861,"x_min":164,"x_max":697,"o":"m 219 218 l 164 274 l 376 486 l 164 699 l 219 754 l 431 542 l 642 754 l 697 699 l 485 486 l 697 274 l 642 218 l 431 432 l 219 218 z "},"÷":{"ha":861,"x_min":139,"x_max":722,"o":"m 139 447 l 139 525 l 722 525 l 722 447 l 139 447 m 431 193 q 374 215 396 193 q 351 272 351 238 q 374 329 351 307 q 431 351 396 351 q 488 329 465 351 q 510 272 510 307 q 488 215 510 238 q 431 193 465 193 m 431 621 q 374 643 396 621 q 351 700 351 665 q 374 757 351 735 q 431 779 396 779 q 488 757 465 779 q 510 700 510 735 q 488 643 510 665 q 431 621 465 621 z "},"=":{"ha":861,"x_min":139,"x_max":722,"o":"m 139 544 l 139 622 l 722 622 l 722 544 l 139 544 m 139 350 l 139 428 l 722 428 l 722 350 l 139 350 z "},"<":{"ha":861,"x_min":139,"x_max":722,"o":"m 722 181 l 139 431 l 139 542 l 722 792 l 722 694 l 228 493 l 228 479 l 722 278 l 722 181 z "},">":{"ha":861,"x_min":139,"x_max":722,"o":"m 139 181 l 139 278 l 635 479 l 635 493 l 139 694 l 139 792 l 722 542 l 722 431 l 139 181 z "},"≤":{"ha":861,"x_min":138,"x_max":724,"o":"m 722 181 l 139 431 l 139 542 l 722 792 l 722 694 l 228 493 l 228 479 l 722 278 l 722 181 m 138 0 l 138 78 l 724 78 l 724 0 l 138 0 z "},"≥":{"ha":861,"x_min":138,"x_max":724,"o":"m 139 181 l 139 278 l 635 479 l 635 493 l 139 694 l 139 792 l 722 542 l 722 431 l 139 181 m 138 0 l 138 78 l 724 78 l 724 0 l 138 0 z "},"±":{"ha":861,"x_min":139,"x_max":722,"o":"m 390 197 l 390 447 l 139 447 l 139 525 l 390 525 l 390 775 l 471 775 l 471 525 l 722 525 l 722 447 l 471 447 l 471 197 l 390 197 m 139 0 l 139 78 l 722 78 l 722 0 l 139 0 z "},"^":{"ha":861,"x_min":104,"x_max":757,"o":"m 104 589 l 363 972 l 499 972 l 757 589 l 651 589 l 438 911 l 424 911 l 211 589 l 104 589 z "},"≠":{"ha":861,"x_min":139,"x_max":722,"o":"m 368 186 l 294 213 l 494 785 l 567 760 l 368 186 m 139 350 l 139 428 l 722 428 l 722 350 l 139 350 m 139 544 l 139 622 l 722 622 l 722 544 l 139 544 z "},"~":{"ha":861,"x_min":139,"x_max":722,"o":"m 190 392 l 139 450 l 253 543 q 300 578 276 563 q 356 593 324 593 q 417 571 396 593 q 461 513 439 549 q 485 477 475 490 q 514 464 496 464 q 538 469 528 464 q 557 485 547 475 l 671 581 l 722 522 l 608 429 q 562 395 586 411 q 506 379 538 379 q 444 401 465 379 q 400 460 422 424 q 376 495 386 482 q 347 508 367 508 q 324 503 333 508 q 304 488 315 497 l 190 392 z "},"≈":{"ha":861,"x_min":139,"x_max":722,"o":"m 190 503 l 139 561 l 253 654 q 300 689 276 674 q 356 704 324 704 q 417 682 396 704 q 461 624 439 660 q 485 588 475 601 q 514 575 496 575 q 538 581 528 575 q 557 596 547 586 l 671 692 l 722 633 l 608 540 q 562 506 586 522 q 506 490 538 490 q 444 513 465 490 q 400 571 422 535 q 376 606 386 593 q 347 619 367 619 q 324 614 333 619 q 304 599 315 608 l 190 503 m 190 281 l 139 339 l 253 432 q 300 467 276 451 q 356 482 324 482 q 418 460 396 482 q 464 397 440 438 q 485 366 475 379 q 514 353 496 353 q 538 358 528 353 q 557 374 547 364 l 671 469 l 722 411 l 608 318 q 562 284 586 300 q 506 268 538 268 q 444 290 465 268 q 400 349 422 313 q 376 384 386 371 q 347 397 367 397 q 324 392 333 397 q 304 376 315 386 l 190 281 z "},"¬":{"ha":861,"x_min":142,"x_max":719,"o":"m 644 329 l 644 447 l 142 447 l 142 525 l 719 525 l 719 329 l 644 329 z "},"∞":{"ha":861,"x_min":89,"x_max":772,"o":"m 276 294 q 180 319 222 294 q 113 386 138 343 q 89 486 89 429 q 113 586 89 543 q 180 653 138 629 q 276 678 222 678 q 372 653 333 678 q 424 590 410 629 l 438 590 q 491 653 453 629 q 585 678 529 678 q 681 653 639 678 q 748 586 724 629 q 772 486 772 543 q 748 386 772 429 q 681 319 724 343 q 585 294 639 294 q 491 319 529 294 q 438 382 453 343 l 424 382 q 372 319 410 343 q 276 294 333 294 m 281 369 q 361 402 331 369 q 392 486 392 435 q 361 571 392 539 q 281 603 331 603 q 200 571 231 603 q 169 486 169 539 q 200 402 169 435 q 281 369 231 369 m 581 369 q 661 402 631 369 q 692 486 692 435 q 661 571 692 539 q 581 603 631 603 q 500 571 531 603 q 469 486 469 539 q 500 402 469 435 q 581 369 531 369 z "},"°":{"ha":522,"x_min":53,"x_max":469,"o":"m 261 575 q 156 601 203 575 q 81 675 108 628 q 53 783 53 722 q 81 892 53 844 q 156 965 108 939 q 261 992 203 992 q 367 965 321 992 q 442 892 414 939 q 469 783 469 844 q 442 675 469 722 q 367 601 414 628 q 261 575 321 575 m 261 650 q 356 687 319 650 q 392 783 392 724 q 356 881 392 844 q 261 917 319 917 q 167 881 203 917 q 131 783 131 844 q 167 687 131 724 q 261 650 203 650 z "},"∂":{"ha":861,"x_min":90,"x_max":771,"o":"m 433 -19 q 255 26 332 -19 q 134 150 178 71 q 90 329 90 229 l 90 346 q 132 525 90 446 q 249 649 174 604 q 424 694 324 694 q 556 666 499 694 q 636 597 613 638 l 650 597 q 567 751 631 686 q 417 854 504 815 q 238 903 331 893 l 253 985 q 638 785 506 947 q 771 367 771 624 q 731 165 771 251 q 616 29 692 78 q 433 -19 540 -19 m 432 56 q 571 95 514 56 q 658 201 628 135 q 688 346 688 267 q 654 485 688 424 q 563 583 621 547 q 432 619 506 619 q 299 583 357 619 q 207 484 240 546 q 174 347 174 422 l 174 328 q 207 188 174 250 q 299 91 240 126 q 432 56 357 56 z "},"◊":{"ha":861,"x_min":94,"x_max":767,"o":"m 367 0 l 94 486 l 367 972 l 494 972 l 767 486 l 494 0 l 367 0 m 424 64 l 438 64 l 674 486 l 438 910 l 424 910 l 188 486 l 424 64 z "},"∫":{"ha":861,"x_min":206,"x_max":656,"o":"m 206 -278 l 206 -200 l 351 -200 q 389 -158 389 -200 l 389 876 q 415 946 389 919 q 483 972 442 972 l 656 972 l 656 894 l 510 894 q 472 853 472 894 l 472 -182 q 446 -251 472 -225 q 378 -278 419 -278 l 206 -278 z "},"√":{"ha":861,"x_min":75,"x_max":806,"o":"m 328 0 l 207 444 l 75 444 l 75 522 l 269 522 l 397 51 l 411 51 l 719 1189 l 806 1189 l 481 0 l 328 0 z "},"∑":{"ha":861,"x_min":75,"x_max":769,"o":"m 75 -278 l 75 -161 l 451 347 l 75 856 l 75 972 l 769 972 l 769 894 l 160 894 l 160 881 l 554 347 l 160 -186 l 160 -200 l 769 -200 l 769 -278 l 75 -278 z "},"∏":{"ha":861,"x_min":100,"x_max":739,"o":"m 100 -278 l 100 972 l 739 972 l 739 -278 l 656 -278 l 656 894 l 183 894 l 183 -278 l 100 -278 z "},"Ω":{"ha":861,"x_min":81,"x_max":781,"o":"m 81 0 l 81 75 l 232 75 l 232 89 q 135 188 174 122 q 97 364 97 254 l 97 606 q 134 810 97 724 q 244 944 171 897 q 431 992 318 992 q 617 944 543 992 q 727 810 690 897 q 764 606 764 724 l 764 364 q 726 188 764 254 q 631 89 689 122 l 631 75 l 781 75 l 781 0 l 492 0 l 492 81 q 603 142 563 101 q 663 239 644 182 q 681 367 681 296 l 681 603 q 617 831 681 747 q 431 914 554 914 q 244 831 308 914 q 181 603 181 747 l 181 367 q 199 239 181 296 q 258 142 217 182 q 369 81 300 101 l 369 0 l 81 0 z "},"Δ":{"ha":861,"x_min":39,"x_max":822,"o":"m 39 0 l 365 972 l 496 972 l 822 0 l 39 0 m 150 75 l 711 75 l 438 893 l 424 893 l 150 75 z "},"`":{"ha":381,"x_min":83,"x_max":297,"o":"m 211 789 l 83 972 l 190 972 l 297 789 l 211 789 z "},"´":{"ha":381,"x_min":83,"x_max":297,"o":"m 83 772 l 192 956 l 297 956 l 169 772 l 83 772 z "},"ˆ":{"ha":622,"x_min":83,"x_max":539,"o":"m 83 772 l 258 956 l 364 956 l 539 772 l 436 772 l 319 894 l 303 894 l 186 772 l 83 772 z "},"ˇ":{"ha":622,"x_min":83,"x_max":539,"o":"m 258 772 l 83 956 l 186 956 l 303 833 l 319 833 l 436 956 l 539 956 l 364 772 l 258 772 z "},"˜":{"ha":589,"x_min":83,"x_max":506,"o":"m 142 760 l 83 792 l 125 869 q 161 910 139 894 q 214 926 183 926 q 265 915 243 926 q 311 872 286 903 q 344 836 331 850 q 371 822 357 822 q 393 829 385 822 q 408 849 401 836 l 447 919 l 506 888 l 464 810 q 428 769 450 785 q 375 753 407 753 q 324 765 346 753 q 278 807 303 776 q 247 843 260 829 q 218 857 233 857 q 196 850 204 857 q 181 831 188 843 l 142 760 z "},"¨":{"ha":558,"x_min":83,"x_max":475,"o":"m 404 792 q 353 812 374 792 q 333 863 333 832 q 353 914 333 894 q 404 933 374 933 q 456 914 436 933 q 475 863 475 894 q 456 812 475 832 q 404 792 436 792 m 154 792 q 103 812 124 792 q 83 863 83 832 q 103 914 83 894 q 154 933 124 933 q 206 914 186 933 q 225 863 225 894 q 206 812 225 832 q 154 792 186 792 z "},"¯":{"ha":583,"x_min":83,"x_max":500,"o":"m 83 803 l 83 875 l 500 875 l 500 803 l 83 803 z "},"˘":{"ha":551,"x_min":83,"x_max":468,"o":"m 276 769 q 138 816 192 769 q 83 947 83 863 l 83 956 l 161 956 l 161 947 q 190 867 161 899 q 276 836 219 836 q 362 867 333 836 q 390 947 390 899 l 390 956 l 468 956 l 468 947 q 415 816 468 863 q 276 769 361 769 z "},"˚":{"ha":435,"x_min":83,"x_max":351,"o":"m 217 756 q 122 792 161 756 q 83 886 83 828 q 122 981 83 944 q 217 1017 161 1017 q 313 981 274 1017 q 351 886 351 944 q 313 792 351 828 q 217 756 274 756 m 217 819 q 267 838 249 819 q 285 886 285 857 q 267 934 285 915 q 217 953 249 953 q 168 934 186 953 q 150 886 150 915 q 168 838 150 857 q 217 819 186 819 z "},"˝":{"ha":560,"x_min":83,"x_max":476,"o":"m 278 772 l 378 956 l 476 956 l 360 772 l 278 772 m 83 772 l 169 956 l 265 956 l 164 772 l 83 772 z "},"˙":{"ha":311,"x_min":83,"x_max":228,"o":"m 156 792 q 104 813 125 792 q 83 864 83 833 q 104 916 83 896 q 156 936 125 936 q 208 916 188 936 q 228 864 228 896 q 208 813 228 833 q 156 792 188 792 z "},"¸":{"ha":446,"x_min":83,"x_max":363,"o":"m 224 -281 q 147 -267 182 -281 q 83 -233 111 -254 l 119 -178 q 167 -206 142 -194 q 224 -217 193 -217 q 273 -205 253 -217 q 293 -167 293 -193 q 274 -131 293 -143 q 224 -118 256 -118 l 174 -118 l 189 31 l 254 31 l 244 -67 q 331 -94 299 -67 q 363 -172 363 -121 q 344 -233 363 -208 q 294 -269 325 -257 q 224 -281 263 -281 z "},"˛":{"ha":328,"x_min":83,"x_max":244,"o":"m 178 -225 q 108 -202 133 -225 q 83 -136 83 -179 q 87 -97 83 -117 q 96 -56 90 -78 l 113 15 l 182 15 l 163 -90 q 159 -110 161 -103 q 157 -126 157 -117 q 188 -153 157 -153 l 244 -153 l 244 -225 l 178 -225 z "},"ﬁ":{"ha":914,"x_min":42,"x_max":822,"o":"m 264 0 l 264 600 l 42 600 l 42 675 l 264 675 l 264 867 q 291 944 264 917 q 372 972 318 972 l 539 972 l 539 897 l 389 897 q 347 856 347 897 l 347 675 l 708 675 l 708 600 l 347 600 l 347 0 l 264 0 m 708 0 l 708 675 l 792 675 l 792 0 l 708 0 m 750 792 q 699 813 719 792 q 678 864 678 833 q 699 916 678 896 q 750 936 719 936 q 802 916 782 936 q 822 864 822 896 q 802 813 822 833 q 750 792 782 792 z "},"ﬂ":{"ha":914,"x_min":42,"x_max":792,"o":"m 264 0 l 264 600 l 42 600 l 42 675 l 264 675 l 264 867 q 291 944 264 917 q 372 972 318 972 l 539 972 l 539 897 l 389 897 q 347 856 347 897 l 347 675 l 575 675 l 575 600 l 347 600 l 347 0 l 264 0 m 708 0 l 708 972 l 792 972 l 792 0 l 708 0 z "},"ƒ":{"ha":861,"x_min":151,"x_max":701,"o":"m 151 0 l 151 75 l 346 75 q 383 117 383 75 l 383 524 l 199 524 l 199 596 l 383 596 l 383 876 q 409 946 383 919 q 476 972 435 972 l 701 972 l 701 897 l 504 897 q 467 856 467 897 l 467 596 l 661 596 l 661 524 l 467 524 l 467 96 q 441 26 467 53 q 372 0 415 0 l 151 0 z "},"́":{"ha":0,"x_min":83,"x_max":297,"o":"m 83 772 l 192 956 l 297 956 l 169 772 l 83 772 z "},"¹":{"ha":342,"x_min":28,"x_max":269,"o":"m 200 486 l 200 886 l 183 886 l 104 756 l 28 756 l 163 972 l 269 972 l 269 486 l 200 486 z "},"²":{"ha":510,"x_min":39,"x_max":465,"o":"m 39 486 l 39 521 q 88 640 39 593 q 235 710 136 688 q 356 756 317 729 q 396 829 396 782 q 359 902 396 874 q 261 931 322 931 q 157 901 197 931 q 111 808 117 871 l 42 811 q 110 947 50 903 q 261 992 169 992 q 409 948 353 992 q 465 829 465 904 q 417 715 465 753 q 283 658 369 678 q 160 615 200 639 q 113 547 119 592 l 463 547 l 463 486 l 39 486 z "},"³":{"ha":531,"x_min":42,"x_max":478,"o":"m 264 467 q 111 512 175 467 q 42 643 47 557 l 111 649 q 159 558 115 589 q 264 528 203 528 q 368 556 328 528 q 408 632 408 585 q 370 708 408 685 q 261 731 332 731 l 179 731 l 179 800 l 368 897 l 368 911 l 53 911 l 53 972 l 476 972 l 476 893 l 286 796 l 286 782 q 427 745 376 781 q 478 632 478 710 q 450 545 478 582 q 374 488 422 508 q 264 467 325 467 z "},"ⁱ":{"ha":294,"x_min":86,"x_max":208,"o":"m 113 486 l 113 972 l 182 972 l 182 486 l 113 486 m 147 1058 q 103 1075 121 1058 q 86 1117 86 1092 q 103 1158 86 1142 q 147 1175 121 1175 q 191 1158 174 1175 q 208 1117 208 1142 q 191 1075 208 1092 q 147 1058 174 1058 z "},"ⁿ":{"ha":619,"x_min":86,"x_max":539,"o":"m 86 486 l 86 972 l 153 972 l 153 897 l 169 897 q 228 958 190 932 q 335 983 267 983 q 480 932 421 983 q 539 775 539 881 l 539 486 l 469 486 l 469 768 q 321 925 469 925 q 203 878 251 925 q 156 740 156 831 l 156 486 l 86 486 z "},"ₔ":{"ha":588,"x_min":58,"x_max":529,"o":"m 293 -292 q 122 -224 185 -292 q 58 -51 58 -157 l 58 -15 l 458 -15 q 415 112 458 63 q 293 161 372 161 q 188 132 222 161 q 135 60 153 103 l 75 89 q 149 180 96 138 q 297 222 201 222 q 421 190 369 222 q 501 99 472 157 q 529 -32 529 42 l 529 -43 q 465 -222 529 -153 q 293 -292 401 -292 m 294 -231 q 412 -188 371 -231 q 458 -76 453 -146 l 132 -76 q 176 -188 133 -146 q 294 -231 219 -231 z "},"Ǽ":{"ha":1160,"x_min":39,"x_max":1085,"o":"m 547 0 l 547 972 l 1079 972 l 1079 892 l 636 892 l 636 528 l 1040 528 l 1040 447 l 636 447 l 636 81 l 1085 81 l 1085 0 l 547 0 m 39 0 l 464 972 l 547 972 l 547 919 l 532 919 l 282 339 l 547 339 l 547 258 l 247 258 l 136 0 l 39 0 m 532 1053 l 624 1217 l 732 1217 l 618 1053 l 532 1053 z "},"Ắ":{"ha":872,"x_min":39,"x_max":833,"o":"m 39 0 l 357 972 l 515 972 l 833 0 l 740 0 l 657 258 l 215 258 l 132 0 l 39 0 m 240 339 l 632 339 l 444 919 l 428 919 l 240 339 z "},"Ặ":{"ha":872,"x_min":39,"x_max":833,"o":"m 39 0 l 357 972 l 515 972 l 833 0 l 740 0 l 657 258 l 215 258 l 132 0 l 39 0 m 240 339 l 632 339 l 444 919 l 428 919 l 240 339 m 436 -261 q 385 -240 406 -261 q 364 -189 364 -219 q 385 -137 364 -157 q 436 -117 406 -117 q 488 -137 468 -117 q 508 -189 508 -157 q 488 -240 508 -219 q 436 -261 468 -261 m 436 1044 q 290 1092 342 1044 q 238 1215 238 1140 l 238 1219 l 315 1219 l 315 1215 q 346 1140 315 1168 q 436 1111 376 1111 q 528 1140 497 1111 q 558 1215 558 1168 l 558 1219 l 636 1219 l 636 1215 q 583 1092 636 1140 q 436 1044 531 1044 z "},"Ằ":{"ha":872,"x_min":39,"x_max":833,"o":"m 39 0 l 357 972 l 515 972 l 833 0 l 740 0 l 657 258 l 215 258 l 132 0 l 39 0 m 240 339 l 632 339 l 444 919 l 428 919 l 240 339 z "},"Ẳ":{"ha":872,"x_min":39,"x_max":833,"o":"m 39 0 l 357 972 l 515 972 l 833 0 l 740 0 l 657 258 l 215 258 l 132 0 l 39 0 m 240 339 l 632 339 l 444 919 l 428 919 l 240 339 z "},"Ẵ":{"ha":872,"x_min":39,"x_max":833,"o":"m 39 0 l 357 972 l 515 972 l 833 0 l 740 0 l 657 258 l 215 258 l 132 0 l 39 0 m 240 339 l 632 339 l 444 919 l 428 919 l 240 339 m 436 1044 q 290 1092 342 1044 q 238 1215 238 1140 l 238 1219 l 315 1219 l 315 1215 q 346 1140 315 1168 q 436 1111 376 1111 q 528 1140 497 1111 q 558 1215 558 1168 l 558 1219 l 636 1219 l 636 1215 q 583 1092 636 1140 q 436 1044 531 1044 m 269 1272 l 214 1306 l 258 1379 q 294 1420 272 1403 q 351 1438 317 1438 q 408 1422 383 1438 q 461 1375 433 1406 q 493 1344 481 1353 q 519 1335 506 1335 q 544 1342 535 1335 q 561 1364 553 1350 l 603 1431 l 658 1397 l 614 1324 q 578 1283 600 1301 q 521 1265 557 1265 q 464 1281 489 1265 q 411 1328 439 1297 q 380 1359 392 1350 q 353 1368 368 1368 q 328 1360 339 1368 q 310 1338 318 1351 l 269 1272 z "},"Ǎ":{"ha":872,"x_min":39,"x_max":833,"o":"m 39 0 l 357 972 l 515 972 l 833 0 l 740 0 l 657 258 l 215 258 l 132 0 l 39 0 m 240 339 l 632 339 l 444 919 l 428 919 l 240 339 m 388 1053 l 204 1217 l 317 1217 l 428 1111 l 444 1111 l 556 1217 l 668 1217 l 485 1053 l 388 1053 z "},"Ấ":{"ha":872,"x_min":39,"x_max":833,"o":"m 39 0 l 357 972 l 515 972 l 833 0 l 740 0 l 657 258 l 215 258 l 132 0 l 39 0 m 240 339 l 632 339 l 444 919 l 428 919 l 240 339 m 204 1053 l 388 1217 l 485 1217 l 668 1053 l 556 1053 l 444 1158 l 428 1158 l 317 1053 l 204 1053 m 588 1193 l 667 1363 l 767 1363 l 669 1193 l 588 1193 z "},"Ậ":{"ha":872,"x_min":39,"x_max":833,"o":"m 39 0 l 357 972 l 515 972 l 833 0 l 740 0 l 657 258 l 215 258 l 132 0 l 39 0 m 240 339 l 632 339 l 444 919 l 428 919 l 240 339 m 436 -261 q 385 -240 406 -261 q 364 -189 364 -219 q 385 -137 364 -157 q 436 -117 406 -117 q 488 -137 468 -117 q 508 -189 508 -157 q 488 -240 508 -219 q 436 -261 468 -261 m 204 1053 l 388 1217 l 485 1217 l 668 1053 l 556 1053 l 444 1158 l 428 1158 l 317 1053 l 204 1053 z "},"Ầ":{"ha":872,"x_min":39,"x_max":833,"o":"m 39 0 l 357 972 l 515 972 l 833 0 l 740 0 l 657 258 l 215 258 l 132 0 l 39 0 m 240 339 l 632 339 l 444 919 l 428 919 l 240 339 m 204 1053 l 388 1217 l 485 1217 l 668 1053 l 556 1053 l 444 1158 l 428 1158 l 317 1053 l 204 1053 m 621 1193 l 519 1363 l 619 1363 l 701 1193 l 621 1193 z "},"Ẩ":{"ha":872,"x_min":39,"x_max":833,"o":"m 39 0 l 357 972 l 515 972 l 833 0 l 740 0 l 657 258 l 215 258 l 132 0 l 39 0 m 240 339 l 632 339 l 444 919 l 428 919 l 240 339 m 204 1053 l 388 1217 l 485 1217 l 668 1053 l 556 1053 l 444 1158 l 428 1158 l 317 1053 l 204 1053 m 610 1186 l 599 1288 l 649 1288 q 699 1301 681 1288 q 718 1339 718 1314 q 698 1379 718 1367 q 649 1392 678 1392 q 592 1381 618 1392 q 544 1353 567 1369 l 508 1408 q 572 1442 536 1429 q 649 1456 607 1456 q 719 1443 688 1456 q 769 1406 750 1431 q 788 1344 788 1382 q 756 1265 788 1293 q 669 1236 724 1236 l 675 1186 l 610 1186 z "},"Ẫ":{"ha":872,"x_min":39,"x_max":833,"o":"m 39 0 l 357 972 l 515 972 l 833 0 l 740 0 l 657 258 l 215 258 l 132 0 l 39 0 m 240 339 l 632 339 l 444 919 l 428 919 l 240 339 m 204 1053 l 388 1217 l 485 1217 l 668 1053 l 556 1053 l 444 1158 l 428 1158 l 317 1053 l 204 1053 m 269 1282 l 214 1315 l 258 1389 q 294 1430 272 1413 q 351 1447 317 1447 q 408 1431 383 1447 q 461 1385 433 1415 q 493 1353 481 1363 q 519 1344 506 1344 q 544 1352 535 1344 q 561 1374 553 1360 l 603 1440 l 658 1407 l 614 1333 q 578 1293 600 1311 q 521 1275 557 1275 q 464 1291 489 1275 q 411 1338 439 1307 q 380 1369 392 1360 q 353 1378 368 1378 q 328 1369 339 1378 q 310 1347 318 1361 l 269 1282 z "},"Ȁ":{"ha":872,"x_min":39,"x_max":833,"o":"m 39 0 l 357 972 l 515 972 l 833 0 l 740 0 l 657 258 l 215 258 l 132 0 l 39 0 m 240 339 l 632 339 l 444 919 l 428 919 l 240 339 m 333 1058 l 206 1222 l 317 1222 l 415 1058 l 333 1058 m 525 1058 l 421 1222 l 519 1222 l 600 1058 l 525 1058 z "},"Ạ":{"ha":872,"x_min":39,"x_max":833,"o":"m 39 0 l 357 972 l 515 972 l 833 0 l 740 0 l 657 258 l 215 258 l 132 0 l 39 0 m 240 339 l 632 339 l 444 919 l 428 919 l 240 339 m 436 -261 q 385 -240 406 -261 q 364 -189 364 -219 q 385 -137 364 -157 q 436 -117 406 -117 q 488 -137 468 -117 q 508 -189 508 -157 q 488 -240 508 -219 q 436 -261 468 -261 z "},"Ả":{"ha":872,"x_min":39,"x_max":833,"o":"m 39 0 l 357 972 l 515 972 l 833 0 l 740 0 l 657 258 l 215 258 l 132 0 l 39 0 m 240 339 l 632 339 l 444 919 l 428 919 l 240 339 m 410 1039 l 399 1140 l 449 1140 q 499 1153 481 1140 q 518 1192 518 1167 q 498 1232 518 1219 q 449 1244 478 1244 q 392 1233 418 1244 q 344 1206 367 1222 l 308 1261 q 372 1295 336 1282 q 449 1308 407 1308 q 519 1296 488 1308 q 569 1259 550 1283 q 588 1197 588 1235 q 556 1117 588 1146 q 469 1089 524 1089 l 475 1039 l 410 1039 z "},"Ȃ":{"ha":872,"x_min":39,"x_max":833,"o":"m 39 0 l 357 972 l 515 972 l 833 0 l 740 0 l 657 258 l 215 258 l 132 0 l 39 0 m 240 339 l 632 339 l 444 919 l 428 919 l 240 339 m 243 1069 l 243 1078 q 297 1210 243 1164 q 436 1256 351 1256 q 574 1210 521 1256 q 628 1078 628 1164 l 628 1069 l 550 1069 l 550 1078 q 522 1158 550 1126 q 436 1189 493 1189 q 350 1158 379 1189 q 321 1078 321 1126 l 321 1069 l 243 1069 z "},"Ǻ":{"ha":872,"x_min":39,"x_max":833,"o":"m 39 0 l 357 972 l 515 972 l 833 0 l 740 0 l 657 258 l 215 258 l 132 0 l 39 0 m 240 339 l 632 339 l 444 919 l 428 919 l 240 339 m 424 1251 l 518 1415 l 618 1415 l 507 1251 l 424 1251 m 436 1039 q 342 1075 381 1039 q 303 1169 303 1111 q 342 1264 303 1228 q 436 1300 381 1300 q 532 1264 493 1300 q 571 1169 571 1228 q 532 1075 571 1111 q 436 1039 493 1039 m 436 1103 q 486 1122 468 1103 q 504 1169 504 1140 q 486 1217 504 1199 q 436 1236 468 1236 q 388 1217 406 1236 q 369 1169 369 1199 q 388 1122 369 1140 q 436 1103 406 1103 z "},"Ƀ":{"ha":917,"x_min":67,"x_max":836,"o":"m 67 0 l 67 81 l 206 81 l 206 892 l 67 892 l 67 972 l 549 972 q 697 942 632 972 q 799 856 763 911 q 836 729 836 801 l 836 718 q 810 606 836 650 q 746 536 783 561 q 672 500 708 511 l 672 483 q 747 449 708 475 q 810 379 785 424 q 836 267 836 335 l 836 253 q 798 117 836 174 q 694 30 760 60 q 544 0 628 0 l 67 0 m 294 81 l 536 81 q 694 129 640 81 q 747 260 747 178 l 747 271 q 694 401 747 353 q 536 450 640 450 l 294 450 l 294 81 m 294 531 l 542 531 q 692 578 638 531 q 747 704 747 626 l 747 718 q 692 844 747 796 q 542 892 638 892 l 294 892 l 294 531 m 67 228 l 67 297 l 467 297 l 467 228 l 67 228 z "},"Ḉ":{"ha":890,"x_min":89,"x_max":813,"o":"m 464 -19 q 191 81 293 -19 q 89 376 89 182 l 89 596 q 191 891 89 790 q 464 992 293 992 q 723 897 633 992 q 813 638 813 801 l 813 631 l 724 631 l 724 640 q 660 835 724 760 q 464 911 597 911 q 253 829 329 911 q 178 599 178 747 l 178 374 q 253 143 178 225 q 464 61 329 61 q 660 137 597 61 q 724 332 724 213 l 724 353 l 813 353 l 813 335 q 723 76 813 171 q 464 -19 633 -19 m 465 -281 q 388 -267 424 -281 q 325 -233 353 -254 l 361 -178 q 409 -206 383 -194 q 465 -217 435 -217 q 515 -205 494 -217 q 535 -167 535 -193 q 516 -131 535 -143 q 465 -118 497 -118 l 415 -118 l 431 31 l 496 31 l 486 -67 q 572 -94 540 -67 q 604 -172 604 -121 q 585 -233 604 -208 q 535 -269 567 -257 q 465 -281 504 -281 m 399 1053 l 490 1217 l 599 1217 l 485 1053 l 399 1053 z "},"Ǆ":{"ha":1699,"x_min":67,"x_max":1632,"o":"m 67 0 l 67 81 l 206 81 l 206 892 l 67 892 l 67 972 l 436 972 q 733 876 626 972 q 839 575 839 779 l 839 396 q 733 96 839 192 q 436 0 626 0 l 67 0 m 294 81 l 436 81 q 669 154 589 81 q 750 392 750 228 l 750 579 q 669 817 750 744 q 436 890 589 890 l 294 890 l 294 81 m 968 0 l 968 122 l 1535 878 l 1535 892 l 985 892 l 985 972 l 1618 972 l 1618 850 l 1051 94 l 1051 81 l 1632 81 l 1632 0 l 968 0 m 1240 1053 l 1057 1217 l 1169 1217 l 1281 1111 l 1297 1111 l 1408 1217 l 1521 1217 l 1338 1053 l 1240 1053 z "},"Ḍ":{"ha":919,"x_min":67,"x_max":839,"o":"m 67 0 l 67 81 l 206 81 l 206 892 l 67 892 l 67 972 l 436 972 q 733 876 626 972 q 839 575 839 779 l 839 396 q 733 96 839 192 q 436 0 626 0 l 67 0 m 294 81 l 436 81 q 669 154 589 81 q 750 392 750 228 l 750 579 q 669 817 750 744 q 436 890 589 890 l 294 890 l 294 81 m 440 -261 q 389 -240 410 -261 q 368 -189 368 -219 q 389 -137 368 -157 q 440 -117 410 -117 q 492 -137 472 -117 q 513 -189 513 -157 q 492 -240 513 -219 q 440 -261 472 -261 z "},"Ḏ":{"ha":919,"x_min":67,"x_max":839,"o":"m 67 0 l 67 81 l 206 81 l 206 892 l 67 892 l 67 972 l 436 972 q 733 876 626 972 q 839 575 839 779 l 839 396 q 733 96 839 192 q 436 0 626 0 l 67 0 m 294 81 l 436 81 q 669 154 589 81 q 750 392 750 228 l 750 579 q 669 817 750 744 q 436 890 589 890 l 294 890 l 294 81 m 232 -200 l 232 -128 l 649 -128 l 649 -200 l 232 -200 z "},"ǅ":{"ha":1644,"x_min":67,"x_max":1558,"o":"m 67 0 l 67 81 l 206 81 l 206 892 l 67 892 l 67 972 l 436 972 q 733 876 626 972 q 839 575 839 779 l 839 396 q 733 96 839 192 q 436 0 626 0 l 67 0 m 294 81 l 436 81 q 669 154 589 81 q 750 392 750 228 l 750 579 q 669 817 750 744 q 436 890 589 890 l 294 890 l 294 81 m 1008 0 l 1008 114 l 1463 586 l 1463 600 l 1022 600 l 1022 675 l 1547 675 l 1547 561 l 1092 89 l 1092 75 l 1558 75 l 1558 0 l 1008 0 m 1218 772 l 1043 956 l 1146 956 l 1263 833 l 1279 833 l 1396 956 l 1499 956 l 1324 772 l 1218 772 z "},"Ḝ":{"ha":788,"x_min":119,"x_max":713,"o":"m 119 0 l 119 972 l 707 972 l 707 892 l 208 892 l 208 528 l 668 528 l 668 447 l 208 447 l 208 81 l 713 81 l 713 0 l 119 0 m 421 -281 q 344 -267 379 -281 q 281 -233 308 -254 l 317 -178 q 365 -206 339 -194 q 421 -217 390 -217 q 470 -205 450 -217 q 490 -167 490 -193 q 472 -131 490 -143 q 421 -118 453 -118 l 371 -118 l 386 31 l 451 31 l 442 -67 q 528 -94 496 -67 q 560 -172 560 -121 q 541 -233 560 -208 q 491 -269 522 -257 q 421 -281 460 -281 m 422 1044 q 276 1092 328 1044 q 224 1215 224 1140 l 224 1219 l 301 1219 l 301 1215 q 332 1140 301 1168 q 422 1111 363 1111 q 514 1140 483 1111 q 544 1215 544 1168 l 544 1219 l 622 1219 l 622 1215 q 569 1092 622 1140 q 422 1044 517 1044 z "},"Ế":{"ha":788,"x_min":119,"x_max":753,"o":"m 119 0 l 119 972 l 707 972 l 707 892 l 208 892 l 208 528 l 668 528 l 668 447 l 208 447 l 208 81 l 713 81 l 713 0 l 119 0 m 190 1053 l 374 1217 l 471 1217 l 654 1053 l 542 1053 l 431 1158 l 414 1158 l 303 1053 l 190 1053 m 574 1193 l 653 1363 l 753 1363 l 656 1193 l 574 1193 z "},"Ệ":{"ha":788,"x_min":119,"x_max":713,"o":"m 119 0 l 119 972 l 707 972 l 707 892 l 208 892 l 208 528 l 668 528 l 668 447 l 208 447 l 208 81 l 713 81 l 713 0 l 119 0 m 415 -261 q 364 -240 385 -261 q 343 -189 343 -219 q 364 -137 343 -157 q 415 -117 385 -117 q 467 -137 447 -117 q 488 -189 488 -157 q 467 -240 488 -219 q 415 -261 447 -261 m 190 1053 l 374 1217 l 471 1217 l 654 1053 l 542 1053 l 431 1158 l 414 1158 l 303 1053 l 190 1053 z "},"Ề":{"ha":788,"x_min":119,"x_max":713,"o":"m 119 0 l 119 972 l 707 972 l 707 892 l 208 892 l 208 528 l 668 528 l 668 447 l 208 447 l 208 81 l 713 81 l 713 0 l 119 0 m 190 1053 l 374 1217 l 471 1217 l 654 1053 l 542 1053 l 431 1158 l 414 1158 l 303 1053 l 190 1053 m 607 1193 l 506 1363 l 606 1363 l 688 1193 l 607 1193 z "},"Ể":{"ha":788,"x_min":119,"x_max":774,"o":"m 119 0 l 119 972 l 707 972 l 707 892 l 208 892 l 208 528 l 668 528 l 668 447 l 208 447 l 208 81 l 713 81 l 713 0 l 119 0 m 190 1053 l 374 1217 l 471 1217 l 654 1053 l 542 1053 l 431 1158 l 414 1158 l 303 1053 l 190 1053 m 596 1186 l 585 1288 l 635 1288 q 685 1301 667 1288 q 704 1339 704 1314 q 684 1379 704 1367 q 635 1392 664 1392 q 578 1381 604 1392 q 531 1353 553 1369 l 494 1408 q 558 1442 522 1429 q 635 1456 593 1456 q 705 1443 674 1456 q 755 1406 736 1431 q 774 1344 774 1382 q 742 1265 774 1293 q 656 1236 710 1236 l 661 1186 l 596 1186 z "},"Ễ":{"ha":788,"x_min":119,"x_max":713,"o":"m 119 0 l 119 972 l 707 972 l 707 892 l 208 892 l 208 528 l 668 528 l 668 447 l 208 447 l 208 81 l 713 81 l 713 0 l 119 0 m 190 1053 l 374 1217 l 471 1217 l 654 1053 l 542 1053 l 431 1158 l 414 1158 l 303 1053 l 190 1053 m 256 1282 l 200 1315 l 244 1389 q 281 1430 258 1413 q 338 1447 303 1447 q 394 1431 369 1447 q 447 1385 419 1415 q 479 1353 467 1363 q 506 1344 492 1344 q 530 1352 521 1344 q 547 1374 539 1360 l 589 1440 l 644 1407 l 600 1333 q 565 1293 586 1311 q 507 1275 543 1275 q 450 1291 475 1275 q 397 1338 425 1307 q 366 1369 378 1360 q 339 1378 354 1378 q 315 1369 325 1378 q 296 1347 304 1361 l 256 1282 z "},"Ȅ":{"ha":788,"x_min":119,"x_max":713,"o":"m 119 0 l 119 972 l 707 972 l 707 892 l 208 892 l 208 528 l 668 528 l 668 447 l 208 447 l 208 81 l 713 81 l 713 0 l 119 0 m 319 1058 l 192 1222 l 303 1222 l 401 1058 l 319 1058 m 511 1058 l 407 1222 l 506 1222 l 586 1058 l 511 1058 z "},"Ẹ":{"ha":788,"x_min":119,"x_max":713,"o":"m 119 0 l 119 972 l 707 972 l 707 892 l 208 892 l 208 528 l 668 528 l 668 447 l 208 447 l 208 81 l 713 81 l 713 0 l 119 0 m 415 -261 q 364 -240 385 -261 q 343 -189 343 -219 q 364 -137 343 -157 q 415 -117 385 -117 q 467 -137 447 -117 q 488 -189 488 -157 q 467 -240 488 -219 q 415 -261 447 -261 z "},"Ẻ":{"ha":788,"x_min":119,"x_max":713,"o":"m 119 0 l 119 972 l 707 972 l 707 892 l 208 892 l 208 528 l 668 528 l 668 447 l 208 447 l 208 81 l 713 81 l 713 0 l 119 0 m 396 1039 l 385 1140 l 435 1140 q 485 1153 467 1140 q 504 1192 504 1167 q 484 1232 504 1219 q 435 1244 464 1244 q 378 1233 404 1244 q 331 1206 353 1222 l 294 1261 q 358 1295 322 1282 q 435 1308 393 1308 q 505 1296 474 1308 q 555 1259 536 1283 q 574 1197 574 1235 q 542 1117 574 1146 q 456 1089 510 1089 l 461 1039 l 396 1039 z "},"Ȇ":{"ha":788,"x_min":119,"x_max":713,"o":"m 119 0 l 119 972 l 707 972 l 707 892 l 208 892 l 208 528 l 668 528 l 668 447 l 208 447 l 208 81 l 713 81 l 713 0 l 119 0 m 229 1069 l 229 1078 q 283 1210 229 1164 q 422 1256 338 1256 q 560 1210 507 1256 q 614 1078 614 1164 l 614 1069 l 536 1069 l 536 1078 q 508 1158 536 1126 q 422 1189 479 1189 q 336 1158 365 1189 q 307 1078 307 1126 l 307 1069 l 229 1069 z "},"Ḗ":{"ha":788,"x_min":119,"x_max":713,"o":"m 119 0 l 119 972 l 707 972 l 707 892 l 208 892 l 208 528 l 668 528 l 668 447 l 208 447 l 208 81 l 713 81 l 713 0 l 119 0 m 214 1075 l 214 1147 l 631 1147 l 631 1075 l 214 1075 m 357 1239 l 449 1403 l 557 1403 l 443 1239 l 357 1239 z "},"Ḕ":{"ha":788,"x_min":119,"x_max":713,"o":"m 119 0 l 119 972 l 707 972 l 707 892 l 208 892 l 208 528 l 668 528 l 668 447 l 208 447 l 208 81 l 713 81 l 713 0 l 119 0 m 214 1075 l 214 1147 l 631 1147 l 631 1075 l 214 1075 m 401 1244 l 288 1408 l 396 1408 l 488 1244 l 401 1244 z "},"Ẽ":{"ha":788,"x_min":119,"x_max":713,"o":"m 119 0 l 119 972 l 707 972 l 707 892 l 208 892 l 208 528 l 668 528 l 668 447 l 208 447 l 208 81 l 713 81 l 713 0 l 119 0 m 256 1060 l 200 1093 l 244 1167 q 281 1208 258 1190 q 338 1225 303 1225 q 394 1209 369 1225 q 447 1163 419 1193 q 479 1131 467 1140 q 506 1122 492 1122 q 530 1130 521 1122 q 547 1151 539 1138 l 589 1218 l 644 1185 l 600 1111 q 565 1071 586 1089 q 507 1053 543 1053 q 450 1069 475 1053 q 397 1115 425 1085 q 366 1147 378 1138 q 339 1156 354 1156 q 315 1147 325 1156 q 296 1125 304 1139 l 256 1060 z "},"Ǧ":{"ha":915,"x_min":89,"x_max":807,"o":"m 458 -19 q 264 26 347 -19 q 135 159 181 71 q 89 376 89 247 l 89 596 q 191 891 89 790 q 464 992 293 992 q 720 897 633 992 q 807 646 807 803 l 807 639 l 718 639 l 718 649 q 692 784 718 725 q 609 877 665 843 q 464 911 553 911 q 253 829 329 911 q 178 599 178 747 l 178 374 q 253 143 178 225 q 464 61 329 61 q 658 138 596 61 q 721 343 721 214 l 721 371 l 400 371 l 400 449 l 807 449 l 807 0 l 726 0 l 726 110 l 710 110 q 663 47 693 76 q 583 -1 632 17 q 458 -19 533 -19 m 417 1053 l 233 1217 l 346 1217 l 457 1111 l 474 1111 l 585 1217 l 697 1217 l 514 1053 l 417 1053 z "},"Ģ":{"ha":915,"x_min":89,"x_max":807,"o":"m 458 -19 q 264 26 347 -19 q 135 159 181 71 q 89 376 89 247 l 89 596 q 191 891 89 790 q 464 992 293 992 q 720 897 633 992 q 807 646 807 803 l 807 639 l 718 639 l 718 649 q 692 784 718 725 q 609 877 665 843 q 464 911 553 911 q 253 829 329 911 q 178 599 178 747 l 178 374 q 253 143 178 225 q 464 61 329 61 q 658 138 596 61 q 721 343 721 214 l 721 371 l 400 371 l 400 449 l 807 449 l 807 0 l 726 0 l 726 110 l 710 110 q 663 47 693 76 q 583 -1 632 17 q 458 -19 533 -19 m 410 -347 l 410 -294 l 439 -294 q 472 -285 463 -294 q 482 -253 482 -275 l 482 -228 l 468 -228 q 419 -209 439 -228 q 399 -160 399 -190 q 418 -111 399 -131 q 468 -92 438 -92 q 517 -112 497 -92 q 538 -168 538 -132 l 538 -254 q 515 -324 538 -301 q 444 -347 493 -347 l 410 -347 z "},"ẞ":{"ha":868,"x_min":111,"x_max":817,"o":"m 565 -19 q 375 47 447 -19 q 303 233 303 114 l 392 233 q 440 104 392 147 q 565 61 489 61 q 685 101 643 61 q 728 204 728 140 q 688 302 728 269 q 597 357 649 335 l 532 386 q 444 448 474 413 q 415 532 415 483 q 439 615 415 581 q 501 686 463 650 l 704 878 l 704 892 l 446 892 q 319 866 375 892 q 232 782 264 840 q 200 628 200 724 l 200 0 l 111 0 l 111 622 q 153 817 111 740 q 270 933 194 894 q 446 972 346 972 l 796 972 l 796 850 l 549 617 q 516 578 528 597 q 504 533 504 558 q 522 490 504 507 q 571 460 540 474 l 636 431 q 722 383 681 411 q 790 313 764 356 q 817 204 817 269 q 751 44 817 107 q 565 -19 685 -19 z "},"Ḡ":{"ha":915,"x_min":89,"x_max":807,"o":"m 458 -19 q 264 26 347 -19 q 135 159 181 71 q 89 376 89 247 l 89 596 q 191 891 89 790 q 464 992 293 992 q 720 897 633 992 q 807 646 807 803 l 807 639 l 718 639 l 718 649 q 692 784 718 725 q 609 877 665 843 q 464 911 553 911 q 253 829 329 911 q 178 599 178 747 l 178 374 q 253 143 178 225 q 464 61 329 61 q 658 138 596 61 q 721 343 721 214 l 721 371 l 400 371 l 400 449 l 807 449 l 807 0 l 726 0 l 726 110 l 710 110 q 663 47 693 76 q 583 -1 632 17 q 458 -19 533 -19 m 257 1075 l 257 1147 l 674 1147 l 674 1075 l 257 1075 z "},"Ḫ":{"ha":911,"x_min":119,"x_max":792,"o":"m 119 0 l 119 972 l 208 972 l 208 528 l 703 528 l 703 972 l 792 972 l 792 0 l 703 0 l 703 447 l 208 447 l 208 0 l 119 0 m 456 -289 q 317 -242 371 -289 q 263 -111 263 -196 l 263 -103 l 340 -103 l 340 -111 q 369 -191 340 -160 q 456 -222 399 -222 q 541 -191 513 -222 q 569 -111 569 -160 l 569 -103 l 647 -103 l 647 -111 q 594 -242 647 -196 q 456 -289 540 -289 z "},"Ḥ":{"ha":911,"x_min":119,"x_max":792,"o":"m 119 0 l 119 972 l 208 972 l 208 528 l 703 528 l 703 972 l 792 972 l 792 0 l 703 0 l 703 447 l 208 447 l 208 0 l 119 0 m 456 -261 q 404 -240 425 -261 q 383 -189 383 -219 q 404 -137 383 -157 q 456 -117 425 -117 q 508 -137 488 -117 q 528 -189 528 -157 q 508 -240 528 -219 q 456 -261 488 -261 z "},"Ǐ":{"ha":328,"x_min":-68,"x_max":396,"o":"m 119 0 l 119 972 l 208 972 l 208 0 l 119 0 m 115 1053 l -68 1217 l 44 1217 l 156 1111 l 172 1111 l 283 1217 l 396 1217 l 213 1053 l 115 1053 z "},"Ȉ":{"ha":328,"x_min":-67,"x_max":328,"o":"m 119 0 l 119 972 l 208 972 l 208 0 l 119 0 m 61 1058 l -67 1222 l 44 1222 l 143 1058 l 61 1058 m 253 1058 l 149 1222 l 247 1222 l 328 1058 l 253 1058 z "},"Ḯ":{"ha":328,"x_min":-37,"x_max":365,"o":"m 119 0 l 119 972 l 208 972 l 208 0 l 119 0 m 294 1058 q 244 1078 264 1058 q 224 1129 224 1099 q 244 1181 224 1161 q 294 1200 264 1200 q 346 1181 326 1200 q 365 1129 365 1161 q 346 1078 365 1099 q 294 1058 326 1058 m 33 1058 q -17 1078 3 1058 q -37 1129 -37 1099 q -17 1181 -37 1161 q 33 1200 3 1200 q 85 1181 65 1200 q 104 1129 104 1161 q 85 1078 104 1099 q 33 1058 65 1058 m 99 1258 l 190 1422 l 299 1422 l 185 1258 l 99 1258 z "},"Ị":{"ha":328,"x_min":92,"x_max":236,"o":"m 119 0 l 119 972 l 208 972 l 208 0 l 119 0 m 164 -261 q 113 -240 133 -261 q 92 -189 92 -219 q 113 -137 92 -157 q 164 -117 133 -117 q 216 -137 196 -117 q 236 -189 236 -157 q 216 -240 236 -219 q 164 -261 196 -261 z "},"Ỉ":{"ha":328,"x_min":36,"x_max":315,"o":"m 119 0 l 119 972 l 208 972 l 208 0 l 119 0 m 138 1039 l 126 1140 l 176 1140 q 227 1153 208 1140 q 246 1192 246 1167 q 226 1232 246 1219 q 176 1244 206 1244 q 120 1233 146 1244 q 72 1206 94 1222 l 36 1261 q 99 1295 64 1282 q 176 1308 135 1308 q 247 1296 215 1308 q 297 1259 278 1283 q 315 1197 315 1235 q 283 1117 315 1146 q 197 1089 251 1089 l 203 1039 l 138 1039 z "},"Ȋ":{"ha":328,"x_min":-29,"x_max":356,"o":"m 119 0 l 119 972 l 208 972 l 208 0 l 119 0 m -29 1069 l -29 1078 q 25 1210 -29 1164 q 164 1256 79 1256 q 302 1210 249 1256 q 356 1078 356 1164 l 356 1069 l 278 1069 l 278 1078 q 249 1158 278 1126 q 164 1189 221 1189 q 78 1158 107 1189 q 49 1078 49 1126 l 49 1069 l -29 1069 z "},"Ķ":{"ha":839,"x_min":119,"x_max":817,"o":"m 119 0 l 119 972 l 208 972 l 208 533 l 225 533 l 675 972 l 800 972 l 297 492 l 817 0 l 690 0 l 225 447 l 208 447 l 208 0 l 119 0 m 375 -347 l 375 -294 l 404 -294 q 438 -285 428 -294 q 447 -253 447 -275 l 447 -228 l 433 -228 q 384 -209 404 -228 q 364 -160 364 -190 q 383 -111 364 -131 q 433 -92 403 -92 q 483 -112 463 -92 q 503 -168 503 -132 l 503 -254 q 481 -324 503 -301 q 410 -347 458 -347 l 375 -347 z "},"Ǉ":{"ha":1576,"x_min":119,"x_max":1513,"o":"m 119 0 l 119 972 l 208 972 l 208 81 l 719 81 l 719 0 l 119 0 m 1122 -19 q 902 60 983 -19 q 821 292 821 140 l 821 360 l 910 360 l 910 292 q 963 126 910 190 q 1124 61 1015 61 q 1278 126 1235 61 q 1321 292 1321 190 l 1321 892 l 1149 892 l 1149 972 l 1513 972 l 1513 892 l 1410 892 l 1410 292 q 1338 60 1410 140 q 1122 -19 1267 -19 z "},"Ļ":{"ha":760,"x_min":119,"x_max":719,"o":"m 119 0 l 119 972 l 208 972 l 208 81 l 719 81 l 719 0 l 119 0 m 361 -347 l 361 -294 l 390 -294 q 424 -285 414 -294 q 433 -253 433 -275 l 433 -228 l 419 -228 q 370 -209 390 -228 q 350 -160 350 -190 q 369 -111 350 -131 q 419 -92 389 -92 q 469 -112 449 -92 q 489 -168 489 -132 l 489 -254 q 467 -324 489 -301 q 396 -347 444 -347 l 361 -347 z "},"Ḷ":{"ha":760,"x_min":119,"x_max":719,"o":"m 119 0 l 119 972 l 208 972 l 208 81 l 719 81 l 719 0 l 119 0 m 419 -261 q 368 -240 389 -261 q 347 -189 347 -219 q 368 -137 347 -157 q 419 -117 389 -117 q 472 -137 451 -117 q 492 -189 492 -157 q 472 -240 492 -219 q 419 -261 451 -261 z "},"ǈ":{"ha":1090,"x_min":119,"x_max":999,"o":"m 119 0 l 119 972 l 208 972 l 208 81 l 719 81 l 719 0 l 119 0 m 746 -278 l 746 -203 l 843 -203 q 885 -161 885 -203 l 885 675 l 968 675 l 968 -172 q 941 -250 968 -222 q 860 -278 914 -278 l 746 -278 m 926 792 q 875 813 896 792 q 854 864 854 833 q 875 916 854 896 q 926 936 896 936 q 978 916 958 936 q 999 864 999 896 q 978 813 999 833 q 926 792 958 792 z "},"Ḻ":{"ha":760,"x_min":119,"x_max":719,"o":"m 119 0 l 119 972 l 208 972 l 208 81 l 719 81 l 719 0 l 119 0 m 211 -200 l 211 -128 l 628 -128 l 628 -200 l 211 -200 z "},"Ṃ":{"ha":1192,"x_min":119,"x_max":1072,"o":"m 119 0 l 119 972 l 293 972 l 588 53 l 604 53 l 899 972 l 1072 972 l 1072 0 l 986 0 l 986 919 l 969 919 l 675 0 l 517 0 l 222 919 l 206 919 l 206 0 l 119 0 m 596 -261 q 544 -240 565 -261 q 524 -189 524 -219 q 544 -137 524 -157 q 596 -117 565 -117 q 648 -137 628 -117 q 668 -189 668 -157 q 648 -240 668 -219 q 596 -261 628 -261 z "},"Ǌ":{"ha":1735,"x_min":119,"x_max":1671,"o":"m 119 0 l 119 972 l 296 972 l 693 53 l 710 53 l 710 972 l 799 972 l 799 0 l 622 0 l 225 921 l 208 921 l 208 0 l 119 0 m 1281 -19 q 1060 60 1142 -19 q 979 292 979 140 l 979 360 l 1068 360 l 1068 292 q 1121 126 1068 190 q 1282 61 1174 61 q 1436 126 1393 61 q 1479 292 1479 190 l 1479 892 l 1307 892 l 1307 972 l 1671 972 l 1671 892 l 1568 892 l 1568 292 q 1497 60 1568 140 q 1281 -19 1425 -19 z "},"Ņ":{"ha":918,"x_min":119,"x_max":799,"o":"m 119 0 l 119 972 l 296 972 l 693 53 l 710 53 l 710 972 l 799 972 l 799 0 l 622 0 l 225 921 l 208 921 l 208 0 l 119 0 m 406 -347 l 406 -294 l 435 -294 q 468 -285 458 -294 q 478 -253 478 -275 l 478 -228 l 464 -228 q 415 -209 435 -228 q 394 -160 394 -190 q 414 -111 394 -131 q 464 -92 433 -92 q 513 -112 493 -92 q 533 -168 533 -132 l 533 -254 q 511 -324 533 -301 q 440 -347 489 -347 l 406 -347 z "},"Ṅ":{"ha":918,"x_min":119,"x_max":799,"o":"m 119 0 l 119 972 l 296 972 l 693 53 l 710 53 l 710 972 l 799 972 l 799 0 l 622 0 l 225 921 l 208 921 l 208 0 l 119 0 m 465 1058 q 414 1079 435 1058 q 393 1131 393 1100 q 414 1183 393 1163 q 465 1203 435 1203 q 517 1183 497 1203 q 538 1131 538 1163 q 517 1079 538 1100 q 465 1058 497 1058 z "},"Ṇ":{"ha":918,"x_min":119,"x_max":799,"o":"m 119 0 l 119 972 l 296 972 l 693 53 l 710 53 l 710 972 l 799 972 l 799 0 l 622 0 l 225 921 l 208 921 l 208 0 l 119 0 m 464 -261 q 413 -240 433 -261 q 392 -189 392 -219 q 413 -137 392 -157 q 464 -117 433 -117 q 516 -137 496 -117 q 536 -189 536 -157 q 516 -240 536 -219 q 464 -261 496 -261 z "},"ǋ":{"ha":1249,"x_min":119,"x_max":1157,"o":"m 119 0 l 119 972 l 296 972 l 693 53 l 710 53 l 710 972 l 799 972 l 799 0 l 622 0 l 225 921 l 208 921 l 208 0 l 119 0 m 904 -278 l 904 -203 l 1001 -203 q 1043 -161 1043 -203 l 1043 675 l 1126 675 l 1126 -172 q 1099 -250 1126 -222 q 1018 -278 1072 -278 l 904 -278 m 1085 792 q 1033 813 1054 792 q 1013 864 1013 833 q 1033 916 1013 896 q 1085 936 1054 936 q 1137 916 1117 936 q 1157 864 1157 896 q 1137 813 1157 833 q 1085 792 1117 792 z "},"Ṉ":{"ha":918,"x_min":119,"x_max":799,"o":"m 119 0 l 119 972 l 296 972 l 693 53 l 710 53 l 710 972 l 799 972 l 799 0 l 622 0 l 225 921 l 208 921 l 208 0 l 119 0 m 256 -200 l 256 -128 l 672 -128 l 672 -200 l 256 -200 z "},"Ǒ":{"ha":925,"x_min":89,"x_max":836,"o":"m 463 -19 q 190 81 292 -19 q 89 376 89 182 l 89 596 q 190 891 89 790 q 463 992 292 992 q 735 891 633 992 q 836 596 836 790 l 836 376 q 735 81 836 182 q 463 -19 633 -19 m 463 61 q 673 143 599 61 q 747 374 747 225 l 747 599 q 673 829 747 747 q 463 911 599 911 q 253 829 328 911 q 178 599 178 747 l 178 374 q 253 143 178 225 q 463 61 328 61 m 414 1053 l 231 1217 l 343 1217 l 454 1111 l 471 1111 l 582 1217 l 694 1217 l 511 1053 l 414 1053 z "},"Ố":{"ha":925,"x_min":89,"x_max":836,"o":"m 463 -19 q 190 81 292 -19 q 89 376 89 182 l 89 596 q 190 891 89 790 q 463 992 292 992 q 735 891 633 992 q 836 596 836 790 l 836 376 q 735 81 836 182 q 463 -19 633 -19 m 463 61 q 673 143 599 61 q 747 374 747 225 l 747 599 q 673 829 747 747 q 463 911 599 911 q 253 829 328 911 q 178 599 178 747 l 178 374 q 253 143 178 225 q 463 61 328 61 m 231 1053 l 414 1217 l 511 1217 l 694 1053 l 582 1053 l 471 1158 l 454 1158 l 343 1053 l 231 1053 m 614 1193 l 693 1363 l 793 1363 l 696 1193 l 614 1193 z "},"Ộ":{"ha":925,"x_min":89,"x_max":836,"o":"m 463 -19 q 190 81 292 -19 q 89 376 89 182 l 89 596 q 190 891 89 790 q 463 992 292 992 q 735 891 633 992 q 836 596 836 790 l 836 376 q 735 81 836 182 q 463 -19 633 -19 m 463 61 q 673 143 599 61 q 747 374 747 225 l 747 599 q 673 829 747 747 q 463 911 599 911 q 253 829 328 911 q 178 599 178 747 l 178 374 q 253 143 178 225 q 463 61 328 61 m 463 -261 q 411 -240 432 -261 q 390 -189 390 -219 q 411 -137 390 -157 q 463 -117 432 -117 q 515 -137 494 -117 q 535 -189 535 -157 q 515 -240 535 -219 q 463 -261 494 -261 m 231 1053 l 414 1217 l 511 1217 l 694 1053 l 582 1053 l 471 1158 l 454 1158 l 343 1053 l 231 1053 z "},"Ồ":{"ha":925,"x_min":89,"x_max":836,"o":"m 463 -19 q 190 81 292 -19 q 89 376 89 182 l 89 596 q 190 891 89 790 q 463 992 292 992 q 735 891 633 992 q 836 596 836 790 l 836 376 q 735 81 836 182 q 463 -19 633 -19 m 463 61 q 673 143 599 61 q 747 374 747 225 l 747 599 q 673 829 747 747 q 463 911 599 911 q 253 829 328 911 q 178 599 178 747 l 178 374 q 253 143 178 225 q 463 61 328 61 m 231 1053 l 414 1217 l 511 1217 l 694 1053 l 582 1053 l 471 1158 l 454 1158 l 343 1053 l 231 1053 m 647 1193 l 546 1363 l 646 1363 l 728 1193 l 647 1193 z "},"Ổ":{"ha":925,"x_min":89,"x_max":836,"o":"m 463 -19 q 190 81 292 -19 q 89 376 89 182 l 89 596 q 190 891 89 790 q 463 992 292 992 q 735 891 633 992 q 836 596 836 790 l 836 376 q 735 81 836 182 q 463 -19 633 -19 m 463 61 q 673 143 599 61 q 747 374 747 225 l 747 599 q 673 829 747 747 q 463 911 599 911 q 253 829 328 911 q 178 599 178 747 l 178 374 q 253 143 178 225 q 463 61 328 61 m 231 1053 l 414 1217 l 511 1217 l 694 1053 l 582 1053 l 471 1158 l 454 1158 l 343 1053 l 231 1053 m 636 1186 l 625 1288 l 675 1288 q 726 1301 707 1288 q 744 1339 744 1314 q 724 1379 744 1367 q 675 1392 704 1392 q 619 1381 644 1392 q 571 1353 593 1369 l 535 1408 q 598 1442 563 1429 q 675 1456 633 1456 q 745 1443 714 1456 q 795 1406 776 1431 q 814 1344 814 1382 q 782 1265 814 1293 q 696 1236 750 1236 l 701 1186 l 636 1186 z "},"Ỗ":{"ha":925,"x_min":89,"x_max":836,"o":"m 463 -19 q 190 81 292 -19 q 89 376 89 182 l 89 596 q 190 891 89 790 q 463 992 292 992 q 735 891 633 992 q 836 596 836 790 l 836 376 q 735 81 836 182 q 463 -19 633 -19 m 463 61 q 673 143 599 61 q 747 374 747 225 l 747 599 q 673 829 747 747 q 463 911 599 911 q 253 829 328 911 q 178 599 178 747 l 178 374 q 253 143 178 225 q 463 61 328 61 m 231 1053 l 414 1217 l 511 1217 l 694 1053 l 582 1053 l 471 1158 l 454 1158 l 343 1053 l 231 1053 m 296 1282 l 240 1315 l 285 1389 q 321 1430 299 1413 q 378 1447 343 1447 q 435 1431 410 1447 q 488 1385 460 1415 q 519 1353 507 1363 q 546 1344 532 1344 q 570 1352 561 1344 q 588 1374 579 1360 l 629 1440 l 685 1407 l 640 1333 q 605 1293 626 1311 q 547 1275 583 1275 q 490 1291 515 1275 q 438 1338 465 1307 q 406 1369 418 1360 q 379 1378 394 1378 q 355 1369 365 1378 q 336 1347 344 1361 l 296 1282 z "},"Ȍ":{"ha":925,"x_min":89,"x_max":836,"o":"m 463 -19 q 190 81 292 -19 q 89 376 89 182 l 89 596 q 190 891 89 790 q 463 992 292 992 q 735 891 633 992 q 836 596 836 790 l 836 376 q 735 81 836 182 q 463 -19 633 -19 m 463 61 q 673 143 599 61 q 747 374 747 225 l 747 599 q 673 829 747 747 q 463 911 599 911 q 253 829 328 911 q 178 599 178 747 l 178 374 q 253 143 178 225 q 463 61 328 61 m 360 1058 l 232 1222 l 343 1222 l 442 1058 l 360 1058 m 551 1058 l 447 1222 l 546 1222 l 626 1058 l 551 1058 z "},"Ȫ":{"ha":925,"x_min":89,"x_max":836,"o":"m 463 -19 q 190 81 292 -19 q 89 376 89 182 l 89 596 q 190 891 89 790 q 463 992 292 992 q 735 891 633 992 q 836 596 836 790 l 836 376 q 735 81 836 182 q 463 -19 633 -19 m 463 61 q 673 143 599 61 q 747 374 747 225 l 747 599 q 673 829 747 747 q 463 911 599 911 q 253 829 328 911 q 178 599 178 747 l 178 374 q 253 143 178 225 q 463 61 328 61 m 593 1058 q 542 1078 563 1058 q 522 1129 522 1099 q 542 1181 522 1161 q 593 1200 563 1200 q 644 1181 625 1200 q 664 1129 664 1161 q 644 1078 664 1099 q 593 1058 625 1058 m 332 1058 q 281 1078 301 1058 q 261 1129 261 1099 q 281 1181 261 1161 q 332 1200 301 1200 q 383 1181 364 1200 q 403 1129 403 1161 q 383 1078 403 1099 q 332 1058 364 1058 m 254 1281 l 254 1353 l 671 1353 l 671 1281 l 254 1281 z "},"Ȱ":{"ha":925,"x_min":89,"x_max":836,"o":"m 463 -19 q 190 81 292 -19 q 89 376 89 182 l 89 596 q 190 891 89 790 q 463 992 292 992 q 735 891 633 992 q 836 596 836 790 l 836 376 q 735 81 836 182 q 463 -19 633 -19 m 463 61 q 673 143 599 61 q 747 374 747 225 l 747 599 q 673 829 747 747 q 463 911 599 911 q 253 829 328 911 q 178 599 178 747 l 178 374 q 253 143 178 225 q 463 61 328 61 m 463 1058 q 411 1079 432 1058 q 390 1131 390 1100 q 411 1183 390 1163 q 463 1203 432 1203 q 515 1183 494 1203 q 535 1131 535 1163 q 515 1079 535 1100 q 463 1058 494 1058 m 254 1267 l 254 1339 l 671 1339 l 671 1267 l 254 1267 z "},"Ọ":{"ha":925,"x_min":89,"x_max":836,"o":"m 463 -19 q 190 81 292 -19 q 89 376 89 182 l 89 596 q 190 891 89 790 q 463 992 292 992 q 735 891 633 992 q 836 596 836 790 l 836 376 q 735 81 836 182 q 463 -19 633 -19 m 463 61 q 673 143 599 61 q 747 374 747 225 l 747 599 q 673 829 747 747 q 463 911 599 911 q 253 829 328 911 q 178 599 178 747 l 178 374 q 253 143 178 225 q 463 61 328 61 m 463 -261 q 411 -240 432 -261 q 390 -189 390 -219 q 411 -137 390 -157 q 463 -117 432 -117 q 515 -137 494 -117 q 535 -189 535 -157 q 515 -240 535 -219 q 463 -261 494 -261 z "},"Ω":{"ha":861,"x_min":81,"x_max":781,"o":"m 81 0 l 81 75 l 232 75 l 232 89 q 135 188 174 122 q 97 364 97 254 l 97 606 q 134 810 97 724 q 244 944 171 897 q 431 992 318 992 q 617 944 543 992 q 727 810 690 897 q 764 606 764 724 l 764 364 q 726 188 764 254 q 631 89 689 122 l 631 75 l 781 75 l 781 0 l 492 0 l 492 81 q 603 142 563 101 q 663 239 644 182 q 681 367 681 296 l 681 603 q 617 831 681 747 q 431 914 554 914 q 244 831 308 914 q 181 603 181 747 l 181 367 q 199 239 181 296 q 258 142 217 182 q 369 81 300 101 l 369 0 l 81 0 z "},"Ỏ":{"ha":925,"x_min":89,"x_max":836,"o":"m 463 -19 q 190 81 292 -19 q 89 376 89 182 l 89 596 q 190 891 89 790 q 463 992 292 992 q 735 891 633 992 q 836 596 836 790 l 836 376 q 735 81 836 182 q 463 -19 633 -19 m 463 61 q 673 143 599 61 q 747 374 747 225 l 747 599 q 673 829 747 747 q 463 911 599 911 q 253 829 328 911 q 178 599 178 747 l 178 374 q 253 143 178 225 q 463 61 328 61 m 436 1039 l 425 1140 l 475 1140 q 526 1153 507 1140 q 544 1192 544 1167 q 524 1232 544 1219 q 475 1244 504 1244 q 419 1233 444 1244 q 371 1206 393 1222 l 335 1261 q 398 1295 363 1282 q 475 1308 433 1308 q 545 1296 514 1308 q 595 1259 576 1283 q 614 1197 614 1235 q 582 1117 614 1146 q 496 1089 550 1089 l 501 1039 l 436 1039 z "},"Ơ":{"ha":925,"x_min":89,"x_max":872,"o":"m 463 -19 q 190 81 292 -19 q 89 376 89 182 l 89 596 q 190 891 89 790 q 463 992 292 992 q 735 891 633 992 q 836 596 836 790 l 836 376 q 735 81 836 182 q 463 -19 633 -19 m 463 61 q 673 143 599 61 q 747 374 747 225 l 747 599 q 673 829 747 747 q 463 911 599 911 q 253 829 328 911 q 178 599 178 747 l 178 374 q 253 143 178 225 q 463 61 328 61 m 706 853 l 676 913 q 765 938 736 913 q 794 1036 794 963 l 794 1083 l 872 1083 l 872 1033 q 854 927 872 967 q 799 870 836 888 q 706 853 763 853 z "},"Ớ":{"ha":925,"x_min":89,"x_max":872,"o":"m 463 -19 q 190 81 292 -19 q 89 376 89 182 l 89 596 q 190 891 89 790 q 463 992 292 992 q 735 891 633 992 q 836 596 836 790 l 836 376 q 735 81 836 182 q 463 -19 633 -19 m 463 61 q 673 143 599 61 q 747 374 747 225 l 747 599 q 673 829 747 747 q 463 911 599 911 q 253 829 328 911 q 178 599 178 747 l 178 374 q 253 143 178 225 q 463 61 328 61 m 706 853 l 676 913 q 765 938 736 913 q 794 1036 794 963 l 794 1083 l 872 1083 l 872 1033 q 854 927 872 967 q 799 870 836 888 q 706 853 763 853 m 397 1053 l 489 1217 l 597 1217 l 483 1053 l 397 1053 z "},"Ợ":{"ha":925,"x_min":89,"x_max":872,"o":"m 463 -19 q 190 81 292 -19 q 89 376 89 182 l 89 596 q 190 891 89 790 q 463 992 292 992 q 735 891 633 992 q 836 596 836 790 l 836 376 q 735 81 836 182 q 463 -19 633 -19 m 463 61 q 673 143 599 61 q 747 374 747 225 l 747 599 q 673 829 747 747 q 463 911 599 911 q 253 829 328 911 q 178 599 178 747 l 178 374 q 253 143 178 225 q 463 61 328 61 m 706 853 l 676 913 q 765 938 736 913 q 794 1036 794 963 l 794 1083 l 872 1083 l 872 1033 q 854 927 872 967 q 799 870 836 888 q 706 853 763 853 m 463 -261 q 411 -240 432 -261 q 390 -189 390 -219 q 411 -137 390 -157 q 463 -117 432 -117 q 515 -137 494 -117 q 535 -189 535 -157 q 515 -240 535 -219 q 463 -261 494 -261 z "},"Ờ":{"ha":925,"x_min":89,"x_max":872,"o":"m 463 -19 q 190 81 292 -19 q 89 376 89 182 l 89 596 q 190 891 89 790 q 463 992 292 992 q 735 891 633 992 q 836 596 836 790 l 836 376 q 735 81 836 182 q 463 -19 633 -19 m 463 61 q 673 143 599 61 q 747 374 747 225 l 747 599 q 673 829 747 747 q 463 911 599 911 q 253 829 328 911 q 178 599 178 747 l 178 374 q 253 143 178 225 q 463 61 328 61 m 706 853 l 676 913 q 765 938 736 913 q 794 1036 794 963 l 794 1083 l 872 1083 l 872 1033 q 854 927 872 967 q 799 870 836 888 q 706 853 763 853 m 442 1058 l 328 1222 l 436 1222 l 528 1058 l 442 1058 z "},"Ở":{"ha":925,"x_min":89,"x_max":872,"o":"m 463 -19 q 190 81 292 -19 q 89 376 89 182 l 89 596 q 190 891 89 790 q 463 992 292 992 q 735 891 633 992 q 836 596 836 790 l 836 376 q 735 81 836 182 q 463 -19 633 -19 m 463 61 q 673 143 599 61 q 747 374 747 225 l 747 599 q 673 829 747 747 q 463 911 599 911 q 253 829 328 911 q 178 599 178 747 l 178 374 q 253 143 178 225 q 463 61 328 61 m 706 853 l 676 913 q 765 938 736 913 q 794 1036 794 963 l 794 1083 l 872 1083 l 872 1033 q 854 927 872 967 q 799 870 836 888 q 706 853 763 853 m 436 1039 l 425 1140 l 475 1140 q 526 1153 507 1140 q 544 1192 544 1167 q 524 1232 544 1219 q 475 1244 504 1244 q 419 1233 444 1244 q 371 1206 393 1222 l 335 1261 q 398 1295 363 1282 q 475 1308 433 1308 q 545 1296 514 1308 q 595 1259 576 1283 q 614 1197 614 1235 q 582 1117 614 1146 q 496 1089 550 1089 l 501 1039 l 436 1039 z "},"Ỡ":{"ha":925,"x_min":89,"x_max":872,"o":"m 463 -19 q 190 81 292 -19 q 89 376 89 182 l 89 596 q 190 891 89 790 q 463 992 292 992 q 735 891 633 992 q 836 596 836 790 l 836 376 q 735 81 836 182 q 463 -19 633 -19 m 463 61 q 673 143 599 61 q 747 374 747 225 l 747 599 q 673 829 747 747 q 463 911 599 911 q 253 829 328 911 q 178 599 178 747 l 178 374 q 253 143 178 225 q 463 61 328 61 m 706 853 l 676 913 q 765 938 736 913 q 794 1036 794 963 l 794 1083 l 872 1083 l 872 1033 q 854 927 872 967 q 799 870 836 888 q 706 853 763 853 m 296 1060 l 240 1093 l 285 1167 q 321 1208 299 1190 q 378 1225 343 1225 q 435 1209 410 1225 q 488 1163 460 1193 q 519 1131 507 1140 q 546 1122 532 1122 q 570 1130 561 1122 q 588 1151 579 1138 l 629 1218 l 685 1185 l 640 1111 q 605 1071 626 1089 q 547 1053 583 1053 q 490 1069 515 1053 q 438 1115 465 1085 q 406 1147 418 1138 q 379 1156 394 1156 q 355 1147 365 1156 q 336 1125 344 1139 l 296 1060 z "},"Ȏ":{"ha":925,"x_min":89,"x_max":836,"o":"m 463 -19 q 190 81 292 -19 q 89 376 89 182 l 89 596 q 190 891 89 790 q 463 992 292 992 q 735 891 633 992 q 836 596 836 790 l 836 376 q 735 81 836 182 q 463 -19 633 -19 m 463 61 q 673 143 599 61 q 747 374 747 225 l 747 599 q 673 829 747 747 q 463 911 599 911 q 253 829 328 911 q 178 599 178 747 l 178 374 q 253 143 178 225 q 463 61 328 61 m 269 1069 l 269 1078 q 324 1210 269 1164 q 463 1256 378 1256 q 601 1210 547 1256 q 654 1078 654 1164 l 654 1069 l 576 1069 l 576 1078 q 548 1158 576 1126 q 463 1189 519 1189 q 376 1158 406 1189 q 347 1078 347 1126 l 347 1069 l 269 1069 z "},"Ṓ":{"ha":925,"x_min":89,"x_max":836,"o":"m 463 -19 q 190 81 292 -19 q 89 376 89 182 l 89 596 q 190 891 89 790 q 463 992 292 992 q 735 891 633 992 q 836 596 836 790 l 836 376 q 735 81 836 182 q 463 -19 633 -19 m 463 61 q 673 143 599 61 q 747 374 747 225 l 747 599 q 673 829 747 747 q 463 911 599 911 q 253 829 328 911 q 178 599 178 747 l 178 374 q 253 143 178 225 q 463 61 328 61 m 254 1075 l 254 1147 l 671 1147 l 671 1075 l 254 1075 m 397 1239 l 489 1403 l 597 1403 l 483 1239 l 397 1239 z "},"Ṑ":{"ha":925,"x_min":89,"x_max":836,"o":"m 463 -19 q 190 81 292 -19 q 89 376 89 182 l 89 596 q 190 891 89 790 q 463 992 292 992 q 735 891 633 992 q 836 596 836 790 l 836 376 q 735 81 836 182 q 463 -19 633 -19 m 463 61 q 673 143 599 61 q 747 374 747 225 l 747 599 q 673 829 747 747 q 463 911 599 911 q 253 829 328 911 q 178 599 178 747 l 178 374 q 253 143 178 225 q 463 61 328 61 m 254 1075 l 254 1147 l 671 1147 l 671 1075 l 254 1075 m 442 1244 l 328 1408 l 436 1408 l 528 1244 l 442 1244 z "},"Ǫ":{"ha":925,"x_min":89,"x_max":836,"o":"m 463 -19 q 190 81 292 -19 q 89 376 89 182 l 89 596 q 190 891 89 790 q 463 992 292 992 q 735 891 633 992 q 836 596 836 790 l 836 376 q 735 81 836 182 q 463 -19 633 -19 m 463 61 q 673 143 599 61 q 747 374 747 225 l 747 599 q 673 829 747 747 q 463 911 599 911 q 253 829 328 911 q 178 599 178 747 l 178 374 q 253 143 178 225 q 463 61 328 61 m 519 -225 q 450 -202 475 -225 q 425 -136 425 -179 q 428 -97 425 -117 q 438 -56 432 -78 l 454 15 l 524 15 l 504 -90 q 501 -110 503 -103 q 499 -126 499 -117 q 529 -153 499 -153 l 586 -153 l 586 -225 l 519 -225 z "},"Ǿ":{"ha":925,"x_min":89,"x_max":836,"o":"m 463 -19 q 190 81 292 -19 q 89 376 89 182 l 89 596 q 190 891 89 790 q 463 992 292 992 q 735 891 633 992 q 836 596 836 790 l 836 376 q 735 81 836 182 q 463 -19 633 -19 m 463 61 q 673 143 599 61 q 747 374 747 225 l 747 599 q 673 829 747 747 q 463 911 599 911 q 253 829 328 911 q 178 599 178 747 l 178 374 q 253 143 178 225 q 463 61 328 61 m 269 -117 l 204 -92 l 657 1072 l 721 1047 l 269 -117 m 397 1053 l 489 1217 l 597 1217 l 483 1053 l 397 1053 z "},"Ṍ":{"ha":925,"x_min":89,"x_max":836,"o":"m 463 -19 q 190 81 292 -19 q 89 376 89 182 l 89 596 q 190 891 89 790 q 463 992 292 992 q 735 891 633 992 q 836 596 836 790 l 836 376 q 735 81 836 182 q 463 -19 633 -19 m 463 61 q 673 143 599 61 q 747 374 747 225 l 747 599 q 673 829 747 747 q 463 911 599 911 q 253 829 328 911 q 178 599 178 747 l 178 374 q 253 143 178 225 q 463 61 328 61 m 296 1060 l 240 1093 l 285 1167 q 321 1208 299 1190 q 378 1225 343 1225 q 435 1209 410 1225 q 488 1163 460 1193 q 519 1131 507 1140 q 546 1122 532 1122 q 570 1130 561 1122 q 588 1151 579 1138 l 629 1218 l 685 1185 l 640 1111 q 605 1071 626 1089 q 547 1053 583 1053 q 490 1069 515 1053 q 438 1115 465 1085 q 406 1147 418 1138 q 379 1156 394 1156 q 355 1147 365 1156 q 336 1125 344 1139 l 296 1060 m 397 1269 l 489 1433 l 597 1433 l 483 1269 l 397 1269 z "},"Ṏ":{"ha":925,"x_min":89,"x_max":836,"o":"m 463 -19 q 190 81 292 -19 q 89 376 89 182 l 89 596 q 190 891 89 790 q 463 992 292 992 q 735 891 633 992 q 836 596 836 790 l 836 376 q 735 81 836 182 q 463 -19 633 -19 m 463 61 q 673 143 599 61 q 747 374 747 225 l 747 599 q 673 829 747 747 q 463 911 599 911 q 253 829 328 911 q 178 599 178 747 l 178 374 q 253 143 178 225 q 463 61 328 61 m 296 1060 l 240 1093 l 285 1167 q 321 1208 299 1190 q 378 1225 343 1225 q 435 1209 410 1225 q 488 1163 460 1193 q 519 1131 507 1140 q 546 1122 532 1122 q 570 1130 561 1122 q 588 1151 579 1138 l 629 1218 l 685 1185 l 640 1111 q 605 1071 626 1089 q 547 1053 583 1053 q 490 1069 515 1053 q 438 1115 465 1085 q 406 1147 418 1138 q 379 1156 394 1156 q 355 1147 365 1156 q 336 1125 344 1139 l 296 1060 m 593 1275 q 542 1295 563 1275 q 522 1346 522 1315 q 542 1397 522 1378 q 593 1417 563 1417 q 644 1397 625 1417 q 664 1346 664 1378 q 644 1295 664 1315 q 593 1275 625 1275 m 332 1275 q 281 1295 301 1275 q 261 1346 261 1315 q 281 1397 261 1378 q 332 1417 301 1417 q 383 1397 364 1417 q 403 1346 403 1378 q 383 1295 403 1315 q 332 1275 364 1275 z "},"Ȭ":{"ha":925,"x_min":89,"x_max":836,"o":"m 463 -19 q 190 81 292 -19 q 89 376 89 182 l 89 596 q 190 891 89 790 q 463 992 292 992 q 735 891 633 992 q 836 596 836 790 l 836 376 q 735 81 836 182 q 463 -19 633 -19 m 463 61 q 673 143 599 61 q 747 374 747 225 l 747 599 q 673 829 747 747 q 463 911 599 911 q 253 829 328 911 q 178 599 178 747 l 178 374 q 253 143 178 225 q 463 61 328 61 m 296 1060 l 240 1093 l 285 1167 q 321 1208 299 1190 q 378 1225 343 1225 q 435 1209 410 1225 q 488 1163 460 1193 q 519 1131 507 1140 q 546 1122 532 1122 q 570 1130 561 1122 q 588 1151 579 1138 l 629 1218 l 685 1185 l 640 1111 q 605 1071 626 1089 q 547 1053 583 1053 q 490 1069 515 1053 q 438 1115 465 1085 q 406 1147 418 1138 q 379 1156 394 1156 q 355 1147 365 1156 q 336 1125 344 1139 l 296 1060 m 254 1292 l 254 1364 l 671 1364 l 671 1292 l 254 1292 z "},"Ŗ":{"ha":876,"x_min":119,"x_max":807,"o":"m 119 0 l 119 972 l 500 972 q 659 942 590 972 q 767 853 728 911 q 807 714 807 796 l 807 700 q 760 545 807 601 q 649 471 713 489 l 649 454 q 731 424 697 453 q 764 331 764 394 l 764 0 l 675 0 l 675 321 q 651 389 675 365 q 578 413 626 413 l 208 413 l 208 0 l 119 0 m 208 493 l 492 493 q 659 544 600 493 q 718 689 718 594 l 718 696 q 660 841 718 790 q 492 892 603 892 l 208 892 l 208 493 m 385 -347 l 385 -294 l 414 -294 q 447 -285 438 -294 q 457 -253 457 -275 l 457 -228 l 443 -228 q 394 -209 414 -228 q 374 -160 374 -190 q 393 -111 374 -131 q 443 -92 413 -92 q 492 -112 472 -92 q 513 -168 513 -132 l 513 -254 q 490 -324 513 -301 q 419 -347 468 -347 l 385 -347 z "},"Ȑ":{"ha":876,"x_min":119,"x_max":807,"o":"m 119 0 l 119 972 l 500 972 q 659 942 590 972 q 767 853 728 911 q 807 714 807 796 l 807 700 q 760 545 807 601 q 649 471 713 489 l 649 454 q 731 424 697 453 q 764 331 764 394 l 764 0 l 675 0 l 675 321 q 651 389 675 365 q 578 413 626 413 l 208 413 l 208 0 l 119 0 m 208 493 l 492 493 q 659 544 600 493 q 718 689 718 594 l 718 696 q 660 841 718 790 q 492 892 603 892 l 208 892 l 208 493 m 328 1058 l 200 1222 l 311 1222 l 410 1058 l 328 1058 m 519 1058 l 415 1222 l 514 1222 l 594 1058 l 519 1058 z "},"Ṛ":{"ha":876,"x_min":119,"x_max":807,"o":"m 119 0 l 119 972 l 500 972 q 659 942 590 972 q 767 853 728 911 q 807 714 807 796 l 807 700 q 760 545 807 601 q 649 471 713 489 l 649 454 q 731 424 697 453 q 764 331 764 394 l 764 0 l 675 0 l 675 321 q 651 389 675 365 q 578 413 626 413 l 208 413 l 208 0 l 119 0 m 208 493 l 492 493 q 659 544 600 493 q 718 689 718 594 l 718 696 q 660 841 718 790 q 492 892 603 892 l 208 892 l 208 493 m 443 -261 q 392 -240 413 -261 q 371 -189 371 -219 q 392 -137 371 -157 q 443 -117 413 -117 q 495 -137 475 -117 q 515 -189 515 -157 q 495 -240 515 -219 q 443 -261 475 -261 z "},"Ȓ":{"ha":876,"x_min":119,"x_max":807,"o":"m 119 0 l 119 972 l 500 972 q 659 942 590 972 q 767 853 728 911 q 807 714 807 796 l 807 700 q 760 545 807 601 q 649 471 713 489 l 649 454 q 731 424 697 453 q 764 331 764 394 l 764 0 l 675 0 l 675 321 q 651 389 675 365 q 578 413 626 413 l 208 413 l 208 0 l 119 0 m 208 493 l 492 493 q 659 544 600 493 q 718 689 718 594 l 718 696 q 660 841 718 790 q 492 892 603 892 l 208 892 l 208 493 m 238 1069 l 238 1078 q 292 1210 238 1164 q 431 1256 346 1256 q 569 1210 515 1256 q 622 1078 622 1164 l 622 1069 l 544 1069 l 544 1078 q 516 1158 544 1126 q 431 1189 488 1189 q 344 1158 374 1189 q 315 1078 315 1126 l 315 1069 l 238 1069 z "},"Ṟ":{"ha":876,"x_min":119,"x_max":807,"o":"m 119 0 l 119 972 l 500 972 q 659 942 590 972 q 767 853 728 911 q 807 714 807 796 l 807 700 q 760 545 807 601 q 649 471 713 489 l 649 454 q 731 424 697 453 q 764 331 764 394 l 764 0 l 675 0 l 675 321 q 651 389 675 365 q 578 413 626 413 l 208 413 l 208 0 l 119 0 m 208 493 l 492 493 q 659 544 600 493 q 718 689 718 594 l 718 696 q 660 841 718 790 q 492 892 603 892 l 208 892 l 208 493 m 235 -200 l 235 -128 l 651 -128 l 651 -200 l 235 -200 z "},"Ṥ":{"ha":856,"x_min":75,"x_max":778,"o":"m 438 -19 q 251 17 333 -19 q 122 130 169 54 q 75 322 75 206 l 75 349 l 164 349 l 164 322 q 241 123 164 188 q 438 58 318 58 q 624 115 558 58 q 689 258 689 171 q 660 352 689 317 q 581 409 632 388 q 464 447 531 431 l 375 469 q 233 522 296 490 q 135 603 171 553 q 99 733 99 654 q 140 871 99 813 q 253 960 181 929 q 421 992 325 992 q 594 958 517 992 q 716 860 671 925 q 761 699 761 796 l 761 633 l 672 633 l 672 699 q 639 822 672 775 q 549 892 606 869 q 421 914 492 914 q 253 867 319 914 q 188 733 188 821 q 215 640 188 675 q 291 585 242 606 q 407 547 340 564 l 496 525 q 636 477 572 507 q 739 395 700 447 q 778 258 778 343 q 735 111 778 174 q 617 15 693 49 q 438 -19 540 -19 m 472 1053 l 564 1217 l 672 1217 l 558 1053 l 472 1053 m 315 1058 q 264 1079 285 1058 q 243 1131 243 1100 q 264 1183 243 1163 q 315 1203 285 1203 q 367 1183 347 1203 q 388 1131 388 1163 q 367 1079 388 1100 q 315 1058 347 1058 z "},"Ṧ":{"ha":856,"x_min":75,"x_max":778,"o":"m 438 -19 q 251 17 333 -19 q 122 130 169 54 q 75 322 75 206 l 75 349 l 164 349 l 164 322 q 241 123 164 188 q 438 58 318 58 q 624 115 558 58 q 689 258 689 171 q 660 352 689 317 q 581 409 632 388 q 464 447 531 431 l 375 469 q 233 522 296 490 q 135 603 171 553 q 99 733 99 654 q 140 871 99 813 q 253 960 181 929 q 421 992 325 992 q 594 958 517 992 q 716 860 671 925 q 761 699 761 796 l 761 633 l 672 633 l 672 699 q 639 822 672 775 q 549 892 606 869 q 421 914 492 914 q 253 867 319 914 q 188 733 188 821 q 215 640 188 675 q 291 585 242 606 q 407 547 340 564 l 496 525 q 636 477 572 507 q 739 395 700 447 q 778 258 778 343 q 735 111 778 174 q 617 15 693 49 q 438 -19 540 -19 m 378 1053 l 194 1217 l 307 1217 l 418 1111 l 435 1111 l 546 1217 l 658 1217 l 475 1053 l 378 1053 m 426 1250 q 375 1271 396 1250 q 354 1322 354 1292 q 375 1374 354 1354 q 426 1394 396 1394 q 478 1374 458 1394 q 499 1322 499 1354 q 478 1271 499 1292 q 426 1250 458 1250 z "},"Ə":{"ha":900,"x_min":89,"x_max":811,"o":"m 450 -19 q 183 75 278 -19 q 89 349 89 169 l 89 489 l 722 489 l 722 408 l 178 408 l 178 346 q 243 136 178 211 q 450 61 308 61 q 657 136 592 61 q 722 346 722 211 l 722 626 q 657 837 722 763 q 450 911 592 911 q 243 837 308 911 q 178 626 178 763 l 178 617 l 89 617 l 89 624 q 183 897 89 803 q 450 992 278 992 q 717 897 624 992 q 811 624 811 803 l 811 349 q 717 75 811 169 q 450 -19 624 -19 z "},"Ș":{"ha":856,"x_min":75,"x_max":778,"o":"m 438 -19 q 251 17 333 -19 q 122 130 169 54 q 75 322 75 206 l 75 349 l 164 349 l 164 322 q 241 123 164 188 q 438 58 318 58 q 624 115 558 58 q 689 258 689 171 q 660 352 689 317 q 581 409 632 388 q 464 447 531 431 l 375 469 q 233 522 296 490 q 135 603 171 553 q 99 733 99 654 q 140 871 99 813 q 253 960 181 929 q 421 992 325 992 q 594 958 517 992 q 716 860 671 925 q 761 699 761 796 l 761 633 l 672 633 l 672 699 q 639 822 672 775 q 549 892 606 869 q 421 914 492 914 q 253 867 319 914 q 188 733 188 821 q 215 640 188 675 q 291 585 242 606 q 407 547 340 564 l 496 525 q 636 477 572 507 q 739 395 700 447 q 778 258 778 343 q 735 111 778 174 q 617 15 693 49 q 438 -19 540 -19 m 386 -347 l 386 -294 l 415 -294 q 449 -285 439 -294 q 458 -253 458 -275 l 458 -228 l 444 -228 q 395 -209 415 -228 q 375 -160 375 -190 q 394 -111 375 -131 q 444 -92 414 -92 q 494 -112 474 -92 q 514 -168 514 -132 l 514 -254 q 492 -324 514 -301 q 421 -347 469 -347 l 386 -347 z "},"Ṡ":{"ha":856,"x_min":75,"x_max":778,"o":"m 438 -19 q 251 17 333 -19 q 122 130 169 54 q 75 322 75 206 l 75 349 l 164 349 l 164 322 q 241 123 164 188 q 438 58 318 58 q 624 115 558 58 q 689 258 689 171 q 660 352 689 317 q 581 409 632 388 q 464 447 531 431 l 375 469 q 233 522 296 490 q 135 603 171 553 q 99 733 99 654 q 140 871 99 813 q 253 960 181 929 q 421 992 325 992 q 594 958 517 992 q 716 860 671 925 q 761 699 761 796 l 761 633 l 672 633 l 672 699 q 639 822 672 775 q 549 892 606 869 q 421 914 492 914 q 253 867 319 914 q 188 733 188 821 q 215 640 188 675 q 291 585 242 606 q 407 547 340 564 l 496 525 q 636 477 572 507 q 739 395 700 447 q 778 258 778 343 q 735 111 778 174 q 617 15 693 49 q 438 -19 540 -19 m 426 1058 q 375 1079 396 1058 q 354 1131 354 1100 q 375 1183 354 1163 q 426 1203 396 1203 q 478 1183 458 1203 q 499 1131 499 1163 q 478 1079 499 1100 q 426 1058 458 1058 z "},"Ṣ":{"ha":856,"x_min":75,"x_max":778,"o":"m 438 -19 q 251 17 333 -19 q 122 130 169 54 q 75 322 75 206 l 75 349 l 164 349 l 164 322 q 241 123 164 188 q 438 58 318 58 q 624 115 558 58 q 689 258 689 171 q 660 352 689 317 q 581 409 632 388 q 464 447 531 431 l 375 469 q 233 522 296 490 q 135 603 171 553 q 99 733 99 654 q 140 871 99 813 q 253 960 181 929 q 421 992 325 992 q 594 958 517 992 q 716 860 671 925 q 761 699 761 796 l 761 633 l 672 633 l 672 699 q 639 822 672 775 q 549 892 606 869 q 421 914 492 914 q 253 867 319 914 q 188 733 188 821 q 215 640 188 675 q 291 585 242 606 q 407 547 340 564 l 496 525 q 636 477 572 507 q 739 395 700 447 q 778 258 778 343 q 735 111 778 174 q 617 15 693 49 q 438 -19 540 -19 m 444 -261 q 393 -240 414 -261 q 372 -189 372 -219 q 393 -137 372 -157 q 444 -117 414 -117 q 497 -137 476 -117 q 517 -189 517 -157 q 497 -240 517 -219 q 444 -261 476 -261 z "},"Ṩ":{"ha":856,"x_min":75,"x_max":778,"o":"m 438 -19 q 251 17 333 -19 q 122 130 169 54 q 75 322 75 206 l 75 349 l 164 349 l 164 322 q 241 123 164 188 q 438 58 318 58 q 624 115 558 58 q 689 258 689 171 q 660 352 689 317 q 581 409 632 388 q 464 447 531 431 l 375 469 q 233 522 296 490 q 135 603 171 553 q 99 733 99 654 q 140 871 99 813 q 253 960 181 929 q 421 992 325 992 q 594 958 517 992 q 716 860 671 925 q 761 699 761 796 l 761 633 l 672 633 l 672 699 q 639 822 672 775 q 549 892 606 869 q 421 914 492 914 q 253 867 319 914 q 188 733 188 821 q 215 640 188 675 q 291 585 242 606 q 407 547 340 564 l 496 525 q 636 477 572 507 q 739 395 700 447 q 778 258 778 343 q 735 111 778 174 q 617 15 693 49 q 438 -19 540 -19 m 444 -261 q 393 -240 414 -261 q 372 -189 372 -219 q 393 -137 372 -157 q 444 -117 414 -117 q 497 -137 476 -117 q 517 -189 517 -157 q 497 -240 517 -219 q 444 -261 476 -261 m 426 1058 q 375 1079 396 1058 q 354 1131 354 1100 q 375 1183 354 1163 q 426 1203 396 1203 q 478 1183 458 1203 q 499 1131 499 1163 q 478 1079 499 1100 q 426 1058 458 1058 z "}}}
